<svg width="143" height="50" viewBox="0 0 143 50" fill="none" xmlns="http://www.w3.org/2000/svg">
<path fill-rule="evenodd" clip-rule="evenodd" d="M22.0691 0.883789H22.0233H21.9471H21.8556H21.7641H21.6878H21.6573H21.5811H21.5048H21.4895H21.4133H21.337L21.3217 0.89904L21.2455 0.914292C21.1845 0.914292 21.1235 0.944792 21.0625 0.960042H21.0472H20.9862V0.975294L20.91 1.0058L20.8489 1.0363H20.8338H20.8185L20.7574 1.0668C20.7574 1.0668 20.6507 1.11255 20.5897 1.14305L20.5135 1.18881L20.4372 1.23456L20.361 1.28031C20.361 1.28031 20.2694 1.34132 20.2084 1.37182L20.1475 1.41757H20.1322C19.9797 1.52433 19.8424 1.63108 19.7051 1.75309L19.6442 1.79884L19.6289 1.82934L19.5832 1.8751C19.5832 1.8751 19.5069 1.95135 19.4612 1.99711C19.4612 1.99711 19.3849 2.08861 19.3544 2.11911V2.14962L19.3239 2.19537C19.2628 2.27162 19.2171 2.34788 19.1714 2.42413L19.1257 2.50039V2.53089L19.0951 2.59189L19.0493 2.66815L19.0036 2.7444L18.9578 2.82066C18.9578 2.82066 18.9121 2.91216 18.8816 2.97316V3.01892L18.8511 3.07992L18.8206 3.15618V3.18668V3.21718L0.245029 46.1333C0.107771 46.423 0.0314941 46.7586 0.0314941 47.1093C0.0314941 48.4057 1.08377 49.4732 2.3801 49.4732C3.37141 49.4732 4.21022 48.8784 4.57624 48.0091L21.7183 8.37199C21.8098 8.12798 22.0385 7.96022 22.3131 7.96022C22.5876 7.96022 22.8164 8.12798 22.9079 8.37199L40.0499 48.0091C40.4007 48.8632 41.2547 49.4732 42.246 49.4732C43.5424 49.4732 44.5946 48.4057 44.5946 47.1093C44.5946 46.7586 44.5185 46.4383 44.3812 46.1333L25.8208 3.20193V3.15618H25.7903L25.7598 3.09517L25.7293 3.03417V3.00367L25.6988 2.95792L25.6683 2.91216V2.88166L25.6225 2.8359L25.5921 2.79015L25.5615 2.7139L25.531 2.63764V2.60714L25.4853 2.56139L25.4548 2.48513L25.4242 2.45463L25.3785 2.37838L25.3327 2.31738L25.3023 2.27162L25.2717 2.22587L25.226 2.16487H25.2108L25.1955 2.11911L25.165 2.08861L25.1344 2.05811H25.1193L25.104 2.01236H25.0887L25.0582 1.95135L25.0278 1.92085L24.982 1.8751L24.9363 1.82934H24.921L24.9057 1.79884L24.8599 1.76834L24.8295 1.73784L24.799 1.70734L24.7532 1.67684H24.738L24.6922 1.63108L24.6617 1.60058H24.6312L24.5854 1.53958H24.555L24.5092 1.49383L24.4635 1.46332H24.433L24.3872 1.41757H24.3567L24.3109 1.37182H24.2804L24.2347 1.32606L24.1889 1.29556H24.1737L24.1127 1.24981L24.0517 1.20406L23.9906 1.17356L23.9297 1.14305H23.8991L23.8534 1.11255H23.8229L23.7619 1.08205H23.7314L23.6857 1.05155H23.6399L23.5942 1.02105H23.5484L23.5027 0.990545H23.4569L23.4264 0.960042H23.3654V0.944791H23.3044V0.92954H23.2433L23.2129 0.914292H23.1518L23.1214 0.89904H23.0603L23.0146 0.883789H22.9536H22.9231H22.8773H22.8316H22.7706H22.7249H22.6791H22.6334H22.5876H22.5419H22.4961H22.4655H22.0691Z" fill="black"/>
<path fill-rule="evenodd" clip-rule="evenodd" d="M72.4887 49.5201H72.4429H72.3666H72.2751H72.1836H72.1074H72.0769H72.0006H71.9244H71.9091H71.8329H71.7565L71.7414 49.5048L71.665 49.4896C71.604 49.4896 71.543 49.4591 71.482 49.4438H71.4668H71.4058V49.4286L71.3296 49.3981L71.2685 49.3676H71.2533H71.2381L71.177 49.3371C71.177 49.3371 71.0703 49.2913 71.0093 49.2608L70.933 49.2151L70.8568 49.1693L70.7806 49.1236C70.7806 49.1236 70.689 49.0626 70.628 49.0321L70.567 48.9863H70.5518C70.3992 48.8796 70.2619 48.7728 70.1247 48.6508L70.0637 48.605L70.0485 48.5745L70.0027 48.5288C70.0027 48.5288 69.9265 48.4525 69.8807 48.4068C69.8807 48.4068 69.8044 48.3153 69.7739 48.2848V48.2543L69.7434 48.2085C69.6824 48.1323 69.6367 48.056 69.5909 47.9798L69.5452 47.9035V47.873L69.4994 47.812L69.4537 47.7357L69.4079 47.6595L69.3621 47.5832C69.3621 47.5832 69.3164 47.4917 69.2859 47.4307V47.385L69.2555 47.324L69.2249 47.2477V47.2172V47.1867L50.6493 4.27062C50.5121 3.98085 50.4358 3.64533 50.4358 3.29456C50.4358 1.99823 51.4881 0.930664 52.7844 0.930664C53.7757 0.930664 54.6145 1.52545 54.9805 2.39475L72.1226 42.0319C72.2142 42.2759 72.4428 42.4437 72.7174 42.4437C72.9919 42.4437 73.2207 42.2759 73.3122 42.0319L90.4542 2.39475C90.805 1.5407 91.659 0.930664 92.6503 0.930664C93.9467 0.930664 94.999 1.99823 94.999 3.29456C94.999 3.64533 94.9228 3.9656 94.7855 4.27062L76.2251 47.202V47.2477H76.1946L76.1641 47.3087L76.1336 47.3697V47.4002L76.1031 47.446L76.0726 47.4917V47.5222L76.0269 47.568L75.9963 47.6137L75.9658 47.69L75.9354 47.7662V47.7967L75.8896 47.8425L75.859 47.9188L75.8286 47.9493L75.7828 48.0255L75.7371 48.0865L75.7066 48.1323L75.676 48.178L75.6303 48.239H75.6151L75.5998 48.2848L75.5693 48.3153L75.5388 48.3458H75.5236L75.5083 48.3915H75.493L75.4625 48.4525L75.4321 48.483L75.3863 48.5288L75.3406 48.5745H75.3253L75.31 48.605L75.2643 48.6355L75.2338 48.666L75.2033 48.6965L75.1576 48.727H75.1423L75.0965 48.7728L75.0661 48.8033H75.0355L74.9897 48.8643H74.9593L74.9135 48.9101L74.8678 48.9406H74.8373L74.7916 48.9863H74.761L74.7152 49.0321H74.6848L74.639 49.0778L74.5933 49.1083H74.578L74.517 49.1541L74.456 49.1998L74.395 49.2303L74.334 49.2608H74.3035L74.2577 49.2913H74.2272L74.1662 49.3218H74.1357L74.09 49.3523H74.0442L73.9985 49.3828H73.9527L73.907 49.4133H73.8612L73.8307 49.4438H73.7697V49.4591H73.7087V49.4743H73.6477L73.6172 49.4896H73.5561L73.5257 49.5048H73.4646L73.4189 49.5201H73.358H73.3274H73.2816H73.2359H73.1749H73.1292H73.0834H73.0377H72.9919H72.9462H72.9004H72.8699H72.4887Z" fill="black"/>
<path fill-rule="evenodd" clip-rule="evenodd" d="M140.05 0.884995C141.347 0.884995 142.399 1.93731 142.399 3.23363C142.399 4.52996 141.347 5.58228 140.05 5.58228H116.595C116.595 5.58228 116.579 5.58228 116.564 5.58228C116.549 5.58228 116.549 5.58228 116.534 5.58228C115.298 5.59753 114.292 6.57359 114.215 7.79366C114.215 7.83941 114.215 7.88517 114.215 7.93092C114.215 7.97667 114.215 8.02242 114.215 8.06818V24.5544C114.261 24.7527 114.292 24.9509 114.292 25.1645C114.292 25.378 114.261 25.6067 114.2 25.805V25.7745V42.2607C114.2 42.3065 114.2 42.3522 114.2 42.398C114.2 42.4438 114.2 42.4895 114.2 42.5353C114.276 43.7706 115.298 44.7466 116.549 44.7466H140.035H140.081C141.377 44.7466 142.43 45.799 142.43 47.0953C142.43 48.3916 141.377 49.4439 140.081 49.4439H111.958C110.662 49.4439 109.61 48.3916 109.61 47.0953V47.0495V25.1797V25.1492V25.1035V3.23363V3.20314C109.61 1.90681 110.662 0.854492 111.958 0.854492H112.004H140.05H140.096L140.05 0.884995ZM112.294 22.8463C112.294 22.8463 112.37 22.8463 112.401 22.8616H112.294V22.8463ZM112.523 22.8921C112.523 22.8921 112.599 22.9073 112.629 22.9226C112.599 22.9226 112.553 22.9073 112.523 22.8921ZM112.629 27.4063C112.629 27.4063 112.553 27.4216 112.523 27.4368C112.553 27.4368 112.599 27.4216 112.629 27.4063ZM112.401 27.4673C112.401 27.4673 112.324 27.4673 112.294 27.4826H112.401V27.4673Z" fill="black"/>
<path fill-rule="evenodd" clip-rule="evenodd" d="M135.368 22.8457C136.664 22.8457 137.717 23.898 137.717 25.1943C137.717 26.4907 136.664 27.543 135.368 27.543H112.873V22.8457H135.338H135.383H135.368Z" fill="black"/>
</svg>
