<svg width="1948" height="1469" viewBox="0 0 1948 1469" fill="none" xmlns="http://www.w3.org/2000/svg">
<path d="M471.996 0H1475.77L1947.24 1267.58H0L471.996 0Z" fill="#FF4F35"/>
<rect y="1267.58" width="1947.77" height="201.421" fill="#C63C27"/>
<path d="M1163.28 560.306C1163.28 582.845 1143.79 604.528 1109.31 620.825C1075.15 636.968 1027.67 647.068 974.994 647.068C922.318 647.068 874.834 636.968 840.678 620.825C806.197 604.528 786.711 582.845 786.711 560.306C786.711 537.766 806.197 516.083 840.678 499.787C874.834 483.644 922.318 473.544 974.994 473.544C1027.67 473.544 1075.15 483.644 1109.31 499.787C1143.79 516.083 1163.28 537.766 1163.28 560.306Z" stroke="white" stroke-width="8.43647"/>
<path d="M193.27 742.267H1754.58L1757.76 751.143H190.012L193.27 742.267Z" fill="white"/>
<path d="M320.379 407.193H1627.26L1630.16 414.959H317.486L320.379 407.193Z" fill="white"/>
<path d="M783.603 556.977H264.6L261.709 564.744H783.603V556.977Z" fill="white"/>
<path d="M1166.39 556.977H1682.95L1685.85 564.744H1166.39V556.977Z" fill="white"/>
</svg>
