<svg width="29" height="28" viewBox="0 0 29 28" fill="none" xmlns="http://www.w3.org/2000/svg">
<g clip-path="url(#clip0_159_941)">
<path d="M29 14C29 6.26808 22.5081 0 14.5 0C6.49194 0 0 6.26808 0 14C0 20.5654 4.68176 26.0747 10.9974 27.5878V18.2784H8.00748V14H10.9974V12.1565C10.9974 7.39144 13.231 5.1828 18.0763 5.1828C18.995 5.1828 20.5801 5.35696 21.2286 5.53056V9.40856C20.8864 9.37384 20.2919 9.35648 19.5535 9.35648C17.1761 9.35648 16.2574 10.2262 16.2574 12.4869V14H20.9937L20.1799 18.2784H16.2574V27.8975C23.4372 27.0603 29.0006 21.1579 29.0006 14H29Z" fill="#0866FF"/>
<path d="M20.1793 18.2782L20.993 13.9998H16.2568V12.4867C16.2568 10.226 17.1755 9.3563 19.5529 9.3563C20.2912 9.3563 20.8857 9.37366 21.2279 9.40838V5.53038C20.5795 5.35622 18.9944 5.18262 18.0756 5.18262C13.2303 5.18262 10.9967 7.39126 10.9967 12.1563V13.9998H8.00684V18.2782H10.9967V27.5877C12.1185 27.8565 13.2918 27.9998 14.4994 27.9998C15.0939 27.9998 15.6802 27.9645 16.2562 27.8973V18.2782H20.1787H20.1793Z" fill="white"/>
</g>
<defs>
<clipPath id="clip0_159_941">
<rect width="29" height="28" fill="white"/>
</clipPath>
</defs>
</svg>
