<svg width="27" height="27" viewBox="0 0 27 27" fill="none" xmlns="http://www.w3.org/2000/svg">
<path fill-rule="evenodd" clip-rule="evenodd" d="M0.0249023 13.4876C0.0249023 6.03861 6.06351 0 13.5125 0C20.9615 0 27.0001 6.03861 27.0001 13.4876C27.0001 20.9366 20.9615 26.9752 13.5125 26.9752C6.06351 26.9752 0.0249023 20.9366 0.0249023 13.4876ZM13.5132 6.29421C11.5596 6.29421 11.3144 6.30276 10.5471 6.33768C9.78127 6.37274 9.25855 6.49398 8.80116 6.67187C8.32804 6.8556 7.92671 7.10138 7.52687 7.50137C7.12673 7.9012 6.88096 8.30254 6.69662 8.77551C6.51829 9.23304 6.3969 9.75592 6.36243 10.5214C6.32811 11.2887 6.31912 11.5341 6.31912 13.4877C6.31912 15.4413 6.32781 15.6857 6.36258 16.453C6.3978 17.2188 6.51904 17.7416 6.69677 18.1989C6.88066 18.6721 7.12643 19.0734 7.52642 19.4732C7.92611 19.8734 8.32744 20.1198 8.80026 20.3035C9.25795 20.4814 9.78082 20.6026 10.5465 20.6377C11.3138 20.6726 11.5588 20.6811 13.5123 20.6811C15.4661 20.6811 15.7105 20.6726 16.4778 20.6377C17.2436 20.6026 17.7669 20.4814 18.2246 20.3035C18.6976 20.1198 19.0983 19.8734 19.498 19.4732C19.8981 19.0734 20.1439 18.6721 20.3282 18.1991C20.5051 17.7416 20.6265 17.2187 20.6624 16.4532C20.6969 15.6859 20.7059 15.4413 20.7059 13.4877C20.7059 11.5341 20.6969 11.2889 20.6624 10.5216C20.6265 9.75577 20.5051 9.23304 20.3282 8.77566C20.1439 8.30254 19.8981 7.9012 19.498 7.50137C19.0979 7.10123 18.6977 6.85545 18.2241 6.67187C17.7656 6.49398 17.2425 6.37274 16.4767 6.33768C15.7094 6.30276 15.4652 6.29421 13.5109 6.29421H13.5132Z" fill="black"/>
<path fill-rule="evenodd" clip-rule="evenodd" d="M12.8679 7.59054C13.0594 7.59024 13.2731 7.59054 13.5132 7.59054C15.4338 7.59054 15.6615 7.59743 16.4199 7.6319C17.1213 7.66397 17.502 7.78116 17.7555 7.87962C18.0912 8.01001 18.3306 8.16586 18.5822 8.41763C18.8339 8.66941 18.9898 8.90919 19.1205 9.24488C19.2189 9.49815 19.3363 9.87881 19.3682 10.5802C19.4027 11.3385 19.4102 11.5663 19.4102 13.486C19.4102 15.4058 19.4027 15.6336 19.3682 16.3919C19.3361 17.0933 19.2189 17.4739 19.1205 17.7272C18.9901 18.0629 18.8339 18.3019 18.5822 18.5535C18.3304 18.8053 18.0914 18.9612 17.7555 19.0915C17.5023 19.1904 17.1213 19.3073 16.4199 19.3394C15.6616 19.3739 15.4338 19.3814 13.5132 19.3814C11.5924 19.3814 11.3647 19.3739 10.6064 19.3394C9.90506 19.307 9.5244 19.1898 9.27069 19.0914C8.93499 18.961 8.69521 18.8051 8.44344 18.5534C8.19167 18.3016 8.03581 18.0624 7.90513 17.7266C7.80667 17.4733 7.68932 17.0927 7.6574 16.3913C7.62293 15.633 7.61604 15.4052 7.61604 13.4842C7.61604 11.5633 7.62293 11.3367 7.6574 10.5784C7.68947 9.87701 7.80667 9.49635 7.90513 9.24278C8.03551 8.90709 8.19167 8.66731 8.44344 8.41554C8.69521 8.16377 8.93499 8.00791 9.27069 7.87723C9.52425 7.77832 9.90506 7.66142 10.6064 7.6292C11.27 7.59923 11.5272 7.59024 12.8679 7.58874V7.59054ZM17.353 8.78495C16.8764 8.78495 16.4898 9.17115 16.4898 9.64787C16.4898 10.1244 16.8764 10.5111 17.353 10.5111C17.8296 10.5111 18.2162 10.1244 18.2162 9.64787C18.2162 9.1713 17.8296 8.78495 17.353 8.78495ZM13.5132 9.79353C11.4731 9.79353 9.81904 11.4476 9.81904 13.4877C9.81904 15.5278 11.4731 17.1811 13.5132 17.1811C15.5533 17.1811 17.2067 15.5278 17.2067 13.4877C17.2067 11.4476 15.5533 9.79353 13.5132 9.79353Z" fill="black"/>
<path fill-rule="evenodd" clip-rule="evenodd" d="M13.5132 11.0899C14.8374 11.0899 15.911 12.1633 15.911 13.4877C15.911 14.8119 14.8374 15.8855 13.5132 15.8855C12.1888 15.8855 11.1154 14.8119 11.1154 13.4877C11.1154 12.1633 12.1888 11.0899 13.5132 11.0899Z" fill="black"/>
</svg>
