<svg width="195" height="168" viewBox="0 0 195 168" fill="none" xmlns="http://www.w3.org/2000/svg">
<path fill-rule="evenodd" clip-rule="evenodd" d="M52.0799 135.72L32.0999 137.75L34.3399 125.46L11.1499 113.73L14.7199 103.64L10.2299 79.4502L0.899902 70.2402L2.5799 69.5202C5.8099 68.1302 9.47989 67.1102 12.8899 66.2202C17.3699 65.0502 21.9699 64.0002 26.5199 63.1102V37.2402L27.1999 36.9002C31.2299 34.8802 35.3199 32.9802 39.4199 31.1102C46.0499 28.0902 52.7299 25.1602 59.4399 22.3002C67.2999 8.66021 81.7999 0.220215 97.6199 0.220215C113.44 0.220215 127.94 8.66021 135.8 22.3002C142.5 25.1602 149.19 28.0902 155.82 31.1102C159.92 32.9802 164.01 34.8802 168.04 36.9002L168.72 37.2402V63.1102C173.28 64.0002 177.88 65.0502 182.35 66.2202C185.75 67.1102 189.42 68.1302 192.66 69.5202L194.34 70.2402L185.01 79.4502L180.52 103.64L184.09 113.73L160.9 125.46L163.14 137.75L143.16 135.72C142.53 136.63 141.8 137.54 141.11 138.36C138.76 141.19 136.11 143.82 133.36 146.25C123.14 155.29 110.71 162.19 98.0899 167.24L97.6299 167.42L97.1699 167.24C84.5499 162.19 72.1199 155.29 61.8999 146.25C59.1499 143.82 56.4999 141.18 54.1499 138.36C53.4599 137.54 52.7299 136.63 52.0999 135.72" fill="#030E80"/>
<path fill-rule="evenodd" clip-rule="evenodd" d="M134.93 23.2702C127.59 10.2402 113.63 1.4502 97.6098 1.4502C81.5898 1.4502 67.6298 10.2502 60.2898 23.2702C55.3598 25.3702 38.3398 32.6802 27.7398 37.9902V64.1202C27.7398 64.1202 10.6998 67.3702 3.05981 70.6502L11.3598 78.8502L15.9798 103.74L12.6598 113.12L35.6998 124.78L33.5898 136.37L52.6798 134.43C52.6798 134.43 64.2598 152.78 97.5898 166.12C130.92 152.79 142.5 134.43 142.5 134.43L161.59 136.37L159.48 124.78L182.52 113.12L179.2 103.74L183.82 78.8502L192.12 70.6502C184.48 67.3702 167.44 64.1202 167.44 64.1202V37.9902C156.84 32.6802 139.82 25.3702 134.89 23.2702" fill="white"/>
<path fill-rule="evenodd" clip-rule="evenodd" d="M55.28 37.8603C55.81 34.3403 56.76 30.9603 58.09 27.7803C52.46 30.2003 46.85 32.6703 41.28 35.2103C37.85 36.7703 34.41 38.3603 31.02 40.0303V63.6803C33.7 63.0903 36.4 62.5503 39.1 62.0603V45.0803L55.28 37.8603Z" fill="#030E80"/>
<path fill-rule="evenodd" clip-rule="evenodd" d="M57.5898 59.4604C56.0098 55.3104 55.0598 50.8404 54.8498 46.1904L47.0798 49.7104V60.7704C50.5698 60.2604 54.0798 59.8304 57.5898 59.4704" fill="#030E80"/>
<path fill-rule="evenodd" clip-rule="evenodd" d="M140.37 46.23C140.15 50.96 139.17 55.49 137.54 59.7C141.08 60.07 144.62 60.49 148.15 60.98V49.7L140.38 46.23H140.37Z" fill="#030E80"/>
<path fill-rule="evenodd" clip-rule="evenodd" d="M164.2 63.6903V40.0303C160.81 38.3703 157.38 36.7803 153.94 35.2103C148.37 32.6703 142.76 30.2003 137.13 27.7803C138.47 30.9803 139.43 34.3903 139.95 37.9303L156.11 45.0803V62.2003C158.81 62.6503 161.51 63.1503 164.19 63.6903" fill="#030E80"/>
<path fill-rule="evenodd" clip-rule="evenodd" d="M99.6898 3.89014C99.6898 3.89014 110.17 22.3201 99.3398 43.6201C99.3398 43.6201 101.01 46.7901 106.66 52.8401C106.66 52.8401 124.07 30.5301 104.33 4.27014L99.6798 3.90014L99.6898 3.89014Z" fill="#FC4B0B"/>
<path fill-rule="evenodd" clip-rule="evenodd" d="M108.94 5.44043L111.74 6.31043C111.74 6.31043 121.1 13.7504 124.73 26.7604C128 38.4804 124.7 50.7204 120.31 58.3904C118.07 58.2704 115.83 58.1604 113.59 58.0804C111.96 57.1404 110.24 56.0204 108.95 54.8604C108.95 54.8604 115.94 46.5704 116.72 31.3804C117.5 16.1804 108.95 5.44043 108.95 5.44043" fill="#030E80"/>
<path fill-rule="evenodd" clip-rule="evenodd" d="M119.79 10.5303C119.79 10.5303 129.42 16.0503 134.86 28.3703C139.4 38.6603 138.48 51.2003 135.21 59.5103C131.35 59.1403 127.47 58.8303 123.6 58.5903C127.7 51.0603 135.51 31.3603 119.79 10.5303Z" fill="#FC4B0B"/>
<path fill-rule="evenodd" clip-rule="evenodd" d="M108.29 57.9101C104.43 55.0201 100.62 51.1801 97.33 46.0701C95.62 45.8501 88.9 46.6001 86.45 47.4001C86.45 47.4001 88.58 52.4201 93.7 57.7501C95.13 57.7501 96.5499 57.7501 97.9799 57.7501C101.41 57.7701 104.85 57.8201 108.29 57.9101Z" fill="#FC4B0B"/>
<path fill-rule="evenodd" clip-rule="evenodd" d="M75.9698 58.1503C75.0298 56.6803 74.2298 55.2403 73.5898 53.8703C73.5898 53.8703 78.6598 50.1303 83.7798 48.3403C85.0798 51.7103 87.0198 54.8903 89.4298 57.7703C84.9498 57.8203 80.4498 57.9403 75.9598 58.1503" fill="#030E80"/>
<path fill-rule="evenodd" clip-rule="evenodd" d="M68.22 58.59C69.1 57.64 70.07 56.67 71.12 55.75C71.12 55.75 71.55 56.74 72.46 58.33C71.05 58.41 69.63 58.5 68.22 58.59Z" fill="#FC4B0B"/>
<path fill-rule="evenodd" clip-rule="evenodd" d="M64.25 58.8801C68.75 53.4901 79.2 43.7301 96.41 42.9901C97.75 40.5401 99.45 36.1401 100.39 33.2101C100.39 33.2101 72.81 30.1201 59.99 58.7601L60.21 59.2301C61.56 59.1001 62.91 58.9801 64.26 58.8801" fill="#FC4B0B"/>
<path fill-rule="evenodd" clip-rule="evenodd" d="M58.6998 54.6002L58.0898 51.5702C58.0898 51.5702 59.8898 39.8602 69.4498 30.3202C79.0098 20.7802 92.3298 18.0702 101.21 18.8802C101.21 18.8802 101.73 25.3802 100.92 30.2302C100.92 30.2302 88.6398 28.8702 77.4898 35.1002C63.8598 41.8702 58.6998 54.5902 58.6998 54.5902" fill="#030E80"/>
<path fill-rule="evenodd" clip-rule="evenodd" d="M57.2598 43.1704C58.0898 20.4404 75.5598 4.78039 96.3398 3.90039C96.3398 3.90039 99.4098 9.35039 100.62 15.7404C100.62 15.7404 70.5798 12.6804 57.2598 43.1804" fill="#FC4B0B"/>
<path fill-rule="evenodd" clip-rule="evenodd" d="M97.6098 162.57C109.32 157.76 120.85 151.28 130.35 142.88C132.93 140.6 135.42 138.13 137.62 135.48C138.34 134.62 139.15 133.62 139.75 132.67L140.83 130.95L157.6 132.66L155.7 120.46L158.97 121.37L178.49 111.5L175.84 104.01L180.81 77.24L186.15 71.97C184.48 71.46 182.8 71 181.19 70.58C176.49 69.35 171.64 68.25 166.86 67.34L164.19 66.83C142.81 62.49 120.53 60.91 97.9698 60.79C75.4198 60.67 52.5898 62 31.0198 66.83L28.3498 67.34C23.5698 68.25 18.7198 69.34 14.0198 70.58C12.4098 71 10.7198 71.46 9.05981 71.97L14.3998 77.24L19.3698 104.01L16.7198 111.5L36.2398 121.37L39.5098 120.46L37.6098 132.66L54.3798 130.95L55.4598 132.67C56.0598 133.62 56.8698 134.62 57.5898 135.48C59.7898 138.13 62.2798 140.6 64.8598 142.88C74.3598 151.28 85.8798 157.76 97.5998 162.57" fill="#030E80"/>
<path fill-rule="evenodd" clip-rule="evenodd" d="M44.65 114.44L48.5 113.99L47.01 123.17C47.01 123.17 46.69 124.44 48.92 125.31C51.15 126.18 54.4 127.5 54.4 127.5L44.23 128.76C44.23 128.76 42.35 129.21 42.67 126.8L44.65 114.44Z" fill="white"/>
<path fill-rule="evenodd" clip-rule="evenodd" d="M150.57 114.44L146.72 113.99L148.21 123.17C148.21 123.17 148.53 124.44 146.3 125.31C144.07 126.18 140.82 127.5 140.82 127.5L150.99 128.76C150.99 128.76 152.87 129.21 152.55 126.8L150.57 114.44Z" fill="white"/>
<path fill-rule="evenodd" clip-rule="evenodd" d="M155.74 68.0004C155.7 68.2004 155.82 68.4404 156.1 68.7304C156.36 69.0004 156.71 69.2004 157.17 69.3104C157.62 69.4204 158.04 69.4104 158.39 69.2804C158.75 69.1504 158.94 68.9904 158.98 68.7904C160.1 69.0804 161.22 69.3704 162.33 69.7004C162.26 70.0304 162.11 70.3504 161.91 70.6504C161.7 70.9604 161.4 71.2204 160.98 71.4004C160.54 71.6004 160.01 71.7004 159.32 71.7204C158.65 71.7404 157.82 71.6204 156.81 71.3904C155.8 71.1604 154.98 70.8804 154.37 70.5504C153.77 70.2204 153.3 69.8704 153 69.5004C152.7 69.1304 152.46 68.7504 152.38 68.3604C152.3 67.9804 152.29 67.6104 152.36 67.2804C153.48 67.5104 154.62 67.7504 155.75 68.0104M160.32 90.1604C158.69 89.7604 157.06 89.3504 155.43 88.9504C155.7 87.4104 155.98 85.8604 156.26 84.3204C156.53 82.7804 156.82 81.2304 157.1 79.6904C157.07 79.6904 157.05 79.6804 157.03 79.6704C156.26 81.0904 155.46 82.5004 154.69 83.9504C153.92 85.4004 153.14 86.8604 152.39 88.3104C150.64 87.9704 148.89 87.6404 147.14 87.3304C147.59 84.3404 148.05 81.3504 148.51 78.3504C148.97 75.3604 149.43 72.3704 149.87 69.3704C150.63 69.5104 151.39 69.6704 152.15 69.8204C152.28 69.9504 152.46 70.0904 152.69 70.2604C152.92 70.4204 153.13 70.5804 153.39 70.7404C153.66 70.8904 153.92 71.0404 154.19 71.1704C154.47 71.3004 154.71 71.3904 154.95 71.4404C154.72 72.8304 154.48 74.2204 154.25 75.6104C154.01 77.0004 153.78 78.3904 153.55 79.7804C153.56 79.7804 153.59 79.7804 153.62 79.7904C154.31 78.5004 154.99 77.2104 155.69 75.9204C156.39 74.6404 157.12 73.3704 157.81 72.1104C158.1 72.1804 158.42 72.2404 158.79 72.2704C159.15 72.3004 159.51 72.3104 159.85 72.3104C160.22 72.3104 160.55 72.2904 160.84 72.2404C161.12 72.2004 161.36 72.1304 161.55 72.0404C162.27 72.2504 163 72.4604 163.77 72.6704C163.2 75.5804 162.62 78.4904 162.04 81.4104C161.46 84.3204 160.89 87.2304 160.32 90.1404V90.1604ZM139.82 86.2604C140.01 84.6804 140.22 83.0904 140.42 81.5004C140.62 79.9104 140.84 78.3304 141.04 76.7404C141.01 76.7404 140.97 76.7404 140.96 76.7404C140.25 78.2704 139.54 79.7904 138.83 81.3204C138.12 82.8504 137.43 84.3904 136.73 85.9304C134.93 85.7304 133.13 85.5304 131.34 85.3604C131.65 82.3004 131.96 79.2404 132.27 76.1904C132.58 73.1404 132.9 70.0804 133.2 67.0204C134.99 67.2204 136.78 67.4304 138.59 67.6404C138.4 69.2404 138.2 70.8404 138.01 72.4304C137.82 74.0304 137.65 75.6204 137.45 77.2204C137.46 77.2204 137.49 77.2204 137.52 77.2204C138.23 75.6904 138.95 74.1604 139.67 72.6404C140.39 71.1104 141.13 69.6004 141.88 68.0804C143.74 68.3504 145.62 68.6504 147.48 68.9604C147.05 71.9704 146.61 74.9704 146.17 77.9804C145.73 80.9904 145.3 83.9904 144.86 87.0004C143.18 86.7504 141.49 86.5104 139.81 86.2704L139.82 86.2604ZM121.85 66.0404C121.76 67.1904 121.68 68.3504 121.61 69.5104C121.53 70.6604 121.46 71.8204 121.37 72.9704C122.44 73.0404 123.51 73.1104 124.58 73.1804C124.67 72.0304 124.77 70.8804 124.86 69.7304C124.95 68.5804 125.03 67.4304 125.12 66.2704C126.99 66.4304 128.85 66.5904 130.72 66.7604C130.43 69.8304 130.13 72.9004 129.84 75.9604C129.55 79.0204 129.27 82.0904 128.99 85.1604C127.23 85.0204 125.45 84.8804 123.7 84.7404C123.79 83.4304 123.88 82.1204 123.99 80.8104C124.09 79.5004 124.2 78.1904 124.3 76.8804C123.24 76.8204 122.19 76.7504 121.13 76.6804C121.03 78.0004 120.94 79.3104 120.86 80.6304C120.78 81.9404 120.68 83.2604 120.6 84.5704C118.82 84.4704 117.06 84.3804 115.28 84.2804C115.44 81.1804 115.59 78.0904 115.76 74.9904C115.93 71.9004 116.08 68.8004 116.24 65.7104C118.11 65.8104 120 65.9204 121.87 66.0404H121.85ZM99.12 70.3504C99.12 69.4504 99.2999 68.6604 99.6599 67.9804C100.03 67.3004 100.54 66.7404 101.19 66.3004C101.84 65.8604 102.62 65.5404 103.51 65.3304C104.4 65.1204 105.37 65.0204 106.4 65.0404C107.47 65.0604 108.45 65.2104 109.31 65.4604C110.18 65.7104 110.94 66.0704 111.58 66.5304C112.22 66.9904 112.69 67.5704 113.02 68.2704C113.35 68.9604 113.5 69.7604 113.45 70.6604C113.42 71.2404 113.4 71.8204 113.37 72.4004C111.54 72.3304 109.71 72.2704 107.85 72.2104C107.87 71.5104 107.89 70.8104 107.91 70.1104C107.91 69.9604 107.91 69.7804 107.89 69.5804C107.86 69.3804 107.82 69.2004 107.72 69.0104C107.62 68.8404 107.48 68.6904 107.27 68.5604C107.06 68.4304 106.75 68.3604 106.32 68.3604C105.92 68.3604 105.6 68.4104 105.4 68.5304C105.18 68.6504 105 68.7904 104.89 68.9604C104.78 69.1304 104.73 69.3204 104.71 69.5204C104.69 69.7204 104.68 69.8904 104.68 70.0504C104.65 71.5904 104.62 73.1204 104.59 74.6604C104.56 76.1904 104.54 77.7304 104.51 79.2704C104.51 79.3904 104.49 79.5504 104.51 79.7504C104.52 79.9504 104.57 80.1404 104.67 80.3204C104.77 80.5004 104.93 80.6504 105.15 80.7904C105.35 80.9204 105.66 80.9904 106.06 80.9904C106.45 80.9904 106.75 80.9304 106.96 80.8104C107.17 80.6804 107.33 80.5304 107.43 80.3604C107.53 80.1804 107.6 79.9904 107.62 79.7904C107.64 79.5904 107.66 79.4304 107.66 79.3104C107.68 78.4004 107.72 77.5004 107.74 76.5904C109.57 76.6404 111.39 76.7004 113.2 76.7704C113.18 77.5504 113.13 78.3404 113.1 79.1304C113.04 80.8004 112.35 82.1004 111.1 83.0204C109.84 83.9504 108.15 84.3504 105.98 84.3204C103.85 84.2904 102.17 83.8104 100.95 82.8404C99.7199 81.8604 99.1 80.5404 99.11 78.8604C99.11 77.4504 99.11 76.0304 99.11 74.6104C99.11 73.2004 99.1299 71.7704 99.1299 70.3604L99.12 70.3504ZM87.3199 76.3104C87.2799 75.1104 87.2299 73.9204 87.2 72.7104C88.4799 72.6804 89.8 72.6604 91.12 72.6404C91.1 71.7704 91.08 70.9004 91.06 70.0304C91.06 69.8804 91.0399 69.7004 91.0099 69.5004C90.9899 69.3004 90.91 69.1204 90.8 68.9404C90.7 68.7704 90.55 68.6204 90.34 68.5104C90.12 68.3904 89.81 68.3304 89.39 68.3404C88.99 68.3404 88.68 68.4104 88.45 68.5404C88.2299 68.6604 88.07 68.8204 87.9799 68.9904C87.88 69.1704 87.81 69.3604 87.81 69.5604C87.81 69.7604 87.81 69.9404 87.81 70.1004C87.83 70.6404 87.8399 71.1904 87.8799 71.7404C86.0199 71.7904 84.19 71.8504 82.34 71.9104C82.32 71.4804 82.3 71.0604 82.28 70.6304C82.24 69.7304 82.4 68.9204 82.72 68.2204C83.04 67.5204 83.54 66.9404 84.15 66.4804C84.78 66.0104 85.55 65.6604 86.43 65.4104C87.3 65.1604 88.27 65.0204 89.31 65.0004C90.37 64.9804 91.34 65.0904 92.22 65.3004C93.1 65.5104 93.8799 65.8404 94.5399 66.2804C95.1899 66.7204 95.69 67.2804 96.05 67.9604C96.41 68.6504 96.62 69.4404 96.62 70.3404C96.62 71.7604 96.62 73.1804 96.62 74.6004C96.62 76.0204 96.64 77.4404 96.65 78.8504C96.65 80.5304 96.03 81.8604 94.8 82.8404C93.58 83.8104 91.91 84.3104 89.77 84.3504C87.63 84.3904 85.91 83.9704 84.67 83.0604C83.4 82.1304 82.72 80.8404 82.64 79.1504C82.61 78.5204 82.58 77.8804 82.56 77.2504C84.37 77.1904 86.1899 77.1204 88.0099 77.0704C88.0299 77.8304 88.0399 78.5804 88.0699 79.3404C88.0699 79.4604 88.09 79.6204 88.11 79.8204C88.13 80.0204 88.1899 80.2104 88.2899 80.3904C88.3899 80.5704 88.55 80.7304 88.77 80.8504C89.01 80.9804 89.2999 81.0404 89.6899 81.0304C90.0899 81.0304 90.39 80.9604 90.59 80.8204C90.79 80.6904 90.93 80.5304 91.02 80.3404C91.11 80.1504 91.18 79.9604 91.2 79.7704C91.22 79.5704 91.2299 79.4104 91.2299 79.2904C91.2 78.2804 91.19 77.2604 91.18 76.2404C89.88 76.2604 88.58 76.2804 87.31 76.3104H87.3199ZM79.0399 65.6204C79.1699 68.1404 79.3 70.6604 79.43 73.1904C79.56 75.7104 79.6899 78.2304 79.8199 80.7504C80.3199 80.7304 80.8099 80.7104 81.3199 80.6904C81.3799 81.9004 81.45 83.1104 81.5 84.3204C80 84.3704 78.52 84.4604 77.02 84.5404C74.21 84.7104 71.3999 84.8704 68.5999 85.1004C67.1099 85.2204 65.64 85.3504 64.18 85.4704C64.06 84.2604 63.9299 83.0504 63.8199 81.8304C64.2499 81.7904 64.6899 81.7504 65.1599 81.7204C65.5299 80.8804 65.77 79.8504 65.9 78.6104C66.02 77.3804 66.0699 76.0704 66.0399 74.6704C66.0099 73.2804 65.95 71.8604 65.84 70.4304C65.73 69.0004 65.6399 67.6604 65.5699 66.4004C70.0499 66.0904 74.52 65.8304 79.05 65.6104L79.0399 65.6204ZM74.4099 81.0504C74.2799 79.0604 74.1399 77.0604 74.0099 75.0704C73.8799 73.0804 73.75 71.0804 73.62 69.0804C72.71 69.1304 71.81 69.1804 70.93 69.2404C70.97 70.2704 70.9899 71.3604 71.0099 72.5004C71.0299 73.6504 71.0099 74.7604 70.9799 75.8504C70.9599 76.9404 70.9099 77.9604 70.8199 78.9004C70.7199 79.8604 70.58 80.6504 70.36 81.3004C71.7 81.2104 73.05 81.1304 74.42 81.0504H74.4099ZM52.21 67.6504C52.35 68.8304 52.4899 70.0004 52.6299 71.1804C52.7699 72.3604 52.93 73.5304 53.08 74.7104C54.11 74.5904 55.17 74.4704 56.21 74.3604C56.09 73.1904 55.94 72.0104 55.81 70.8304C55.68 69.6504 55.54 68.4804 55.4 67.3004C57.25 67.1204 59.0999 66.9504 60.9399 66.7804C61.2499 69.9104 61.5599 73.0504 61.8799 76.1804C62.1899 79.3104 62.5099 82.4504 62.8199 85.5804C61.0799 85.7804 59.32 85.9804 57.58 86.1704C57.42 84.8304 57.26 83.5004 57.11 82.1604C56.95 80.8204 56.8099 79.4804 56.6599 78.1404C55.6199 78.2604 54.5699 78.3704 53.5399 78.4904C53.6999 79.8304 53.86 81.1704 54.03 82.5104C54.2 83.8504 54.3699 85.1904 54.5399 86.5204C52.7999 86.7704 51.06 87.0304 49.33 87.2804C48.89 84.1204 48.4399 80.9504 48.0099 77.7904C47.5799 74.6204 47.15 71.4604 46.71 68.2904C48.53 68.0704 50.37 67.8504 52.2 67.6404L52.21 67.6504ZM36.5399 69.7904C36.9599 70.8304 37.39 71.8804 37.81 72.9204C38.23 73.9604 38.65 75.0004 39.09 76.0404C39.1 76.0404 39.1299 76.0404 39.1599 76.0304C39.2199 74.9004 39.32 73.7804 39.4 72.6604C39.48 71.5404 39.57 70.4204 39.68 69.3004C41.53 69.0204 43.38 68.7504 45.25 68.5004C44.78 70.4604 44.3099 72.4304 43.8499 74.4104C43.3899 76.3904 42.96 78.3904 42.53 80.3804C42.73 81.6904 42.91 83.0104 43.11 84.3204C43.31 85.6304 43.53 86.9404 43.7299 88.2504C42.0099 88.5704 40.3 88.9104 38.61 89.3104C38.39 88.0404 38.19 86.7604 37.97 85.4904C37.75 84.2204 37.52 82.9504 37.31 81.6804C36.28 79.8804 35.22 78.0704 34.17 76.2504C33.12 74.4204 32.05 72.6004 30.97 70.7504C32.82 70.4204 34.67 70.1004 36.53 69.7904H36.5399Z" fill="white"/>
<path fill-rule="evenodd" clip-rule="evenodd" d="M148.6 77.85C150.31 78.12 152.02 78.41 153.75 78.71C153.69 79.06 153.63 79.41 153.57 79.76C153.58 79.76 153.61 79.76 153.64 79.77C153.82 79.44 153.99 79.11 154.17 78.77C156.84 79.25 159.53 79.78 162.25 80.36L162.04 81.39C161.46 84.3 160.89 87.21 160.32 90.12C158.69 89.72 157.06 89.31 155.43 88.91C155.7 87.37 155.98 85.82 156.26 84.28C156.53 82.74 156.82 81.19 157.1 79.65C157.07 79.65 157.05 79.64 157.03 79.63C156.26 81.05 155.46 82.46 154.69 83.91C153.92 85.36 153.14 86.82 152.39 88.27C150.64 87.93 148.89 87.6 147.14 87.29C147.59 84.3 148.05 81.31 148.51 78.31L148.58 77.83L148.6 77.85ZM141.03 76.77C142.76 76.99 144.49 77.23 146.24 77.49L146.17 77.95C145.73 80.96 145.3 83.96 144.86 86.97C143.18 86.72 141.49 86.48 139.81 86.24C140 84.66 140.21 83.07 140.41 81.48C140.61 79.91 140.82 78.33 141.02 76.76L141.03 76.77ZM132.32 75.78C134.05 75.95 135.8 76.14 137.57 76.34C137.54 76.62 137.5 76.91 137.47 77.19C137.48 77.19 137.51 77.19 137.54 77.19L137.92 76.38C138.93 76.5 139.94 76.62 140.95 76.75C140.25 78.26 139.54 79.78 138.84 81.29C138.13 82.82 137.44 84.36 136.74 85.9C134.94 85.7 133.14 85.5 131.35 85.33C131.66 82.27 131.97 79.21 132.28 76.16L132.32 75.78ZM115.76 74.61C120.34 74.82 125.04 75.12 129.87 75.55L129.83 75.95C129.54 79.01 129.26 82.08 128.98 85.15C127.22 85.01 125.44 84.87 123.69 84.73C123.78 83.42 123.87 82.11 123.98 80.8C124.08 79.49 124.19 78.18 124.29 76.87C123.23 76.81 122.18 76.74 121.12 76.67C121.02 77.99 120.93 79.3 120.85 80.62C120.77 81.93 120.67 83.25 120.59 84.56C118.81 84.46 117.05 84.37 115.27 84.27C115.43 81.17 115.58 78.08 115.75 74.98L115.77 74.61H115.76ZM99.0998 74.23C100.9 74.23 102.73 74.25 104.59 74.28V74.66C104.55 76.19 104.53 77.73 104.5 79.27C104.5 79.39 104.48 79.55 104.5 79.75C104.51 79.95 104.56 80.14 104.66 80.32C104.76 80.5 104.92 80.65 105.14 80.79C105.34 80.92 105.65 80.99 106.05 80.99C106.44 80.99 106.74 80.93 106.95 80.81C107.16 80.68 107.32 80.53 107.42 80.36C107.52 80.18 107.59 79.99 107.61 79.79C107.63 79.59 107.65 79.43 107.65 79.31C107.67 78.4 107.71 77.5 107.73 76.59C109.56 76.64 111.38 76.7 113.19 76.77C113.17 77.55 113.12 78.34 113.09 79.13C113.03 80.8 112.34 82.1 111.09 83.02C109.83 83.95 108.14 84.35 105.97 84.32C103.84 84.29 102.16 83.81 100.94 82.84C99.7098 81.86 99.0898 80.54 99.0998 78.86C99.0998 77.45 99.0998 76.03 99.0998 74.61V74.24V74.23ZM87.2598 74.33C88.4098 74.31 89.5798 74.29 90.7598 74.27C92.6898 74.25 94.6498 74.23 96.6498 74.23V74.6C96.6498 76.02 96.6698 77.44 96.6798 78.85C96.6798 80.53 96.0598 81.86 94.8298 82.84C93.6098 83.81 91.9398 84.31 89.7998 84.35C87.6598 84.39 85.9398 83.97 84.6998 83.06C83.4298 82.13 82.7498 80.84 82.6698 79.15C82.6398 78.52 82.6098 77.88 82.5898 77.25C84.3998 77.19 86.2198 77.12 88.0398 77.07C88.0598 77.83 88.0698 78.58 88.0998 79.34C88.0998 79.46 88.1198 79.62 88.1398 79.82C88.1598 80.02 88.2198 80.21 88.3198 80.39C88.4198 80.57 88.5798 80.73 88.7998 80.85C89.0398 80.98 89.3298 81.04 89.7198 81.03C90.1198 81.03 90.4198 80.96 90.6198 80.82C90.8198 80.69 90.9598 80.53 91.0498 80.34C91.1398 80.15 91.2098 79.96 91.2298 79.77C91.2498 79.57 91.2598 79.41 91.2598 79.29C91.2298 78.28 91.2198 77.26 91.2098 76.24C89.9098 76.26 88.6098 76.28 87.3398 76.31C87.3198 75.65 87.2898 75 87.2698 74.34L87.2598 74.33ZM66.0498 75.35C67.6498 75.23 69.2998 75.12 70.9998 75.01L70.9798 75.85C70.9598 76.94 70.9098 77.96 70.8198 78.9C70.7198 79.86 70.5798 80.65 70.3598 81.3C71.6998 81.21 73.0498 81.13 74.4198 81.05C74.2898 79.06 74.1498 77.06 74.0198 75.07L73.9998 74.84C75.7898 74.74 77.6298 74.65 79.5098 74.58C79.6198 76.64 79.7198 78.69 79.8298 80.75C80.3298 80.73 80.8198 80.71 81.3298 80.69C81.3898 81.9 81.4598 83.11 81.5098 84.32C80.0098 84.37 78.5298 84.46 77.0298 84.54C74.2198 84.71 71.4098 84.87 68.6098 85.1C67.1198 85.22 65.6498 85.35 64.1898 85.47C64.0698 84.26 63.9398 83.05 63.8298 81.83C64.2598 81.79 64.6998 81.75 65.1698 81.72C65.5398 80.88 65.7798 79.85 65.9098 78.61C66.0098 77.58 66.0598 76.49 66.0598 75.34L66.0498 75.35ZM47.9398 77.17C51.8998 76.66 56.5698 76.14 61.8498 75.69L61.8998 76.18C62.2098 79.31 62.5298 82.45 62.8398 85.58C61.0998 85.78 59.3398 85.98 57.5998 86.17C57.4398 84.83 57.2798 83.5 57.1298 82.16C56.9698 80.82 56.8298 79.48 56.6798 78.14C55.6398 78.26 54.5898 78.37 53.5598 78.49C53.7198 79.83 53.8798 81.17 54.0498 82.51C54.2198 83.85 54.3898 85.19 54.5598 86.52C52.8198 86.77 51.0798 87.03 49.3498 87.28C48.9098 84.12 48.4598 80.95 48.0298 77.79L47.9398 77.17ZM43.0998 77.83C42.9098 78.68 42.7298 79.53 42.5498 80.37C42.7498 81.68 42.9298 83 43.1298 84.31C43.3298 85.62 43.5498 86.93 43.7498 88.24C42.0298 88.56 40.3198 88.9 38.6298 89.3C38.4098 88.03 38.2098 86.75 37.9898 85.48C37.7698 84.21 37.5398 82.94 37.3298 81.67C36.8198 80.78 36.3098 79.89 35.7898 79C37.5398 78.69 39.9998 78.28 43.0998 77.83Z" fill="#E5E6E7"/>
<path fill-rule="evenodd" clip-rule="evenodd" d="M140.91 90.0102C140.82 90.8402 140.73 91.6602 140.65 92.4902C139.29 92.3702 137.96 92.2502 136.61 92.1202C136.53 92.9902 136.44 93.8502 136.37 94.7102C136.29 95.5702 136.21 96.4402 136.13 97.3002C136.05 98.1702 135.97 99.0302 135.89 99.8902C135.81 100.75 135.73 101.62 135.65 102.48C134.47 102.37 133.28 102.28 132.08 102.19C132.16 101.12 132.25 100.04 132.32 98.9702C132.4 97.9002 132.49 96.8202 132.58 95.7502C132.67 94.6802 132.75 93.6002 132.83 92.5302C132.91 91.4602 133 90.3802 133.09 89.3102C135.69 89.5402 138.29 89.7802 140.9 90.0202M126.98 101.83C127.06 100.7 127.11 99.5602 127.18 98.4302C127.25 97.3002 127.35 96.1702 127.41 95.0302C127.39 95.0302 127.38 95.0302 127.37 95.0302C126.95 96.1402 126.53 97.2502 126.11 98.3502C125.69 99.4602 125.28 100.57 124.87 101.68C123.65 101.6 122.4 101.53 121.18 101.46C121.23 100.37 121.28 99.2802 121.32 98.1902C121.36 97.1002 121.42 96.0102 121.47 94.9302C121.52 93.8402 121.56 92.7602 121.6 91.6702C121.65 90.5802 121.69 89.4902 121.74 88.4102C122.95 88.5002 124.16 88.5802 125.39 88.6802C125.32 89.8102 125.28 90.9502 125.21 92.0802C125.14 93.2102 125.08 94.3502 125.02 95.4902C125.02 95.4902 125.05 95.4902 125.06 95.4902C125.47 94.3802 125.89 93.2702 126.31 92.1702C126.73 91.0602 127.18 89.9602 127.62 88.8602C128.89 88.9602 130.15 89.0602 131.43 89.1702C131.35 90.2502 131.25 91.3202 131.18 92.4002C131.1 93.4802 131.03 94.5502 130.95 95.6302C130.87 96.7102 130.78 97.7802 130.71 98.8602C130.64 99.9402 130.54 101.01 130.48 102.09C129.29 102 128.14 101.92 126.99 101.84L126.98 101.83ZM108.72 98.1702C108.85 98.2702 108.94 98.3602 109.04 98.4202C109.14 98.4802 109.28 98.5202 109.43 98.5302C109.68 98.5302 109.86 98.5002 109.98 98.4202C110.11 98.3402 110.24 98.1702 110.36 97.9002C110.49 97.6102 110.6 97.1502 110.66 96.5102C110.72 95.8802 110.78 95.1202 110.8 94.2302C110.83 93.3402 110.87 92.3502 110.88 91.2502C110.88 90.7002 110.91 90.1402 110.92 89.5602C110.94 88.9802 110.95 88.3902 110.97 87.7802C114 87.9302 117.03 88.1002 120.06 88.2902C120.01 89.3802 119.97 90.4702 119.93 91.5602C119.89 92.6502 119.85 93.7402 119.81 94.8302C119.77 95.9202 119.71 97.0102 119.68 98.1002C119.64 99.1902 119.6 100.28 119.56 101.37C118.35 101.3 117.14 101.25 115.94 101.19C115.96 100.28 115.98 99.3702 116 98.4602C116.02 97.5502 116.05 96.6402 116.08 95.7302C116.1 94.8202 116.13 93.9102 116.16 93.0102C116.18 92.1002 116.21 91.1902 116.23 90.2802C115.63 90.2502 115.03 90.2102 114.43 90.1802C114.39 90.7202 114.38 91.3702 114.35 92.1502C114.33 92.9302 114.28 93.7302 114.22 94.5502C114.17 95.3702 114.11 96.1602 113.99 96.9202C113.88 97.6802 113.74 98.3002 113.55 98.7802C113.21 99.6602 112.77 100.27 112.19 100.59C111.6 100.92 110.99 101.07 110.35 101.05C110.21 101.05 110.04 101.03 109.86 100.99C109.69 100.95 109.52 100.91 109.37 100.85C109.23 100.8 109.08 100.74 108.96 100.68C108.83 100.62 108.74 100.56 108.7 100.51C108.7 99.7302 108.7 98.9402 108.7 98.1602L108.72 98.1702ZM102.03 87.5002C102.05 88.3902 102.06 89.2902 102.07 90.1802C102.08 91.0702 102.12 91.9602 102.13 92.8502C102.14 93.7402 102.16 94.6402 102.18 95.5302C102.2 96.4202 102.21 97.3102 102.22 98.2102C102.56 98.2102 102.89 98.2202 103.24 98.2302C103.26 99.0802 103.27 99.9402 103.28 100.79C102.26 100.78 101.26 100.77 100.24 100.75C98.3199 100.73 96.4099 100.73 94.4899 100.73C93.4699 100.73 92.4799 100.74 91.4699 100.76C91.4199 99.9102 91.3899 99.0602 91.3299 98.2002C91.6299 98.2002 91.9199 98.1902 92.2399 98.1902C92.5299 97.6202 92.7199 96.9102 92.8399 96.0502C92.9599 95.1902 93.0099 94.2702 93.0299 93.2902C93.0499 92.3102 93.0299 91.3202 92.9999 90.3102C92.9599 89.3002 92.9199 88.3502 92.9199 87.4702C95.9599 87.4502 98.9899 87.4502 102.03 87.5002ZM98.5599 98.1602C98.5399 97.4602 98.5099 96.7502 98.4899 96.0502C98.4699 95.3502 98.4499 94.6402 98.4299 93.9302C98.4099 93.2302 98.3799 92.5202 98.3599 91.8202C98.3399 91.1202 98.3199 90.4102 98.2999 89.7002C97.6899 89.7002 97.0999 89.7002 96.4799 89.7002C96.4799 90.4202 96.4799 91.1902 96.4499 92.0002C96.4299 92.8002 96.3999 93.5902 96.3599 94.3502C96.3099 95.1102 96.2399 95.8302 96.1599 96.4902C96.0799 97.1602 95.9499 97.7102 95.7899 98.1502C96.6999 98.1502 97.6299 98.1502 98.5499 98.1502L98.5599 98.1602ZM83.9499 95.4302C83.8899 94.5902 83.8199 93.7502 83.7699 92.9002C84.6299 92.8702 85.5199 92.8402 86.3999 92.8102C86.3499 92.2002 86.3099 91.5902 86.2699 90.9802C86.2699 90.8702 86.2399 90.7402 86.2099 90.6002C86.1899 90.4602 86.1499 90.3302 86.0799 90.2102C86.0099 90.0902 85.8899 89.9902 85.7399 89.9102C85.5899 89.8302 85.3699 89.8002 85.0899 89.8102C84.8199 89.8102 84.6099 89.8702 84.4699 89.9602C84.3299 90.0502 84.2399 90.1602 84.1799 90.2802C84.1199 90.4002 84.0799 90.5402 84.0899 90.6802C84.0899 90.8202 84.1099 90.9502 84.1199 91.0602C84.1499 91.4402 84.1699 91.8302 84.1999 92.2102C82.9599 92.2602 81.7299 92.3102 80.4899 92.3702C80.4599 92.0702 80.4399 91.7702 80.4099 91.4802C80.3499 90.8502 80.4399 90.2902 80.6299 89.8002C80.8199 89.3102 81.1299 88.8902 81.5399 88.5602C81.9399 88.2302 82.4299 87.9602 83.0199 87.7802C83.6099 87.5902 84.2399 87.4902 84.9499 87.4602C85.6499 87.4302 86.2899 87.4902 86.8999 87.6302C87.4999 87.7702 88.0299 87.9802 88.4799 88.2802C88.9299 88.5802 89.2999 88.9702 89.5699 89.4602C89.8399 89.9402 89.9999 90.5002 90.0299 91.1302C90.0899 92.1402 90.1499 93.1402 90.2099 94.1402C90.2699 95.1402 90.3199 96.1502 90.3799 97.1502C90.4499 98.3402 90.0899 99.2902 89.2999 99.9802C88.4999 100.68 87.3999 101.04 85.9499 101.07C84.4999 101.11 83.3199 100.8 82.4299 100.16C81.5499 99.5202 81.0599 98.6102 80.9499 97.4302C80.9099 96.9802 80.8699 96.5402 80.8299 96.1002C82.0499 96.0502 83.2599 96.0002 84.4999 95.9602C84.5399 96.4902 84.5799 97.0202 84.6199 97.5502C84.6199 97.6302 84.6299 97.7402 84.6599 97.8902C84.6899 98.0302 84.7099 98.1702 84.7899 98.2902C84.8699 98.4202 84.9899 98.5202 85.1399 98.6102C85.2999 98.7002 85.4999 98.7402 85.7699 98.7302C86.0299 98.7302 86.2199 98.6702 86.3499 98.5702C86.4799 98.4702 86.5999 98.3602 86.6399 98.2302C86.6899 98.1002 86.7299 97.9702 86.7299 97.8302C86.7299 97.6902 86.7299 97.5802 86.7299 97.4902C86.6899 96.7802 86.6299 96.0602 86.5799 95.3402C85.7099 95.3702 84.8399 95.3902 83.9699 95.4202L83.9499 95.4302ZM72.8599 95.9902C72.7699 95.1602 72.6799 94.3402 72.5699 93.5102C73.4399 93.4502 74.3099 93.4002 75.1799 93.3502C75.1099 92.7502 75.0499 92.1502 74.9899 91.5502C74.9799 91.4402 74.9599 91.3202 74.9399 91.1802C74.9199 91.0402 74.8499 90.9202 74.7699 90.8002C74.6899 90.6902 74.5799 90.5902 74.4099 90.5102C74.2599 90.4402 74.0499 90.4102 73.7699 90.4302C73.4899 90.4502 73.2899 90.5002 73.1699 90.6002C73.0399 90.7002 72.9399 90.8102 72.8799 90.9302C72.8199 91.0602 72.7899 91.1902 72.7999 91.3202C72.7999 91.4602 72.8299 91.5802 72.8399 91.6902C72.8799 92.0702 72.9199 92.4502 72.9699 92.8202C71.7399 92.9102 70.5199 93.0002 69.2899 93.0902C69.2599 92.8002 69.2299 92.5102 69.1899 92.2202C69.1099 91.6002 69.1599 91.0502 69.3399 90.5602C69.5199 90.0702 69.7999 89.6502 70.1999 89.3202C70.5899 88.9802 71.0699 88.7002 71.6299 88.5002C72.1999 88.2902 72.8499 88.1702 73.5299 88.1302C74.2299 88.0802 74.8899 88.1202 75.4799 88.2302C76.0799 88.3502 76.6099 88.5402 77.0799 88.8202C77.5399 89.1002 77.9099 89.4702 78.1999 89.9402C78.4899 90.4102 78.6699 90.9502 78.7299 91.5802C78.8299 92.5702 78.9099 93.5602 79.0099 94.5502C79.0999 95.5402 79.1999 96.5302 79.2999 97.5202C79.4099 98.6902 79.0799 99.6302 78.3199 100.34C77.5599 101.05 76.4599 101.44 75.0299 101.51C73.5799 101.58 72.4099 101.32 71.5099 100.71C70.6099 100.1 70.0699 99.2202 69.9299 98.0602C69.8799 97.6302 69.8099 97.1902 69.7699 96.7502C70.9799 96.6602 72.1799 96.5802 73.3999 96.5002C73.4499 97.0202 73.5099 97.5402 73.5699 98.0702C73.5699 98.1502 73.5999 98.2602 73.6299 98.4002C73.6599 98.5402 73.7199 98.6602 73.7999 98.7902C73.8799 98.9102 73.9899 99.0102 74.1499 99.1002C74.2999 99.1802 74.5099 99.2202 74.7699 99.2002C75.0399 99.1902 75.2299 99.1302 75.3699 99.0302C75.4899 98.9402 75.5799 98.8202 75.6299 98.6902C75.6899 98.5602 75.7199 98.4202 75.7099 98.2902C75.7099 98.1502 75.7099 98.0402 75.6899 97.9502C75.6099 97.2402 75.5299 96.5402 75.4499 95.8402C74.5899 95.8902 73.7199 95.9402 72.8599 95.9902ZM66.7199 88.8802C66.8399 89.7402 66.9499 90.6002 67.0599 91.4602C67.1699 92.3202 67.2899 93.1802 67.4099 94.0402C67.5299 94.9002 67.6499 95.7602 67.7599 96.6202C67.8699 97.4802 67.9799 98.3402 68.0999 99.2002C68.4399 99.1802 68.7799 99.1602 69.1099 99.1302C69.2299 99.9602 69.3299 100.79 69.4399 101.61C68.4299 101.68 67.4399 101.74 66.4399 101.82C64.5499 101.96 62.6599 102.11 60.7899 102.28C59.8099 102.37 58.8399 102.46 57.8499 102.54C57.6999 101.74 57.5599 100.93 57.4299 100.12C57.7099 100.09 57.9999 100.07 58.2999 100.04C58.5099 99.4802 58.6399 98.7802 58.6499 97.9602C58.6699 97.1402 58.6399 96.2602 58.5499 95.3202C58.4599 94.3802 58.3299 93.4402 58.1799 92.4802C58.0299 91.5302 57.9099 90.6202 57.7899 89.7802C60.7599 89.4502 63.7299 89.1602 66.7199 88.8702V88.8802ZM64.4799 99.4902C64.3899 98.8202 64.2899 98.1402 64.1899 97.4702C64.0999 96.8002 63.9999 96.1202 63.8999 95.4402C63.7999 94.7702 63.6899 94.0902 63.5999 93.4202C63.5099 92.7502 63.3999 92.0702 63.3099 91.4002C62.7299 91.4602 62.1199 91.5102 61.5299 91.5602C61.5899 92.2602 61.6799 92.9902 61.7499 93.7702C61.8199 94.5402 61.8799 95.3002 61.9199 96.0302C61.9599 96.7702 61.9899 97.4502 61.9799 98.1002C61.9799 98.7402 61.8999 99.2802 61.7899 99.7202C62.6999 99.6402 63.5999 99.5602 64.4899 99.4902H64.4799Z" fill="#E5E6E7"/>
<path fill-rule="evenodd" clip-rule="evenodd" d="M66.22 132.66C66.22 132.66 87.07 144.38 97.61 146.39C108.15 144.38 129 132.66 129 132.66C118.82 143.68 97.61 153.56 97.61 153.56C97.61 153.56 76.4 143.68 66.22 132.66Z" fill="white"/>
<path fill-rule="evenodd" clip-rule="evenodd" d="M97.6099 125.77L99.1699 130.86L104.55 130.81L100.19 133.87L101.9 138.98L97.6499 135.78L93.3199 138.98L95.0499 133.94L90.6699 130.81L95.9899 130.91L97.6099 125.77Z" fill="white"/>
<path fill-rule="evenodd" clip-rule="evenodd" d="M117.1 123.65L117.99 126.54L121.05 126.51L118.57 128.25L119.54 131.16L117.13 129.33L114.66 131.16L115.65 128.29L113.16 126.51L116.18 126.57L117.1 123.65Z" fill="white"/>
<path fill-rule="evenodd" clip-rule="evenodd" d="M78.1199 123.65L78.9999 126.54L82.0599 126.51L79.5799 128.25L80.5599 131.16L78.1399 129.33L75.6799 131.16L76.6599 128.29L74.1699 126.51L77.1899 126.57L78.1199 123.65Z" fill="white"/>
<path fill-rule="evenodd" clip-rule="evenodd" d="M51.6499 121.19C51.6899 121.39 51.7799 121.58 51.9499 121.71C52.4399 122.1 57.0199 123.96 57.0199 123.96C57.0199 123.96 77.3699 121.39 97.5399 121.39C117.71 121.39 138.06 123.96 138.06 123.96C138.06 123.96 142.64 122.09 143.13 121.71C143.3 121.58 143.38 121.4 143.43 121.21H143.33C112.87 117.46 82.1999 117.4 51.7399 121.2H51.6399L51.6499 121.19Z" fill="white"/>
<path fill-rule="evenodd" clip-rule="evenodd" d="M53.7799 106.6L51.6499 120.43C66.7999 118.54 82.0999 117.58 97.5399 117.59C112.98 117.59 128.27 118.54 143.43 120.43L141.96 106.6C111.72 102.8 82.3399 102.85 53.7899 106.6" fill="#FC4B0B"/>
<path d="M123.65 112.38C123.86 111.98 124.06 111.54 124.24 111.06C124.42 110.58 124.57 110.08 124.69 109.58C124.82 109.07 124.91 108.56 124.97 108.06C125.04 107.55 125.08 107.08 125.08 106.63C125.99 106.7 126.92 106.78 127.83 106.87C127.81 107.4 127.72 107.92 127.58 108.45C127.43 108.98 127.24 109.49 127 109.99C126.76 110.49 126.49 110.98 126.17 111.46C125.85 111.94 125.53 112.38 125.19 112.79C125.85 112.83 126.51 112.87 127.17 112.92C127.14 112.47 127.12 112.03 127.09 111.58C127.4 111.22 127.68 110.79 127.95 110.3C128.22 109.8 128.4 109.33 128.5 108.87C128.84 108.9 129.17 108.93 129.51 108.96C129.56 109.65 129.61 110.35 129.66 111.04C129.71 111.73 129.75 112.43 129.8 113.12C130.1 113.14 130.41 113.17 130.72 113.19C130.76 113.77 130.81 114.36 130.85 114.94C130.54 114.92 130.23 114.9 129.93 114.88C129.97 115.49 130.02 116.11 130.06 116.72C129.16 116.66 128.28 116.6 127.39 116.54C127.35 115.92 127.31 115.31 127.28 114.69C126.1 114.61 124.91 114.54 123.75 114.47C123.72 113.78 123.68 113.09 123.66 112.4M116.27 108.74C116.25 107.76 116.5 107.05 117.02 106.61C117.54 106.17 118.39 105.98 119.58 106.06C120.59 106.13 121.39 106.4 121.97 106.87C122.55 107.34 122.86 108.02 122.9 108.9C122.92 109.34 122.88 109.72 122.76 110.03C122.64 110.35 122.49 110.63 122.29 110.88C122.09 111.14 121.85 111.36 121.58 111.57C121.32 111.77 121.04 111.99 120.76 112.2C120.47 112.41 120.19 112.63 119.92 112.87C119.66 113.11 119.4 113.38 119.19 113.69C119.12 113.79 119.07 113.89 119.05 113.96C119.03 114.01 119 114.05 118.98 114.1C118.96 114.15 118.94 114.19 118.93 114.24C120.3 114.31 121.67 114.37 123.05 114.44C123.08 115.06 123.11 115.68 123.14 116.29C120.81 116.18 118.49 116.08 116.17 116C116.17 115.79 116.16 115.59 116.16 115.38C116.15 114.66 116.25 114.06 116.44 113.56C116.64 113.07 116.89 112.64 117.2 112.29C117.5 111.94 117.84 111.63 118.2 111.38C118.56 111.13 118.9 110.88 119.2 110.63C119.5 110.38 119.76 110.11 119.96 109.82C120.16 109.53 120.24 109.17 120.23 108.75C120.23 108.52 120.17 108.3 120.08 108.1C119.99 107.9 119.79 107.79 119.47 107.77C119.3 107.77 119.17 107.77 119.08 107.83C118.98 107.88 118.91 107.95 118.86 108.03C118.81 108.12 118.79 108.21 118.78 108.33C118.78 108.44 118.76 108.55 118.77 108.67C118.77 109 118.79 109.34 118.8 109.67C117.96 109.63 117.13 109.59 116.3 109.55C116.3 109.29 116.28 109.02 116.28 108.76L116.27 108.74ZM111.34 113.63C111.34 113.9 111.4 114.09 111.53 114.17C111.66 114.25 111.81 114.3 111.99 114.3C112.16 114.3 112.31 114.27 112.45 114.19C112.57 114.12 112.64 113.94 112.64 113.66C112.64 112.73 112.63 111.79 112.63 110.86C112.63 109.93 112.63 108.99 112.62 108.06C112.62 107.79 112.55 107.6 112.43 107.52C112.3 107.43 112.15 107.39 111.99 107.38C111.81 107.38 111.66 107.41 111.54 107.48C111.42 107.55 111.36 107.73 111.36 108.01V113.62L111.34 113.63ZM108.68 108.11C108.68 107.32 108.97 106.7 109.53 106.25C110.09 105.8 110.9 105.61 111.97 105.65C113.03 105.7 113.85 105.96 114.4 106.44C114.96 106.93 115.24 107.56 115.26 108.35C115.27 109.22 115.29 110.1 115.3 110.97C115.3 111.84 115.32 112.72 115.33 113.59C115.34 114.37 115.08 114.98 114.51 115.42C113.94 115.86 113.1 116.07 112 116.04C110.89 116.01 110.04 115.76 109.47 115.29C108.9 114.82 108.62 114.19 108.63 113.39C108.63 112.51 108.65 111.62 108.66 110.74C108.66 109.86 108.68 108.97 108.69 108.09L108.68 108.11ZM101.31 108.32C101.35 107.32 101.64 106.58 102.18 106.11C102.73 105.63 103.59 105.41 104.77 105.43C105.78 105.45 106.57 105.69 107.12 106.15C107.67 106.61 107.94 107.29 107.93 108.2C107.93 108.65 107.86 109.04 107.72 109.37C107.58 109.7 107.41 110 107.19 110.27C106.98 110.53 106.74 110.78 106.45 111C106.17 111.22 105.88 111.45 105.59 111.68C105.3 111.91 105 112.15 104.72 112.4C104.44 112.66 104.18 112.95 103.94 113.27C103.86 113.38 103.81 113.48 103.78 113.55C103.76 113.6 103.74 113.65 103.71 113.69C103.69 113.74 103.66 113.79 103.65 113.83C105.02 113.84 106.39 113.86 107.75 113.88C107.75 114.52 107.74 115.15 107.73 115.78C105.4 115.75 103.09 115.73 100.78 115.73C100.78 115.52 100.79 115.31 100.8 115.09C100.83 114.36 100.96 113.74 101.18 113.22C101.41 112.7 101.68 112.26 102.01 111.89C102.34 111.51 102.7 111.19 103.08 110.92C103.45 110.65 103.8 110.38 104.12 110.11C104.44 109.84 104.72 109.55 104.92 109.24C105.12 108.93 105.24 108.56 105.24 108.13C105.24 107.89 105.22 107.67 105.14 107.47C105.06 107.27 104.87 107.16 104.55 107.16C104.38 107.16 104.24 107.18 104.14 107.24C104.05 107.29 103.97 107.37 103.92 107.46C103.87 107.55 103.83 107.65 103.82 107.77C103.81 107.88 103.8 108 103.79 108.11C103.79 108.45 103.76 108.79 103.76 109.13C102.92 109.12 102.1 109.11 101.27 109.1C101.28 108.83 101.29 108.56 101.3 108.29L101.31 108.32ZM100.14 110.39C100.11 111.03 100.09 111.67 100.07 112.31C98.73 112.31 97.41 112.31 96.07 112.32C96.12 111.68 96.15 111.04 96.18 110.39C97.5 110.39 98.82 110.38 100.14 110.39ZM90.93 112.39C90.9 112.74 90.88 113.09 90.85 113.45C90.84 113.65 90.88 113.83 90.96 113.99C91.04 114.14 91.24 114.22 91.53 114.22C91.82 114.22 92.01 114.13 92.13 113.97C92.24 113.81 92.31 113.63 92.32 113.43C92.33 113.19 92.35 112.95 92.37 112.71C92.39 112.42 92.38 112.18 92.36 111.99C92.33 111.8 92.26 111.65 92.14 111.54C92.02 111.43 91.85 111.36 91.64 111.31C91.43 111.27 91.13 111.25 90.77 111.25C90.81 110.69 90.86 110.12 90.9 109.56C91.06 109.56 91.21 109.56 91.36 109.56C91.64 109.56 91.92 109.48 92.16 109.34C92.4 109.2 92.53 109 92.54 108.74C92.56 108.46 92.58 108.18 92.61 107.9C92.63 107.72 92.6 107.55 92.53 107.41C92.46 107.27 92.3 107.2 92.05 107.2C91.61 107.2 91.35 107.47 91.31 107.98C91.29 108.2 91.28 108.41 91.26 108.63C90.41 108.65 89.55 108.67 88.7 108.69C88.71 108.2 88.78 107.76 88.9 107.36C89.02 106.97 89.21 106.63 89.5 106.35C89.78 106.07 90.14 105.84 90.58 105.69C91.03 105.53 91.57 105.45 92.22 105.43C92.7 105.43 93.14 105.46 93.53 105.54C93.92 105.62 94.24 105.76 94.52 105.96C94.8 106.16 95.01 106.42 95.14 106.75C95.27 107.07 95.32 107.49 95.29 107.98C95.27 108.23 95.24 108.47 95.2 108.69C95.16 108.91 95.1 109.12 94.99 109.31C94.88 109.51 94.73 109.68 94.55 109.84C94.36 110 94.11 110.14 93.82 110.26C94.11 110.34 94.34 110.46 94.52 110.62C94.7 110.78 94.84 110.96 94.93 111.17C95.02 111.38 95.07 111.61 95.08 111.86C95.1 112.11 95.1 112.37 95.08 112.63C95.05 113.16 94.96 113.63 94.83 114.05C94.7 114.46 94.5 114.81 94.23 115.1C93.96 115.38 93.59 115.6 93.15 115.76C92.69 115.92 92.12 116 91.44 116.01C90.37 116.03 89.54 115.83 88.97 115.42C88.41 115.01 88.16 114.35 88.24 113.44C88.27 113.12 88.29 112.79 88.32 112.47C89.19 112.45 90.06 112.43 90.93 112.41V112.39ZM81.34 108.72C81.45 107.72 81.81 106.97 82.39 106.46C82.97 105.96 83.85 105.68 85.04 105.63C86.05 105.59 86.82 105.79 87.34 106.22C87.86 106.65 88.08 107.32 88 108.24C87.96 108.69 87.85 109.09 87.7 109.43C87.54 109.77 87.34 110.08 87.1 110.36C86.87 110.64 86.6 110.9 86.31 111.14C86.01 111.38 85.71 111.62 85.39 111.86C85.07 112.1 84.76 112.36 84.46 112.63C84.16 112.9 83.88 113.2 83.62 113.54C83.53 113.66 83.48 113.76 83.44 113.83C83.41 113.88 83.37 113.93 83.34 113.98C83.31 114.03 83.29 114.08 83.29 114.13C84.66 114.08 86.03 114.04 87.41 114C87.35 114.64 87.29 115.28 87.24 115.92C84.91 115.98 82.59 116.06 80.27 116.14C80.29 115.93 80.32 115.72 80.34 115.51C80.43 114.78 80.6 114.16 80.87 113.63C81.14 113.11 81.44 112.65 81.8 112.27C82.16 111.88 82.54 111.54 82.94 111.25C83.34 110.96 83.71 110.67 84.05 110.38C84.39 110.1 84.68 109.79 84.92 109.47C85.16 109.15 85.3 108.77 85.34 108.34C85.36 108.1 85.34 107.88 85.27 107.68C85.2 107.48 85.02 107.39 84.7 107.4C84.53 107.4 84.4 107.44 84.29 107.5C84.18 107.56 84.1 107.64 84.04 107.73C83.98 107.82 83.94 107.93 83.92 108.04C83.9 108.16 83.87 108.27 83.86 108.39C83.83 108.73 83.79 109.07 83.75 109.41C82.91 109.44 82.07 109.48 81.24 109.52C81.27 109.25 81.3 108.98 81.33 108.71L81.34 108.72ZM75.71 114.11C75.67 114.39 75.71 114.56 75.82 114.64C75.94 114.72 76.09 114.75 76.27 114.74C76.44 114.74 76.6 114.68 76.74 114.6C76.89 114.51 76.97 114.33 77.01 114.05C77.13 113.11 77.26 112.17 77.37 111.23C77.49 110.29 77.61 109.35 77.73 108.41C77.76 108.13 77.72 107.96 77.6 107.89C77.48 107.82 77.34 107.79 77.17 107.8C77 107.81 76.84 107.86 76.71 107.95C76.57 108.04 76.49 108.22 76.45 108.5C76.33 109.44 76.2 110.38 76.08 111.32C75.96 112.26 75.84 113.2 75.71 114.13V114.11ZM73.75 108.82C73.87 108.03 74.22 107.38 74.84 106.89C75.47 106.39 76.32 106.1 77.39 106.03C78.47 105.96 79.25 106.15 79.76 106.58C80.26 107.01 80.47 107.63 80.38 108.42C80.27 109.31 80.17 110.2 80.07 111.09C79.97 111.98 79.86 112.87 79.75 113.76C79.66 114.55 79.29 115.2 78.66 115.69C78.02 116.18 77.16 116.44 76.04 116.5C74.93 116.55 74.11 116.37 73.59 115.93C73.08 115.5 72.87 114.89 72.99 114.1C73.12 113.22 73.25 112.34 73.37 111.46C73.5 110.58 73.62 109.7 73.75 108.82ZM66.21 109.75C66.37 108.78 66.76 108.04 67.38 107.52C68 107 68.9 106.68 70.1 106.58C71.12 106.49 71.9 106.65 72.4 107.04C72.9 107.43 73.1 108.08 72.96 108.98C72.89 109.43 72.76 109.82 72.59 110.16C72.41 110.5 72.19 110.81 71.94 111.1C71.69 111.38 71.4 111.65 71.09 111.89C70.78 112.14 70.46 112.38 70.13 112.63C69.8 112.87 69.47 113.13 69.16 113.41C68.85 113.68 68.54 113.99 68.26 114.33C68.16 114.45 68.1 114.55 68.06 114.62C68.03 114.67 67.99 114.72 67.96 114.77C67.93 114.82 67.91 114.87 67.89 114.91C69.28 114.81 70.66 114.73 72.04 114.65C71.95 115.28 71.86 115.91 71.77 116.54C69.43 116.67 67.08 116.82 64.74 116.97C64.77 116.77 64.81 116.56 64.85 116.36C64.97 115.65 65.16 115.04 65.46 114.53C65.76 114.02 66.1 113.57 66.48 113.18C66.86 112.79 67.27 112.45 67.69 112.15C68.1 111.85 68.49 111.55 68.84 111.26C69.2 110.96 69.52 110.66 69.77 110.34C70.02 110.02 70.18 109.65 70.25 109.22C70.29 108.98 70.28 108.77 70.22 108.58C70.17 108.39 69.98 108.31 69.66 108.34C69.48 108.36 69.34 108.4 69.24 108.46C69.13 108.53 69.04 108.61 68.98 108.7C68.92 108.8 68.86 108.9 68.83 109.01C68.8 109.13 68.78 109.24 68.76 109.35C68.71 109.68 68.65 110.02 68.6 110.35C67.74 110.42 66.91 110.49 66.06 110.56C66.11 110.3 66.15 110.04 66.19 109.78L66.21 109.75Z" fill="white"/>
</svg>
