<svg width="221" height="298" viewBox="0 0 221 298" fill="none" xmlns="http://www.w3.org/2000/svg">
<path fill-rule="evenodd" clip-rule="evenodd" d="M71.4494 117.321L54.1992 119.08L56.1356 108.462L36.1098 98.3362L39.192 89.6305L35.311 68.7414L27.2588 60.786L28.7031 60.1647C31.4947 58.9625 34.6656 58.0831 37.6025 57.3166C41.4673 56.3 45.437 55.3963 49.3744 54.6298V32.2965L49.9633 32.006C53.4408 30.2633 56.9746 28.6254 60.5166 27.0117C66.2452 24.4056 72.0142 21.8802 77.7993 19.4113C84.5848 7.63145 97.1068 0.345703 110.758 0.345703C124.41 0.345703 136.94 7.63145 143.718 19.4113C149.503 21.8802 155.272 24.4056 161 27.0117C164.542 28.6254 168.076 30.2633 171.554 32.006L172.143 32.2965V54.6298C176.08 55.3963 180.05 56.308 183.915 57.3166C186.852 58.0911 190.022 58.9706 192.814 60.1647L194.258 60.786L186.206 68.7414L182.325 89.6305L185.407 98.3362L165.381 108.462L167.318 119.08L150.068 117.321C149.519 118.112 148.89 118.894 148.301 119.605C146.267 122.041 143.984 124.316 141.612 126.422C132.785 134.224 122.054 140.187 111.162 144.544L110.767 144.705L110.371 144.544C99.4789 140.187 88.748 134.224 79.9212 126.422C77.549 124.325 75.2576 122.049 73.2324 119.605C72.6434 118.894 72.0061 118.112 71.4655 117.321" fill="#030E80"/>
<path fill-rule="evenodd" clip-rule="evenodd" d="M142.976 20.2342C136.642 8.98688 124.588 1.39453 110.759 1.39453C96.9297 1.39453 84.8756 8.99495 78.5419 20.2342C74.2898 22.0496 59.5892 28.3591 50.4396 32.9419V55.5011C50.4396 55.5011 35.723 58.3089 29.1311 61.1409L36.3038 68.225L40.2978 89.7192L37.4335 97.8198L57.3301 107.881L55.5066 117.886L71.9903 116.208C71.9903 116.208 81.987 132.054 110.767 143.568C139.547 132.054 149.544 116.208 149.544 116.208L166.027 117.886L164.204 107.881L184.101 97.8198L181.236 89.7192L185.23 68.225L192.403 61.1409C185.803 58.3089 171.094 55.5011 171.094 55.5011V32.9419C161.945 28.3591 147.244 22.0415 142.992 20.2342" fill="white"/>
<path fill-rule="evenodd" clip-rule="evenodd" d="M74.2089 32.8279C74.6608 29.7861 75.4918 26.8734 76.6375 24.1221C71.7803 26.2118 66.9393 28.3418 62.1225 30.5364C59.1533 31.8839 56.1923 33.2555 53.2634 34.6917V55.1047C55.5791 54.5964 57.9029 54.1284 60.2427 53.7088V39.0486L74.2089 32.8198V32.8279Z" fill="#030E80"/>
<path fill-rule="evenodd" clip-rule="evenodd" d="M76.2014 51.4759C74.8379 47.8855 74.0148 44.0369 73.8373 40.0107L67.1245 43.0525V52.5974C70.1421 52.1617 73.1677 51.7906 76.2014 51.4678" fill="#030E80"/>
<path fill-rule="evenodd" clip-rule="evenodd" d="M147.671 40.0579C147.485 44.1405 146.638 48.0536 145.226 51.6844C148.284 51.9991 151.342 52.3702 154.384 52.7898V43.0512L147.671 40.0498V40.0579Z" fill="#030E80"/>
<path fill-rule="evenodd" clip-rule="evenodd" d="M168.245 55.1306V34.7014C165.317 33.2652 162.356 31.8936 159.386 30.5462C154.578 28.3516 149.737 26.2215 144.871 24.1318C146.025 26.8993 146.856 29.8362 147.308 32.8941L161.266 39.0664V53.8477C163.598 54.2431 165.93 54.6626 168.245 55.1306Z" fill="#030E80"/>
<path fill-rule="evenodd" clip-rule="evenodd" d="M112.549 3.50026C112.549 3.50026 121.594 19.4192 112.25 37.799C112.25 37.799 113.695 40.5422 118.576 45.7544C118.576 45.7544 133.607 26.4871 116.567 3.81492L112.557 3.49219L112.549 3.50026Z" fill="#FC4B0B"/>
<path fill-rule="evenodd" clip-rule="evenodd" d="M120.537 4.83984L122.958 5.5902C122.958 5.5902 131.042 12.0126 134.173 23.2438C136.997 33.3616 134.148 43.9312 130.356 50.5553C128.42 50.4504 126.483 50.3617 124.555 50.2891C123.143 49.4741 121.667 48.514 120.553 47.5135C120.553 47.5135 126.588 40.3569 127.258 27.2377C127.936 14.1185 120.553 4.84791 120.553 4.84791" fill="#030E80"/>
<path fill-rule="evenodd" clip-rule="evenodd" d="M129.904 9.22975C129.904 9.22975 138.215 13.9982 142.911 24.6323C146.832 33.5156 146.041 44.3434 143.209 51.5161C139.877 51.1934 136.528 50.9352 133.188 50.7174C136.73 44.2143 143.475 27.2061 129.904 9.22168" fill="#FC4B0B"/>
<path fill-rule="evenodd" clip-rule="evenodd" d="M119.981 50.1446C116.649 47.6434 113.357 44.3273 110.517 39.9219C109.04 39.7364 103.239 40.3818 101.125 41.0676C101.125 41.0676 102.965 45.4084 107.386 49.9993C108.621 49.9993 109.847 49.9993 111.082 49.9993C114.043 50.0155 117.012 50.0639 119.981 50.1365" fill="#FC4B0B"/>
<path fill-rule="evenodd" clip-rule="evenodd" d="M92.0721 50.3456C91.2572 49.0788 90.5714 47.8363 90.0146 46.6503C90.0146 46.6503 94.3957 43.4148 98.8172 41.8818C99.9387 44.7945 101.617 47.5378 103.699 50.0228C99.8258 50.0712 95.945 50.1761 92.0721 50.3456Z" fill="#030E80"/>
<path fill-rule="evenodd" clip-rule="evenodd" d="M85.3826 50.7253C86.141 49.9023 86.9802 49.0712 87.8919 48.2725C87.8919 48.2725 88.263 49.1277 89.0456 50.4993C87.8273 50.5639 86.6009 50.6446 85.3826 50.7253Z" fill="#FC4B0B"/>
<path fill-rule="evenodd" clip-rule="evenodd" d="M81.9541 50.9825C85.835 46.327 94.8635 37.8956 109.717 37.2662C110.871 35.1523 112.34 31.3521 113.155 28.8186C113.155 28.8186 89.3447 26.148 78.2749 50.8776L78.4605 51.281C79.6223 51.1681 80.7923 51.0712 81.9541 50.9744" fill="#FC4B0B"/>
<path fill-rule="evenodd" clip-rule="evenodd" d="M77.162 47.279L76.6294 44.6649C76.6294 44.6649 78.1867 34.5552 86.4407 26.3173C94.6946 18.0795 106.192 15.7397 113.865 16.4416C113.865 16.4416 114.317 22.0492 113.615 26.2447C113.615 26.2447 103.013 25.0748 93.3874 30.4484C81.6237 36.2979 77.162 47.279 77.162 47.279Z" fill="#030E80"/>
<path fill-rule="evenodd" clip-rule="evenodd" d="M75.9116 37.4104C76.6216 17.7881 91.7176 4.26552 109.654 3.49902C109.654 3.49902 112.3 8.20289 113.349 13.7217C113.349 13.7217 87.4091 11.0752 75.9197 37.4104" fill="#FC4B0B"/>
<path fill-rule="evenodd" clip-rule="evenodd" d="M110.758 140.503C120.876 136.355 130.825 130.756 139.022 123.502C141.249 121.534 143.395 119.404 145.299 117.112C145.921 116.37 146.614 115.507 147.139 114.684L148.075 113.199L162.557 114.676L160.92 104.138L163.744 104.921L180.598 96.3927L178.315 89.9299L182.607 66.8221L187.214 62.2715C185.778 61.8277 184.318 61.4405 182.93 61.0693C178.872 60.0043 174.684 59.0603 170.561 58.2696L168.262 57.8339C149.801 54.0902 130.566 52.7266 111.089 52.6217C91.6204 52.5168 71.9092 53.6625 53.2873 57.8339L50.988 58.2696C46.857 59.0603 42.6775 60.0043 38.6191 61.0693C37.2313 61.4324 35.7709 61.8277 34.3347 62.2715L38.9417 66.8221L43.2342 89.9299L40.9508 96.3927L57.8057 104.921L60.6297 104.138L58.9917 114.676L73.4745 113.199L74.4103 114.684C74.9267 115.507 75.6287 116.362 76.2499 117.112C78.1541 119.396 80.3003 121.534 82.5272 123.502C90.7246 130.756 100.681 136.355 110.791 140.503" fill="#030E80"/>
<path fill-rule="evenodd" clip-rule="evenodd" d="M65.0268 98.9498L68.3511 98.5625L67.0601 106.486C67.0601 106.486 66.7858 107.583 68.7061 108.333C70.6263 109.084 73.434 110.229 73.434 110.229L64.6557 111.311C64.6557 111.311 63.034 111.698 63.3084 109.616L65.0107 98.9417L65.0268 98.9498Z" fill="white"/>
<path fill-rule="evenodd" clip-rule="evenodd" d="M156.481 98.9498L153.157 98.5625L154.448 106.486C154.448 106.486 154.722 107.583 152.802 108.333C150.882 109.084 148.074 110.229 148.074 110.229L156.852 111.311C156.852 111.311 158.474 111.698 158.2 109.616L156.498 98.9417L156.481 98.9498Z" fill="white"/>
<path fill-rule="evenodd" clip-rule="evenodd" d="M160.943 58.8487C160.911 59.0262 161.016 59.2279 161.25 59.478C161.468 59.712 161.774 59.8814 162.17 59.9782C162.565 60.067 162.92 60.0589 163.219 59.954C163.533 59.8411 163.695 59.6958 163.727 59.5264C164.695 59.7765 165.663 60.0266 166.615 60.309C166.559 60.5914 166.43 60.8658 166.252 61.132C166.067 61.3983 165.809 61.6242 165.454 61.7855C165.074 61.955 164.622 62.0437 164.017 62.0599C163.436 62.076 162.726 61.9792 161.847 61.7694C160.976 61.5677 160.266 61.3337 159.741 61.0433C159.225 60.7609 158.813 60.4543 158.555 60.1396C158.297 59.8169 158.095 59.4861 158.023 59.1553C157.95 58.8245 157.95 58.5098 158.006 58.2274C158.975 58.4291 159.959 58.6308 160.935 58.8567M164.881 77.9788C163.477 77.6319 162.065 77.2849 160.661 76.9299C160.895 75.5986 161.137 74.2593 161.379 72.928C161.613 71.5967 161.863 70.2654 162.105 68.9261C162.081 68.9261 162.057 68.9099 162.049 68.9099C161.379 70.1363 160.693 71.3547 160.032 72.6053C159.37 73.8559 158.692 75.1145 158.047 76.3732C156.538 76.0827 155.029 75.7923 153.512 75.526C153.908 72.9441 154.303 70.3622 154.698 67.7723C155.094 65.1904 155.497 62.6085 155.876 60.0186C156.53 60.1396 157.192 60.2768 157.845 60.4059C157.958 60.5188 158.111 60.6398 158.313 60.7851C158.507 60.9222 158.692 61.0675 158.918 61.1966C159.144 61.3337 159.378 61.4547 159.612 61.5677C159.854 61.6807 160.064 61.7533 160.266 61.8017C160.072 63.0039 159.862 64.2061 159.661 65.4083C159.451 66.6104 159.257 67.8046 159.055 69.0068C159.063 69.0068 159.088 69.0068 159.112 69.0229C159.709 67.9094 160.29 66.796 160.895 65.6826C161.5 64.5772 162.129 63.4799 162.727 62.3907C162.977 62.4552 163.259 62.5036 163.565 62.5278C163.88 62.5601 164.187 62.5682 164.477 62.5601C164.8 62.5601 165.082 62.5359 165.333 62.4956C165.575 62.4552 165.784 62.3987 165.946 62.3261C166.567 62.5036 167.204 62.6892 167.858 62.8667C167.366 65.384 166.866 67.8933 166.357 70.4106C165.857 72.9199 165.365 75.4373 164.873 77.9546L164.881 77.9788ZM147.179 74.6143C147.34 73.2507 147.526 71.8791 147.695 70.5075C147.864 69.1358 148.05 67.7642 148.228 66.3926C148.203 66.3926 148.171 66.3926 148.155 66.3926C147.542 67.7077 146.929 69.031 146.315 70.3461C145.702 71.6693 145.105 73.0006 144.5 74.3238C142.943 74.1544 141.394 73.9849 139.853 73.8316C140.119 71.1933 140.385 68.5549 140.659 65.9085C140.934 63.2701 141.2 60.6318 141.466 57.9934C143.015 58.1628 144.556 58.3484 146.114 58.5259C145.952 59.9056 145.775 61.2853 145.613 62.665C145.452 64.0447 145.299 65.4244 145.129 66.8041C145.137 66.8041 145.162 66.8041 145.186 66.8041C145.799 65.4809 146.42 64.1657 147.041 62.8506C147.663 61.5354 148.3 60.2283 148.946 58.9132C150.551 59.1472 152.173 59.4054 153.779 59.6716C153.407 62.2697 153.028 64.8677 152.649 67.4576C152.27 70.0556 151.899 72.6537 151.519 75.2436C150.067 75.0338 148.615 74.816 147.163 74.6143H147.179ZM131.663 57.1543C131.583 58.1548 131.518 59.1472 131.453 60.1477C131.389 61.1401 131.324 62.1406 131.244 63.141C132.163 63.1975 133.091 63.2621 134.011 63.3185C134.092 62.3261 134.181 61.3337 134.253 60.3332C134.334 59.3408 134.398 58.3484 134.479 57.3479C136.093 57.4851 137.698 57.6223 139.312 57.7675C139.062 60.4139 138.804 63.0684 138.553 65.7149C138.303 68.3613 138.061 71.0077 137.819 73.6622C136.294 73.5412 134.761 73.4202 133.245 73.2991C133.325 72.1696 133.406 71.04 133.495 69.9104C133.584 68.7808 133.672 67.6432 133.769 66.5136C132.857 66.4571 131.946 66.4007 131.034 66.3442C130.945 67.4818 130.873 68.6195 130.8 69.7571C130.727 70.8867 130.638 72.0243 130.574 73.1539C129.041 73.0732 127.516 72.9845 125.975 72.9038C126.112 70.2331 126.249 67.5625 126.387 64.8838C126.532 62.2132 126.661 59.5425 126.798 56.8719C128.412 56.9607 130.042 57.0575 131.655 57.1543H131.663ZM112.041 60.8738C112.041 60.0993 112.194 59.4134 112.509 58.8244C112.824 58.2355 113.267 57.7514 113.824 57.3721C114.381 56.9929 115.058 56.7186 115.833 56.5411C116.599 56.3636 117.439 56.2748 118.326 56.291C119.254 56.3071 120.093 56.4443 120.843 56.6541C121.594 56.8719 122.247 57.1785 122.796 57.5819C123.345 57.9853 123.748 58.4856 124.038 59.0907C124.329 59.6878 124.458 60.3816 124.41 61.1562C124.386 61.6565 124.369 62.1567 124.337 62.6569C122.756 62.6005 121.174 62.544 119.569 62.4956C119.585 61.8904 119.601 61.2853 119.617 60.6802C119.617 60.5511 119.617 60.3978 119.601 60.2203C119.577 60.0428 119.544 59.8895 119.456 59.7281C119.375 59.5829 119.254 59.4457 119.068 59.3408C118.883 59.2279 118.617 59.1714 118.254 59.1633C117.907 59.1633 117.632 59.2117 117.455 59.3086C117.261 59.4134 117.108 59.5345 117.011 59.6797C116.914 59.8249 116.866 59.9863 116.858 60.1638C116.842 60.3332 116.833 60.4865 116.833 60.6237C116.809 61.9469 116.785 63.2782 116.753 64.6014C116.721 65.9246 116.704 67.2478 116.68 68.5791C116.68 68.684 116.664 68.8212 116.68 68.9987C116.688 69.1681 116.729 69.3376 116.817 69.4909C116.906 69.6522 117.035 69.7732 117.229 69.8943C117.406 69.9992 117.664 70.0718 118.011 70.0718C118.35 70.0718 118.608 70.0234 118.786 69.9185C118.972 69.8055 119.109 69.6764 119.197 69.5312C119.286 69.3698 119.343 69.2165 119.367 69.039C119.383 68.8696 119.399 68.7324 119.407 68.6275C119.423 67.8449 119.456 67.0623 119.472 66.2796C121.053 66.328 122.627 66.3765 124.184 66.4329C124.168 67.1107 124.119 67.7884 124.095 68.4662C124.047 69.9104 123.45 71.0319 122.368 71.8226C121.279 72.6214 119.819 72.9683 117.947 72.9441C116.107 72.9118 114.663 72.5004 113.606 71.6613C112.541 70.8141 112.009 69.6764 112.017 68.2241C112.017 67.0058 112.017 65.7794 112.025 64.553C112.025 63.3347 112.041 62.1083 112.041 60.8819V60.8738ZM101.858 66.0214C101.818 64.9887 101.786 63.9559 101.762 62.9151C102.867 62.8828 104.005 62.8667 105.15 62.8586C105.134 62.1083 105.11 61.3579 105.102 60.6076C105.102 60.4785 105.086 60.3252 105.062 60.1477C105.038 59.9782 104.973 59.8169 104.884 59.6636C104.795 59.5183 104.666 59.3892 104.481 59.2843C104.287 59.1795 104.021 59.131 103.666 59.1391C103.319 59.1391 103.053 59.2037 102.859 59.3086C102.673 59.4134 102.536 59.5506 102.447 59.6958C102.367 59.8491 102.302 60.0105 102.302 60.188C102.302 60.3574 102.302 60.5188 102.302 60.6479C102.318 61.1159 102.327 61.5919 102.359 62.0679C100.753 62.1083 99.1719 62.1567 97.5743 62.2132C97.5582 61.8501 97.542 61.4789 97.5259 61.1078C97.4936 60.3252 97.6227 59.6313 97.9051 59.0262C98.1794 58.421 98.6151 57.9208 99.1396 57.5254C99.6801 57.114 100.35 56.8154 101.108 56.6056C101.859 56.3959 102.69 56.2668 103.593 56.2587C104.505 56.2426 105.352 56.3313 106.111 56.5169C106.869 56.7025 107.539 56.9849 108.111 57.3641C108.676 57.7433 109.104 58.2274 109.419 58.8164C109.733 59.4054 109.911 60.0912 109.911 60.8657C109.911 62.0921 109.911 63.3185 109.911 64.5449C109.911 65.7633 109.935 66.9897 109.935 68.216C109.935 69.6684 109.402 70.8141 108.337 71.6613C107.289 72.5004 105.844 72.928 103.997 72.9603C102.149 72.9925 100.665 72.6375 99.5914 71.8468C98.4941 71.04 97.905 69.9265 97.8405 68.4662C97.8163 67.9175 97.7922 67.3689 97.776 66.8202C99.3332 66.7637 100.906 66.7153 102.48 66.6669C102.496 67.3205 102.512 67.974 102.536 68.6275C102.536 68.7324 102.552 68.8696 102.569 69.039C102.585 69.2085 102.633 69.3698 102.73 69.5312C102.819 69.6845 102.956 69.8217 103.141 69.9265C103.343 70.0395 103.601 70.0879 103.94 70.0798C104.287 70.0798 104.545 70.0153 104.715 69.9023C104.892 69.7894 105.013 69.6522 105.086 69.4909C105.167 69.3295 105.231 69.1681 105.239 68.9987C105.255 68.8212 105.272 68.684 105.264 68.5791C105.239 67.7077 105.231 66.8283 105.215 65.9488C104.094 65.965 102.972 65.9811 101.875 66.0134L101.858 66.0214ZM94.71 56.7993C94.8149 58.9777 94.9359 61.1562 95.0488 63.3347C95.1618 65.5131 95.2747 67.6835 95.3876 69.862C95.8153 69.8459 96.243 69.8297 96.6787 69.8136C96.7271 70.8544 96.7916 71.9033 96.84 72.9441C95.549 72.9925 94.2661 73.0651 92.9671 73.1378C90.5385 73.283 88.1101 73.4282 85.6977 73.6219C84.4148 73.7268 83.1398 73.8397 81.8812 73.9446C81.7763 72.8957 81.6715 71.8549 81.5747 70.806C81.9458 70.7737 82.325 70.7415 82.7284 70.7092C83.0431 69.983 83.2529 69.0955 83.3658 68.0305C83.4707 66.9735 83.511 65.8359 83.4868 64.6337C83.4626 63.4315 83.4061 62.2051 83.3093 60.9706C83.2125 59.7362 83.132 58.5743 83.0755 57.4851C86.9483 57.2188 90.8049 56.9929 94.71 56.8074V56.7993ZM90.7162 70.1202C90.6033 68.4016 90.4821 66.675 90.3691 64.9564C90.2562 63.2379 90.1433 61.5112 90.0303 59.7927C89.2477 59.833 88.4732 59.8814 87.7067 59.9298C87.7471 60.8173 87.755 61.7613 87.7711 62.7457C87.7953 63.7381 87.7711 64.6982 87.7469 65.6342C87.7308 66.5701 87.6905 67.4495 87.6098 68.2645C87.5291 69.0874 87.4 69.7732 87.2145 70.338C88.3682 70.2573 89.5382 70.1928 90.7162 70.1202ZM71.5457 58.5501C71.6667 59.5667 71.7877 60.5834 71.9088 61.6C72.0298 62.6166 72.1669 63.6332 72.296 64.6498C73.1835 64.5449 74.1034 64.4481 74.999 64.3432C74.8941 63.3266 74.7649 62.31 74.6519 61.2934C74.539 60.2768 74.418 59.2601 74.297 58.2435C75.8945 58.0902 77.4839 57.9369 79.0815 57.7917C79.3477 60.4946 79.622 63.2056 79.8883 65.9085C80.1626 68.6114 80.4289 71.3224 80.6951 74.0253C79.1944 74.1947 77.6777 74.3642 76.177 74.5336C76.0398 73.3798 75.9026 72.226 75.7655 71.0723C75.6283 69.9185 75.5073 68.7566 75.3782 67.6028C74.4745 67.6997 73.5708 67.8046 72.6833 67.9095C72.8205 69.0632 72.9576 70.2251 73.1029 71.3789C73.2481 72.5326 73.3934 73.6945 73.5467 74.8402C72.0459 75.058 70.5371 75.284 69.0444 75.5018C68.6652 72.7666 68.278 70.0395 67.8988 67.3043C67.5196 64.5691 67.1564 61.834 66.7772 59.1068C68.3505 58.9132 69.932 58.7276 71.5215 58.5421L71.5457 58.5501ZM58.015 60.3978C58.3781 61.3014 58.7491 62.197 59.1122 63.1007C59.4753 63.9963 59.8385 64.8919 60.2177 65.7955C60.2257 65.7955 60.25 65.7955 60.2742 65.7875C60.3307 64.8112 60.4114 63.843 60.484 62.8748C60.5566 61.9066 60.6291 60.9384 60.7259 59.9782C62.3234 59.7442 63.9209 59.5022 65.5346 59.2843C65.1312 60.9787 64.7197 62.6811 64.3244 64.3836C63.929 66.0941 63.5579 67.8207 63.1868 69.5393C63.3643 70.6769 63.5177 71.8065 63.6871 72.9361C63.8646 74.0737 64.0501 75.2033 64.2276 76.3328C62.7431 76.6152 61.2666 76.8976 59.8062 77.2446C59.6206 76.1473 59.4432 75.05 59.2576 73.9527C59.072 72.8554 58.8701 71.7581 58.6846 70.6608C57.797 69.1036 56.8774 67.5464 55.9737 65.973C55.07 64.3997 54.1422 62.8183 53.2063 61.2288C54.8038 60.9464 56.4013 60.664 58.0069 60.3978H58.015Z" fill="white"/>
<path fill-rule="evenodd" clip-rule="evenodd" d="M154.779 67.362C156.256 67.596 157.732 67.8461 159.225 68.1123C159.177 68.4189 159.12 68.7175 159.072 69.0241C159.08 69.0241 159.104 69.0241 159.128 69.0402C159.282 68.7497 159.435 68.4673 159.588 68.185C161.888 68.5964 164.22 69.0563 166.559 69.5566L166.382 70.4441C165.882 72.9534 165.389 75.4707 164.897 77.988C163.493 77.6411 162.081 77.2942 160.677 76.9392C160.911 75.6079 161.153 74.2685 161.395 72.9372C161.629 71.6059 161.88 70.2747 162.122 68.9353C162.098 68.9353 162.073 68.9192 162.065 68.9192C161.396 70.1456 160.71 71.3639 160.048 72.6145C159.387 73.8651 158.709 75.1238 158.063 76.3824C156.555 76.092 155.046 75.8015 153.529 75.5353C153.924 72.9534 154.319 70.3715 154.715 67.7815L154.779 67.362ZM148.244 66.426C149.737 66.6197 151.237 66.8295 152.746 67.0473L152.69 67.4507C152.31 70.0488 151.939 72.6468 151.56 75.2367C150.108 75.0269 148.656 74.8091 147.203 74.6074C147.365 73.2438 147.55 71.8722 147.72 70.5006C147.889 69.1451 148.075 67.7815 148.244 66.426ZM140.724 65.5708C142.225 65.716 143.734 65.8774 145.259 66.0549C145.226 66.297 145.202 66.5471 145.17 66.7891C145.178 66.7891 145.202 66.7891 145.226 66.7891L145.549 66.0872C146.421 66.1921 147.292 66.297 148.171 66.4099C147.566 67.717 146.953 69.0241 146.348 70.3311C145.735 71.6544 145.138 72.9856 144.533 74.3089C142.975 74.1394 141.426 73.97 139.885 73.8167C140.151 71.1783 140.418 68.54 140.692 65.8935L140.724 65.5627V65.5708ZM126.427 64.5623C130.381 64.7398 134.447 65.006 138.61 65.3772L138.578 65.716C138.328 68.3625 138.086 71.0089 137.844 73.6634C136.319 73.5424 134.786 73.4213 133.269 73.3003C133.35 72.1707 133.43 71.0412 133.519 69.9116C133.608 68.782 133.697 67.6444 133.794 66.5148C132.882 66.4583 131.97 66.4018 131.058 66.3454C130.97 67.483 130.897 68.6207 130.824 69.7583C130.752 70.8879 130.663 72.0255 130.599 73.1551C129.066 73.0744 127.541 72.9856 126 72.905C126.137 70.2343 126.274 67.5637 126.411 64.885L126.427 64.5623ZM112.041 64.2314C113.598 64.2314 115.18 64.2476 116.785 64.2718V64.5945C116.753 65.9177 116.729 67.241 116.713 68.5722C116.713 68.6771 116.697 68.8143 116.713 68.9918C116.721 69.1612 116.761 69.3307 116.85 69.484C116.939 69.6453 117.068 69.7744 117.261 69.8874C117.439 69.9923 117.697 70.0649 118.044 70.0649C118.383 70.0649 118.641 70.0165 118.819 69.9116C119.004 69.7986 119.141 69.6695 119.23 69.5243C119.319 69.3629 119.375 69.2096 119.399 69.0321C119.416 68.8627 119.432 68.7255 119.44 68.6206C119.456 67.838 119.488 67.0554 119.504 66.2728C121.086 66.3212 122.659 66.3696 124.216 66.426C124.2 67.1038 124.152 67.7815 124.128 68.4593C124.079 69.9035 123.482 71.025 122.401 71.8157C121.312 72.6145 119.851 72.9614 117.979 72.9372C116.14 72.905 114.696 72.4935 113.639 71.6544C112.574 70.8072 112.041 69.6695 112.049 68.2172C112.049 66.9989 112.049 65.7725 112.057 64.5461V64.2314H112.041ZM101.811 64.3202C102.803 64.296 103.812 64.2799 104.828 64.2718C106.49 64.2476 108.184 64.2395 109.911 64.2314V64.5461C109.911 65.7644 109.935 66.9908 109.935 68.2172C109.935 69.6695 109.403 70.8153 108.338 71.6624C107.289 72.5015 105.845 72.9292 103.997 72.9614C102.149 72.9937 100.665 72.6387 99.5918 71.848C98.4945 71.0412 97.9053 69.9277 97.8408 68.4673C97.8166 67.9187 97.7925 67.3701 97.7764 66.8214C99.3336 66.7649 100.907 66.7165 102.48 66.6681C102.496 67.3216 102.512 67.9752 102.537 68.6287C102.537 68.7336 102.553 68.8708 102.569 69.0402C102.585 69.2096 102.633 69.371 102.73 69.5324C102.819 69.6857 102.956 69.8228 103.142 69.9277C103.343 70.0407 103.602 70.0891 103.941 70.081C104.287 70.081 104.546 70.0165 104.715 69.9035C104.893 69.7906 105.014 69.6534 105.086 69.492C105.167 69.3307 105.232 69.1693 105.24 68.9999C105.256 68.8224 105.272 68.6852 105.264 68.5803C105.24 67.7089 105.232 66.8295 105.215 65.95C104.094 65.9662 102.972 65.9823 101.875 66.0146C101.851 65.4498 101.835 64.885 101.819 64.3121L101.811 64.3202ZM83.5033 65.1997C84.883 65.0948 86.3111 64.9979 87.7795 64.9092L87.7634 65.6353C87.7473 66.5713 87.707 67.4507 87.6263 68.2656C87.5456 69.0886 87.4165 69.7744 87.231 70.3392C88.3847 70.2585 89.5547 70.194 90.7327 70.1214C90.6197 68.4028 90.4986 66.6762 90.3856 64.9576L90.3695 64.7559C91.9105 64.6752 93.5001 64.5945 95.1299 64.53C95.2268 66.305 95.3154 68.0801 95.4041 69.8551C95.8318 69.839 96.2595 69.8228 96.6952 69.8067C96.7436 70.8475 96.8081 71.8964 96.8565 72.9372C95.5655 72.9856 94.2826 73.0583 92.9836 73.1309C90.555 73.2761 88.1264 73.4213 85.714 73.615C84.4311 73.7199 83.1563 73.8328 81.8977 73.9377C81.7928 72.8888 81.688 71.848 81.5912 70.7991C81.9623 70.7668 82.3415 70.7346 82.7449 70.7023C83.0596 69.9761 83.2694 69.0886 83.3823 68.0236C83.4711 67.1361 83.5113 66.1921 83.5113 65.2077L83.5033 65.1997ZM67.8668 66.773C71.2878 66.3373 75.3139 65.8855 79.8725 65.4901L79.9129 65.9097C80.1872 68.6126 80.4535 71.3236 80.7197 74.0265C79.219 74.1959 77.7023 74.3653 76.2015 74.5348C76.0644 73.381 75.9272 72.2272 75.79 71.0734C75.6529 69.9197 75.5319 68.7578 75.4028 67.604C74.4991 67.7009 73.5954 67.8057 72.7079 67.9106C72.845 69.0644 72.9822 70.2263 73.1274 71.38C73.2727 72.5338 73.4179 73.6957 73.5712 74.8414C72.0705 75.0592 70.5617 75.2851 69.069 75.503C68.6898 72.7678 68.3026 70.0407 67.9234 67.3055L67.8507 66.7649L67.8668 66.773ZM63.6875 67.3458C63.5261 68.0801 63.3647 68.8062 63.2114 69.5404C63.3889 70.6781 63.5423 71.8077 63.7117 72.9372C63.8892 74.0749 64.0747 75.2044 64.2522 76.334C62.7676 76.6164 61.2911 76.8988 59.8308 77.2458C59.6452 76.1485 59.4675 75.0512 59.282 73.9539C59.0964 72.8566 58.8947 71.7592 58.7091 70.6619C58.2734 69.8955 57.8298 69.129 57.3779 68.3544C58.8867 68.0881 61.0168 67.7331 63.6875 67.3458Z" fill="#E5E6E7"/>
<path fill-rule="evenodd" clip-rule="evenodd" d="M148.139 77.8519C148.058 78.562 147.986 79.28 147.913 79.9901C146.743 79.8852 145.589 79.7803 144.428 79.6754C144.355 80.4257 144.282 81.168 144.218 81.9184C144.153 82.6607 144.081 83.411 144.016 84.1533C143.943 84.9037 143.871 85.646 143.806 86.3964C143.734 87.1386 143.669 87.889 143.596 88.6313C142.572 88.5425 141.547 88.4538 140.515 88.3731C140.587 87.4452 140.66 86.5174 140.724 85.5895C140.789 84.6616 140.87 83.7338 140.95 82.8059C141.023 81.8781 141.095 80.9502 141.168 80.0223C141.241 79.0945 141.313 78.1666 141.394 77.2387C143.637 77.4324 145.888 77.6502 148.139 77.8519ZM136.125 88.0423C136.19 87.066 136.238 86.0817 136.303 85.1054C136.367 84.1291 136.448 83.1529 136.496 82.1685C136.48 82.1685 136.464 82.1685 136.464 82.1685C136.101 83.1206 135.738 84.0807 135.375 85.0409C135.02 86.001 134.657 86.9611 134.302 87.9213C133.245 87.8567 132.172 87.7922 131.115 87.7276C131.155 86.7917 131.204 85.8477 131.236 84.9118C131.268 83.9758 131.325 83.0318 131.365 82.0959C131.405 81.16 131.438 80.216 131.478 79.28C131.518 78.3441 131.559 77.4001 131.599 76.4642C132.64 76.5368 133.689 76.6175 134.754 76.6982C134.697 77.6744 134.657 78.6588 134.592 79.635C134.528 80.6113 134.487 81.5957 134.423 82.58C134.423 82.58 134.447 82.58 134.455 82.58C134.81 81.6199 135.173 80.6597 135.536 79.7077C135.899 78.7475 136.287 77.8035 136.666 76.8515C137.763 76.9402 138.844 77.029 139.958 77.1177C139.885 78.0456 139.805 78.9815 139.74 79.9013C139.675 80.8292 139.611 81.757 139.546 82.693C139.474 83.6208 139.401 84.5487 139.337 85.4846C139.272 86.4125 139.191 87.3484 139.135 88.2763C138.11 88.1956 137.118 88.1311 136.125 88.0584V88.0423ZM120.36 84.8795C120.465 84.9682 120.545 85.0409 120.634 85.0973C120.723 85.1538 120.836 85.1861 120.973 85.1861C121.191 85.1861 121.344 85.1619 121.449 85.0893C121.562 85.0167 121.675 84.8714 121.772 84.6455C121.885 84.3954 121.981 83.992 122.03 83.4514C122.086 82.9027 122.135 82.2492 122.151 81.4827C122.175 80.7162 122.207 79.861 122.223 78.9089C122.223 78.4329 122.248 77.9488 122.256 77.4485C122.272 76.9483 122.28 76.44 122.296 75.9155C124.91 76.0446 127.524 76.1979 130.138 76.3512C130.098 77.2871 130.066 78.2311 130.034 79.1751C130.001 80.1111 129.961 81.0551 129.929 81.9991C129.896 82.9431 129.848 83.879 129.816 84.823C129.784 85.767 129.743 86.703 129.711 87.647C128.67 87.5905 127.621 87.5421 126.58 87.4937C126.597 86.711 126.613 85.9203 126.629 85.1377C126.645 84.3551 126.677 83.5644 126.693 82.7817C126.709 81.9991 126.742 81.2164 126.758 80.4338C126.774 79.6512 126.798 78.8605 126.814 78.0778C126.298 78.0456 125.782 78.0214 125.257 77.9891C125.225 78.4571 125.209 79.0218 125.193 79.6915C125.177 80.3693 125.128 81.0551 125.088 81.7651C125.039 82.4751 124.991 83.1609 124.894 83.8145C124.797 84.468 124.676 85.0005 124.515 85.4201C124.224 86.1785 123.837 86.703 123.345 86.9853C122.837 87.2677 122.312 87.3968 121.756 87.3807C121.634 87.3807 121.489 87.3646 121.336 87.3323C121.191 87.3 121.045 87.2597 120.916 87.2113C120.795 87.1628 120.666 87.1144 120.561 87.066C120.448 87.0176 120.376 86.9692 120.335 86.9208C120.335 86.2431 120.335 85.5653 120.335 84.8876L120.36 84.8795ZM114.591 75.6654C114.607 76.44 114.615 77.2065 114.623 77.981C114.631 78.7475 114.663 79.5221 114.671 80.2886C114.68 81.0551 114.704 81.8296 114.712 82.5961C114.728 83.3626 114.744 84.1372 114.744 84.9037C115.035 84.9037 115.325 84.9118 115.623 84.9198C115.64 85.6541 115.648 86.3964 115.656 87.1306C114.776 87.1225 113.913 87.1064 113.034 87.0983C111.371 87.0822 109.726 87.0822 108.072 87.0822C107.192 87.0822 106.337 87.0902 105.465 87.1064C105.425 86.3721 105.393 85.6379 105.344 84.8956C105.603 84.8956 105.853 84.8876 106.127 84.8876C106.377 84.3954 106.547 83.7822 106.652 83.0399C106.756 82.2976 106.797 81.5069 106.821 80.6597C106.837 79.8206 106.821 78.9573 106.789 78.0859C106.756 77.2145 106.724 76.3996 106.716 75.6331C109.338 75.617 111.96 75.617 114.583 75.6573L114.591 75.6654ZM111.589 84.8714C111.573 84.2663 111.549 83.6531 111.533 83.048C111.517 82.4428 111.501 81.8296 111.484 81.2245C111.468 80.6194 111.444 80.0062 111.428 79.4011C111.412 78.7959 111.396 78.1827 111.379 77.5776C110.847 77.5776 110.347 77.5776 109.806 77.5776C109.806 78.1989 109.806 78.8685 109.782 79.5624C109.766 80.2563 109.742 80.9341 109.701 81.5957C109.661 82.2573 109.596 82.8705 109.524 83.4433C109.451 84.0162 109.346 84.4922 109.201 84.8795C109.992 84.8795 110.79 84.8795 111.581 84.8795L111.589 84.8714ZM98.9785 82.5155C98.9301 81.7893 98.8654 81.0632 98.817 80.337C99.5592 80.3128 100.326 80.2886 101.084 80.2644C101.044 79.7399 101.004 79.2155 100.971 78.683C100.971 78.5862 100.939 78.4813 100.923 78.3602C100.899 78.2392 100.866 78.1263 100.81 78.0214C100.745 77.9165 100.649 77.8358 100.511 77.7632C100.382 77.6986 100.197 77.6664 99.9547 77.6744C99.7207 77.6825 99.5431 77.7228 99.4221 77.8035C99.3091 77.8761 99.2205 77.973 99.1721 78.0859C99.1237 78.1908 99.0914 78.3038 99.0914 78.4329C99.0914 78.5539 99.1075 78.6588 99.1156 78.7556C99.1398 79.0864 99.156 79.4172 99.1883 79.748C98.1152 79.7883 97.0582 79.8368 95.9851 79.8852C95.9609 79.627 95.9447 79.3688 95.9205 79.1106C95.8721 78.562 95.9447 78.0859 96.1061 77.6583C96.2755 77.2307 96.5418 76.8757 96.8887 76.5933C97.2356 76.3109 97.6553 76.0769 98.1636 75.9155C98.6719 75.7542 99.2204 75.6654 99.8255 75.6412C100.431 75.617 100.987 75.6654 101.512 75.7864C102.036 75.9074 102.488 76.093 102.875 76.3512C103.263 76.6094 103.586 76.9483 103.82 77.3678C104.053 77.7793 104.191 78.2634 104.215 78.8121C104.263 79.6835 104.32 80.5468 104.368 81.4101C104.417 82.2734 104.465 83.1448 104.513 84.0081C104.57 85.0328 104.263 85.8558 103.577 86.4448C102.892 87.0499 101.931 87.3565 100.689 87.3888C99.4383 87.421 98.4217 87.1548 97.6552 86.5981C96.8967 86.0413 96.4692 85.2587 96.3724 84.2421C96.3321 83.8548 96.3078 83.4756 96.2674 83.0964C97.3244 83.048 98.3651 83.0076 99.4302 82.9754C99.4624 83.4353 99.5029 83.8952 99.5352 84.3551C99.5352 84.4277 99.5433 84.5245 99.5675 84.6455C99.5917 84.7665 99.6158 84.8876 99.6803 84.9925C99.7529 85.1054 99.8499 85.1942 99.987 85.2668C100.124 85.3475 100.302 85.3797 100.528 85.3717C100.753 85.3717 100.915 85.3152 101.028 85.2345C101.141 85.1538 101.238 85.057 101.278 84.944C101.318 84.8311 101.359 84.7181 101.359 84.5971C101.359 84.4761 101.359 84.3793 101.359 84.3066C101.318 83.6934 101.27 83.0722 101.23 82.4509C100.479 82.4751 99.7288 82.4993 98.9785 82.5155ZM89.4012 82.9996C89.3205 82.2815 89.2398 81.5715 89.151 80.8614C89.9014 80.813 90.6518 80.7646 91.4022 80.7162C91.3457 80.1998 91.2892 79.6835 91.2328 79.159C91.2247 79.0622 91.2085 78.9573 91.1924 78.8363C91.1762 78.7153 91.1198 78.6104 91.0472 78.5135C90.9746 78.4167 90.8859 78.336 90.7326 78.2634C90.6035 78.2069 90.4178 78.1747 90.1838 78.1908C89.9418 78.2069 89.7724 78.2554 89.6595 78.336C89.5465 78.4167 89.4577 78.5135 89.4093 78.6184C89.3609 78.7233 89.3366 78.8363 89.3366 78.9573C89.3366 79.0783 89.3608 79.1832 89.3689 79.272C89.4012 79.5947 89.4336 79.9255 89.4739 80.2482C88.4089 80.3209 87.36 80.4015 86.295 80.4822C86.2627 80.2321 86.2384 79.982 86.2062 79.7238C86.1335 79.1832 86.1819 78.7153 86.3352 78.2876C86.4885 77.8681 86.7307 77.505 87.0776 77.2145C87.4165 76.9241 87.828 76.682 88.3202 76.5045C88.8123 76.327 89.377 76.2221 89.966 76.1818C90.5711 76.1414 91.1359 76.1737 91.6523 76.2705C92.1768 76.3674 92.6286 76.5368 93.032 76.7788C93.4273 77.0209 93.75 77.3436 93.9921 77.747C94.2422 78.1505 94.3956 78.6184 94.452 79.1671C94.5327 80.0223 94.6134 80.8776 94.6941 81.7328C94.7748 82.5881 94.8636 83.4433 94.9443 84.2986C95.0411 85.3152 94.7587 86.122 94.0971 86.7352C93.4355 87.3484 92.4914 87.6873 91.257 87.7438C90.0064 87.8083 88.9978 87.5743 88.2152 87.0499C87.4406 86.5254 86.9727 85.759 86.8517 84.7665C86.8033 84.3954 86.7467 84.0162 86.7144 83.637C87.7552 83.5643 88.7961 83.4837 89.8531 83.4272C89.8934 83.879 89.9499 84.3308 89.9983 84.7746C89.9983 84.8472 90.0306 84.944 90.0467 85.057C90.0709 85.178 90.1193 85.2829 90.1919 85.3959C90.2564 85.5008 90.3534 85.5895 90.4986 85.6621C90.6277 85.7267 90.8132 85.759 91.031 85.7509C91.265 85.7347 91.4346 85.6944 91.5475 85.6057C91.6524 85.525 91.7249 85.4201 91.7733 85.3152C91.8217 85.2022 91.846 85.0812 91.846 84.9682C91.846 84.8472 91.8459 84.7504 91.8298 84.6778C91.7653 84.0727 91.6926 83.4595 91.6281 82.8543C90.8858 82.8947 90.1354 82.9431 89.3931 82.9834L89.4012 82.9996ZM84.1002 76.8595C84.2051 77.6018 84.302 78.3441 84.3989 79.0864C84.4957 79.8287 84.6005 80.571 84.7054 81.3133C84.8102 82.0556 84.9152 82.7979 85.0121 83.5401C85.1089 84.2824 85.1975 85.0247 85.3024 85.767C85.5929 85.7509 85.8915 85.7267 86.1739 85.7105C86.2787 86.4286 86.3595 87.1386 86.4563 87.8567C85.5849 87.9132 84.7217 87.9697 83.8664 88.0423C82.2366 88.1633 80.6067 88.2924 78.985 88.4377C78.1378 88.5183 77.2986 88.591 76.4514 88.6636C76.3223 87.9697 76.2013 87.2677 76.0884 86.5739C76.3304 86.5497 76.5805 86.5254 76.8387 86.5012C77.0162 86.0171 77.1292 85.412 77.1454 84.702C77.1615 83.992 77.1372 83.2335 77.0565 82.4267C76.9839 81.6199 76.863 80.805 76.7339 79.9739C76.6048 79.1509 76.5 78.3683 76.4032 77.6422C78.9689 77.3598 81.5345 77.1096 84.1083 76.8595H84.1002ZM82.1639 86.0171C82.0832 85.4362 81.9944 84.8553 81.9137 84.2663C81.833 83.6854 81.7444 83.1045 81.6638 82.5155C81.575 81.9345 81.4862 81.3536 81.4055 80.7727C81.3248 80.1918 81.228 79.6108 81.1553 79.0218C80.6551 79.0703 80.1307 79.1187 79.6224 79.1671C79.6708 79.7722 79.7515 80.4015 79.808 81.0712C79.8725 81.7409 79.9209 82.3944 79.9532 83.0238C79.9854 83.6612 80.0097 84.2502 80.0016 84.8069C80.0016 85.3636 79.9371 85.8316 79.8322 86.2108C80.6149 86.1382 81.3974 86.0736 82.1639 86.0091V86.0171Z" fill="#E5E6E7"/>
<path fill-rule="evenodd" clip-rule="evenodd" d="M83.6487 114.684C83.6487 114.684 101.649 124.801 110.75 126.544C119.851 124.809 137.852 114.684 137.852 114.684C129.057 124.196 110.75 132.733 110.75 132.733C110.75 132.733 92.4352 124.204 83.6487 114.684Z" fill="white"/>
<path fill-rule="evenodd" clip-rule="evenodd" d="M110.758 108.728L112.097 113.125L116.753 113.084L112.985 115.723L114.461 120.136L110.79 117.369L107.047 120.136L108.547 115.787L104.755 113.084L109.354 113.165L110.758 108.728Z" fill="white"/>
<path fill-rule="evenodd" clip-rule="evenodd" d="M127.589 106.897L128.348 109.399L130.994 109.374L128.856 110.875L129.695 113.384L127.605 111.811L125.483 113.384L126.33 110.907L124.176 109.374L126.79 109.423L127.589 106.897Z" fill="white"/>
<path fill-rule="evenodd" clip-rule="evenodd" d="M93.9276 106.897L94.6859 109.399L97.3324 109.374L95.1942 110.875L96.0333 113.384L93.9437 111.811L91.8135 113.384L92.6688 110.907L90.5146 109.374L93.1288 109.423L93.9276 106.897Z" fill="white"/>
<path fill-rule="evenodd" clip-rule="evenodd" d="M71.0701 104.776C71.1023 104.945 71.1831 105.114 71.3283 105.227C71.7559 105.558 75.7094 107.172 75.7094 107.172C75.7094 107.172 93.2744 104.953 110.694 104.953C128.114 104.953 145.678 107.172 145.678 107.172C145.678 107.172 149.632 105.558 150.059 105.227C150.205 105.114 150.277 104.953 150.318 104.792H150.237C123.934 101.548 97.4619 101.5 71.167 104.784H71.0781L71.0701 104.776Z" fill="white"/>
<path fill-rule="evenodd" clip-rule="evenodd" d="M72.9177 92.1801L71.0781 104.121C84.157 102.492 97.365 101.66 110.694 101.669C124.023 101.669 137.231 102.492 150.31 104.121L149.043 92.1801C122.934 88.8963 97.5667 88.9447 72.9177 92.1801Z" fill="#FC4B0B"/>
<path d="M133.237 97.1751C133.422 96.8281 133.592 96.4489 133.745 96.0294C133.898 95.6098 134.027 95.1822 134.132 94.7465C134.237 94.3108 134.318 93.867 134.374 93.4313C134.431 92.9956 134.463 92.5842 134.471 92.1969C135.262 92.2614 136.053 92.326 136.843 92.3986C136.827 92.8585 136.754 93.3103 136.625 93.7621C136.496 94.214 136.327 94.6577 136.125 95.0934C135.915 95.5291 135.681 95.9487 135.407 96.3602C135.133 96.7716 134.858 97.1509 134.56 97.5059C135.125 97.5462 135.698 97.5785 136.262 97.6188C136.238 97.2316 136.214 96.8523 136.19 96.4651C136.456 96.1504 136.698 95.7792 136.932 95.3597C137.166 94.9321 137.319 94.5206 137.408 94.1252C137.698 94.1494 137.989 94.1736 138.288 94.1978C138.328 94.7949 138.368 95.392 138.417 95.9971C138.457 96.5941 138.497 97.1912 138.538 97.7963C138.804 97.8125 139.062 97.8367 139.336 97.8528C139.369 98.3611 139.409 98.8614 139.441 99.3697C139.175 99.3535 138.901 99.3293 138.642 99.3132C138.675 99.8457 138.715 100.37 138.755 100.903C137.981 100.854 137.214 100.798 136.448 100.749C136.416 100.217 136.375 99.6843 136.351 99.1518C135.334 99.0873 134.31 99.0227 133.301 98.9663C133.269 98.3692 133.245 97.7721 133.221 97.1751M126.839 94.0203C126.822 93.1732 127.032 92.56 127.484 92.1807C127.928 91.8015 128.67 91.6402 129.695 91.7047C130.566 91.7612 131.26 91.9952 131.752 92.4067C132.252 92.8181 132.519 93.3991 132.551 94.1575C132.567 94.5367 132.527 94.8594 132.43 95.1338C132.333 95.4081 132.196 95.6501 132.026 95.868C131.849 96.0858 131.647 96.2876 131.413 96.4651C131.187 96.6426 130.953 96.8281 130.703 97.0056C130.453 97.1831 130.211 97.3768 129.985 97.5785C129.759 97.7802 129.541 98.0142 129.356 98.2885C129.291 98.3773 129.259 98.4579 129.235 98.5225C129.219 98.5628 129.194 98.6032 129.178 98.6435C129.162 98.6839 129.146 98.7242 129.138 98.7645C130.324 98.821 131.51 98.8775 132.696 98.942C132.728 99.4746 132.744 100.007 132.769 100.54C130.76 100.443 128.759 100.362 126.75 100.289C126.75 100.112 126.742 99.9345 126.742 99.7489C126.734 99.1276 126.814 98.6112 126.984 98.1836C127.153 97.756 127.379 97.3929 127.645 97.0863C127.904 96.7878 128.202 96.5215 128.509 96.2956C128.815 96.0778 129.106 95.8599 129.372 95.6421C129.638 95.4242 129.856 95.1983 130.034 94.9401C130.203 94.69 130.276 94.3834 130.26 94.0203C130.251 93.8186 130.203 93.633 130.13 93.4555C130.05 93.278 129.88 93.1893 129.606 93.1651C129.461 93.157 129.348 93.1732 129.267 93.2135C129.178 93.2538 129.114 93.3184 129.081 93.391C129.041 93.4717 129.017 93.5524 129.009 93.6492C129.009 93.746 128.993 93.8428 129.001 93.9396C129.009 94.2301 129.017 94.5125 129.025 94.803C128.299 94.7626 127.581 94.7303 126.871 94.6981C126.871 94.4722 126.854 94.2462 126.854 94.0203H126.839ZM122.586 98.2401C122.586 98.4741 122.635 98.6354 122.748 98.7081C122.853 98.7807 122.99 98.821 123.151 98.821C123.296 98.821 123.426 98.7968 123.547 98.7242C123.651 98.6597 123.708 98.5064 123.708 98.2724C123.708 97.4655 123.7 96.6587 123.7 95.8519C123.7 95.045 123.7 94.2382 123.692 93.4313C123.692 93.1974 123.627 93.036 123.522 92.9634C123.409 92.8827 123.28 92.8504 123.135 92.8424C122.982 92.8424 122.853 92.8666 122.748 92.9311C122.643 92.9956 122.595 93.1489 122.595 93.3829V98.224L122.586 98.2401ZM120.295 93.4717C120.295 92.7859 120.545 92.2534 121.029 91.8661C121.513 91.4788 122.215 91.3094 123.135 91.3497C124.047 91.39 124.757 91.616 125.233 92.0355C125.717 92.4551 125.959 93.0037 125.975 93.6815C125.983 94.4399 125.999 95.1903 126.007 95.9487C126.016 96.7071 126.024 97.4575 126.04 98.2159C126.048 98.8936 125.822 99.4181 125.33 99.7973C124.837 100.177 124.119 100.354 123.159 100.33C122.207 100.306 121.465 100.096 120.981 99.6843C120.489 99.2729 120.247 98.7323 120.255 98.0465C120.255 97.288 120.271 96.5215 120.279 95.755C120.287 94.9966 120.295 94.2301 120.303 93.4636L120.295 93.4717ZM113.929 93.6573C113.961 92.7939 114.211 92.1565 114.679 91.7451C115.147 91.3336 115.89 91.1399 116.914 91.1641C117.786 91.1803 118.464 91.39 118.94 91.7854C119.416 92.1807 119.641 92.7697 119.641 93.5524C119.641 93.9396 119.577 94.2785 119.464 94.5609C119.343 94.8514 119.19 95.1015 119.004 95.3355C118.818 95.5614 118.617 95.7712 118.367 95.9648C118.125 96.1585 117.874 96.3521 117.624 96.5538C117.374 96.7474 117.116 96.9572 116.874 97.1751C116.632 97.3929 116.406 97.643 116.204 97.9254C116.132 98.0223 116.091 98.1029 116.067 98.1675C116.051 98.2078 116.027 98.2482 116.011 98.2885C115.986 98.3289 115.97 98.3692 115.962 98.4095C117.14 98.4176 118.326 98.4337 119.504 98.4579C119.504 99.0066 119.496 99.5552 119.488 100.104C117.479 100.08 115.478 100.064 113.485 100.055C113.485 99.878 113.493 99.6924 113.501 99.5068C113.526 98.8775 113.639 98.3369 113.832 97.8932C114.026 97.4494 114.268 97.0621 114.55 96.7474C114.841 96.4247 115.147 96.1504 115.47 95.9083C115.793 95.6744 116.091 95.4404 116.366 95.2064C116.648 94.9724 116.882 94.7223 117.06 94.456C117.237 94.1898 117.334 93.8751 117.342 93.504C117.342 93.2942 117.318 93.1086 117.253 92.9311C117.189 92.7536 117.019 92.6648 116.745 92.6648C116.6 92.6648 116.479 92.681 116.39 92.7294C116.309 92.7778 116.237 92.8424 116.204 92.923C116.164 93.0037 116.132 93.0925 116.116 93.1893C116.108 93.2861 116.099 93.391 116.091 93.4878C116.083 93.7783 116.067 94.0768 116.059 94.3673C115.341 94.3592 114.623 94.3511 113.905 94.3431C113.913 94.1091 113.921 93.8751 113.929 93.6492V93.6573ZM112.912 95.4484C112.888 95.9971 112.864 96.5538 112.848 97.1025C111.694 97.1025 110.548 97.1025 109.395 97.1186C109.435 96.5619 109.467 96.0132 109.491 95.4565C110.629 95.4484 111.767 95.4484 112.912 95.4565V95.4484ZM104.957 97.1751C104.933 97.4817 104.908 97.7802 104.884 98.0868C104.868 98.2643 104.909 98.4176 104.981 98.5548C105.054 98.6919 105.223 98.7565 105.473 98.7484C105.723 98.7484 105.893 98.6758 105.99 98.5306C106.087 98.3934 106.143 98.232 106.159 98.0626C106.175 97.8528 106.183 97.643 106.2 97.4413C106.216 97.1912 106.208 96.9814 106.191 96.812C106.167 96.6506 106.103 96.5135 106.006 96.4247C105.901 96.3279 105.756 96.2633 105.57 96.2311C105.385 96.1907 105.126 96.1746 104.82 96.1827C104.852 95.6986 104.9 95.2064 104.933 94.7223C105.07 94.7223 105.199 94.7223 105.336 94.7223C105.578 94.7223 105.82 94.6577 106.03 94.5367C106.24 94.4157 106.345 94.2462 106.361 94.0203C106.377 93.7783 106.401 93.5362 106.417 93.2942C106.434 93.1328 106.409 92.9956 106.345 92.8746C106.288 92.7536 106.151 92.6891 105.925 92.6971C105.538 92.6971 105.32 92.9311 105.288 93.3749C105.272 93.5604 105.264 93.746 105.248 93.9316C104.513 93.9477 103.771 93.9639 103.037 93.9881C103.045 93.5685 103.109 93.1812 103.206 92.8424C103.311 92.5035 103.472 92.213 103.722 91.9629C103.965 91.7208 104.271 91.5272 104.659 91.39C105.046 91.2529 105.514 91.1803 106.071 91.1722C106.49 91.1722 106.869 91.1964 107.2 91.2609C107.539 91.3336 107.813 91.4546 108.055 91.624C108.297 91.8015 108.475 92.0194 108.596 92.3098C108.709 92.5922 108.749 92.9472 108.725 93.3668C108.709 93.5846 108.685 93.7863 108.644 93.98C108.604 94.1736 108.556 94.3511 108.467 94.5206C108.37 94.69 108.241 94.8433 108.08 94.9805C107.918 95.1257 107.7 95.2387 107.45 95.3435C107.7 95.4162 107.902 95.5211 108.055 95.6582C108.209 95.7954 108.33 95.9487 108.41 96.1342C108.491 96.3198 108.531 96.5135 108.539 96.7313C108.555 96.9492 108.555 97.167 108.539 97.3929C108.515 97.8528 108.442 98.2562 108.33 98.6193C108.217 98.9743 108.047 99.2809 107.805 99.523C107.571 99.765 107.257 99.9587 106.869 100.088C106.474 100.225 105.982 100.298 105.393 100.306C104.465 100.322 103.755 100.152 103.263 99.7892C102.778 99.4342 102.569 98.8614 102.633 98.0787C102.658 97.8044 102.682 97.522 102.706 97.2396C103.456 97.2154 104.207 97.1993 104.957 97.1912V97.1751ZM96.6788 94.0042C96.7756 93.1409 97.0823 92.4954 97.5906 92.0597C98.0909 91.6321 98.8572 91.382 99.8819 91.3416C100.761 91.3013 101.423 91.4788 101.867 91.8499C102.319 92.2211 102.504 92.802 102.44 93.5927C102.407 93.98 102.311 94.3269 102.173 94.6174C102.036 94.9079 101.859 95.1822 101.657 95.4242C101.455 95.6663 101.229 95.8922 100.979 96.0939C100.721 96.3037 100.455 96.5054 100.181 96.7152C99.9062 96.925 99.64 97.1428 99.3818 97.3768C99.1236 97.6108 98.8814 97.869 98.6555 98.1594C98.5748 98.2643 98.5345 98.345 98.5023 98.4095C98.4781 98.4579 98.4376 98.4902 98.4134 98.5386C98.3892 98.579 98.3732 98.6193 98.3652 98.6677C99.5432 98.6274 100.729 98.587 101.923 98.5548C101.875 99.1115 101.818 99.6601 101.778 100.217C99.769 100.273 97.7681 100.338 95.7591 100.41C95.7752 100.233 95.7993 100.047 95.8235 99.8618C95.8961 99.2325 96.0495 98.7 96.2835 98.2401C96.5094 97.7963 96.7756 97.3929 97.0822 97.0621C97.3969 96.7232 97.7196 96.4328 98.0665 96.1827C98.4135 95.9325 98.7281 95.6824 99.0266 95.4323C99.3171 95.1903 99.5674 94.924 99.7771 94.6416C99.9788 94.3673 100.108 94.0365 100.14 93.6653C100.164 93.4555 100.14 93.27 100.084 93.0925C100.027 92.923 99.8659 92.8423 99.5916 92.8504C99.4463 92.8504 99.3252 92.8827 99.2364 92.9392C99.1477 92.9956 99.075 93.0602 99.0266 93.1409C98.9782 93.2216 98.938 93.3103 98.9218 93.4152C98.9057 93.512 98.8814 93.6169 98.8734 93.7137C98.8411 94.0123 98.8089 94.3027 98.7847 94.6013C98.0586 94.6335 97.3403 94.6577 96.6142 94.69C96.6465 94.456 96.6627 94.2301 96.6869 93.9961L96.6788 94.0042ZM91.8216 98.6597C91.7893 98.9017 91.8217 99.0469 91.9185 99.1115C92.0234 99.176 92.1525 99.2002 92.3058 99.1922C92.451 99.1922 92.5882 99.1438 92.7092 99.0711C92.8383 98.9905 92.911 98.8372 92.9352 98.5951C93.04 97.7802 93.1449 96.9734 93.2497 96.1585C93.3546 95.3435 93.4596 94.5367 93.5564 93.7218C93.5887 93.4798 93.5483 93.3265 93.4514 93.27C93.3466 93.2054 93.2256 93.1812 93.0803 93.1893C92.9351 93.1974 92.7979 93.2458 92.6769 93.3184C92.5559 93.3991 92.4833 93.5524 92.451 93.7944C92.3461 94.6013 92.2332 95.4162 92.1283 96.223C92.0234 97.0298 91.9184 97.8447 91.8055 98.6516L91.8216 98.6597ZM90.1355 94.0929C90.2323 93.4152 90.5469 92.8504 91.0794 92.4228C91.628 91.9871 92.3542 91.745 93.282 91.6805C94.218 91.616 94.8877 91.7773 95.3234 92.1565C95.751 92.5277 95.9365 93.0602 95.8558 93.746C95.759 94.5125 95.6782 95.279 95.5895 96.0455C95.5007 96.812 95.404 97.5785 95.3153 98.345C95.2346 99.0308 94.9198 99.5875 94.3792 100.007C93.8306 100.427 93.0804 100.661 92.1122 100.701C91.1601 100.749 90.4419 100.588 89.9982 100.209C89.5544 99.8376 89.377 99.3132 89.4738 98.6354C89.5787 97.877 89.6996 97.1186 89.8045 96.3602C89.9094 95.6017 90.0225 94.8433 90.1274 94.0849L90.1355 94.0929ZM83.6242 94.8998C83.7614 94.0607 84.1002 93.4233 84.6328 92.9795C85.1653 92.5358 85.9398 92.2534 86.9887 92.1646C87.8681 92.0839 88.5378 92.2211 88.9735 92.568C89.4092 92.9069 89.5787 93.4717 89.4576 94.2462C89.4012 94.6335 89.2881 94.9724 89.1348 95.2629C88.9815 95.5533 88.7879 95.8277 88.57 96.0697C88.3522 96.3118 88.1102 96.5457 87.8359 96.7555C87.5696 96.9653 87.2872 97.1751 87.0048 97.3929C86.7224 97.6027 86.4319 97.8286 86.1657 98.0626C85.8994 98.2966 85.6332 98.5628 85.3911 98.8533C85.3105 98.9582 85.254 99.0389 85.2217 99.1034C85.1975 99.1518 85.1652 99.1841 85.1329 99.2325C85.1087 99.2729 85.0846 99.3132 85.0766 99.3535C86.2707 99.2729 87.4728 99.2002 88.6589 99.1276C88.5863 99.6682 88.5055 100.217 88.4249 100.757C86.4078 100.87 84.3745 100.999 82.3574 101.129C82.3897 100.951 82.4221 100.774 82.4463 100.596C82.5511 99.9829 82.7124 99.4584 82.9706 99.0147C83.2288 98.5709 83.5193 98.1836 83.8502 97.8447C84.181 97.5139 84.5279 97.2154 84.891 96.9492C85.246 96.691 85.5849 96.4328 85.8834 96.1827C86.1981 95.9245 86.4643 95.6663 86.6902 95.3839C86.9081 95.1096 87.0453 94.7868 87.1017 94.4238C87.134 94.222 87.1259 94.0365 87.0775 93.8751C87.0291 93.7057 86.8676 93.6411 86.5933 93.6653C86.44 93.6815 86.319 93.7137 86.2303 93.7702C86.1335 93.8267 86.0608 93.8993 86.0043 93.9719C85.9479 94.0526 85.9076 94.1414 85.8753 94.2382C85.8511 94.335 85.8269 94.4318 85.8107 94.5286C85.7623 94.8191 85.722 95.1015 85.6736 95.392C84.9313 95.4484 84.2133 95.513 83.479 95.5695C83.5194 95.3435 83.5596 95.1176 83.5919 94.8917L83.6242 94.8998Z" fill="white"/>
<path d="M71.8851 196.294L47.1636 220.088H29.3809L55.9661 160.817H72.9017L99.3983 220.088H81.4462L71.877 196.294H71.8851ZM64.3491 177.414L56.7326 196.294H71.8851L64.3491 177.414Z" fill="url(#paint0_linear_147_1345)"/>
<path d="M116.092 160.817V205.863H144.453L140.168 220.088H99.3262V160.817H116.092Z" fill="url(#paint1_linear_147_1345)"/>
<path d="M163.76 160.817V205.863H192.121L187.836 220.088H146.994V160.817H163.76Z" fill="url(#paint2_linear_147_1345)"/>
<path d="M41.25 252.572C37.1835 249.522 32.5281 248.505 27.3643 248.505C23.2978 248.505 19.3202 249.772 19.3202 252.91C19.3202 256.977 23.2978 257.566 29.1393 258.163C40.9111 259.43 53.1831 264.174 53.1831 277.801C53.1831 291.429 40.4835 297.02 27.1868 297.109C16.5204 297.198 8.89573 295.334 0.690186 286.693L9.92037 276.107C15.7619 281.779 22.2811 282.796 27.2755 282.796C32.7781 282.796 36.5864 280.851 36.5864 277.543C36.5864 274.582 33.1977 272.718 26.6784 272.121C13.7206 270.935 2.54595 267.635 2.54595 252.902C2.54595 240.372 14.826 234.95 27.3562 234.95C36.2476 234.95 43.1864 236.983 49.5362 241.978L41.2419 252.563L41.25 252.572Z" fill="url(#paint3_linear_147_1345)"/>
<path d="M53.9578 236.144V249.94H105.265V236.144H53.9578ZM71.2321 295.406H87.9096V253.031C78.6955 253.031 71.2321 260.502 71.2321 269.708V295.406Z" fill="url(#paint4_linear_147_1345)"/>
<path d="M138.434 271.62L113.712 295.414H95.9294L122.515 236.144H139.45L165.947 295.414H147.995L138.426 271.62H138.434ZM130.898 252.74L123.281 271.62H138.434L130.898 252.74Z" fill="url(#paint5_linear_147_1345)"/>
<path d="M220.812 295.414H202.351L182.705 263.746V295.414H165.939V236.144H194.896C210.048 236.144 217.923 245.882 217.923 256.549C217.923 263.826 215.382 270.007 205.393 274.412L220.804 294.389V295.406L220.812 295.414ZM182.713 249.529V263.754H195.074C199.479 263.754 201.423 260.454 201.423 256.895C201.423 253.337 199.309 249.529 194.904 249.529H182.713Z" fill="url(#paint6_linear_147_1345)"/>
<defs>
<linearGradient id="paint0_linear_147_1345" x1="29.3809" y1="190.444" x2="99.3983" y2="190.444" gradientUnits="userSpaceOnUse">
<stop/>
<stop offset="1" stop-color="#212121"/>
</linearGradient>
<linearGradient id="paint1_linear_147_1345" x1="99.3262" y1="190.444" x2="144.453" y2="190.444" gradientUnits="userSpaceOnUse">
<stop/>
<stop offset="1" stop-color="#212121"/>
</linearGradient>
<linearGradient id="paint2_linear_147_1345" x1="146.994" y1="190.444" x2="192.121" y2="190.444" gradientUnits="userSpaceOnUse">
<stop/>
<stop offset="1" stop-color="#212121"/>
</linearGradient>
<linearGradient id="paint3_linear_147_1345" x1="0.690186" y1="266.023" x2="53.1831" y2="266.023" gradientUnits="userSpaceOnUse">
<stop/>
<stop offset="1" stop-color="#212121"/>
</linearGradient>
<linearGradient id="paint4_linear_147_1345" x1="53.9578" y1="265.767" x2="105.265" y2="265.767" gradientUnits="userSpaceOnUse">
<stop/>
<stop offset="1" stop-color="#212121"/>
</linearGradient>
<linearGradient id="paint5_linear_147_1345" x1="95.9294" y1="265.771" x2="165.947" y2="265.771" gradientUnits="userSpaceOnUse">
<stop/>
<stop offset="1" stop-color="#212121"/>
</linearGradient>
<linearGradient id="paint6_linear_147_1345" x1="165.939" y1="265.771" x2="220.812" y2="265.771" gradientUnits="userSpaceOnUse">
<stop/>
<stop offset="1" stop-color="#212121"/>
</linearGradient>
</defs>
</svg>
