<svg width="743" height="114" viewBox="0 0 743 114" fill="none" xmlns="http://www.w3.org/2000/svg">
<path fill-rule="evenodd" clip-rule="evenodd" d="M34.83 92.2001L21.24 93.5801L22.76 85.2201L6.98 77.2401L9.41 70.38L6.35 53.92L0 47.65L1.14 47.16C3.34 46.21 5.84 45.52 8.15 44.91C11.2 44.11 14.32 43.4 17.42 42.79V25.1901L17.88 24.9601C20.62 23.5901 23.41 22.29 26.19 21.02C30.7 18.97 35.25 16.97 39.81 15.03C45.16 5.75003 55.03 0 65.78 0C76.53 0 86.41 5.74003 91.75 15.03C96.31 16.97 100.86 18.97 105.37 21.02C108.16 22.29 110.95 23.5801 113.68 24.9601L114.14 25.1901V42.79C117.24 43.4 120.37 44.11 123.41 44.91C125.73 45.52 128.22 46.21 130.42 47.16L131.56 47.65L125.21 53.92L122.15 70.38L124.58 77.2401L108.8 85.2201L110.32 93.5801L96.73 92.2001C96.3 92.8201 95.8 93.44 95.34 94C93.74 95.92 91.94 97.7101 90.07 99.3701C83.12 105.52 74.66 110.22 66.08 113.65L65.77 113.77L65.46 113.65C56.87 110.22 48.42 105.52 41.47 99.3701C39.6 97.7101 37.8 95.92 36.2 94C35.73 93.44 35.23 92.8201 34.81 92.2001" fill="#030E80"/>
<path fill-rule="evenodd" clip-rule="evenodd" d="M91.19 15.6898C86.2 6.82982 76.7 0.839844 65.8 0.839844C54.9 0.839844 45.41 6.82982 40.41 15.6898C37.06 17.1198 25.47 22.0998 18.26 25.7098V43.4799C18.26 43.4799 6.66997 45.6898 1.46997 47.9198L7.11997 53.4998L10.26 70.4298L7.99997 76.8098L23.68 84.7399L22.24 92.6199L35.23 91.2998C35.23 91.2998 43.11 103.79 65.79 112.86C88.47 103.79 96.35 91.2998 96.35 91.2998L109.34 92.6199L107.9 84.7399L123.58 76.8098L121.32 70.4298L124.46 53.4998L130.11 47.9198C124.91 45.6898 113.32 43.4799 113.32 43.4799V25.7098C106.11 22.0998 94.53 17.1198 91.17 15.6898" fill="white"/>
<path fill-rule="evenodd" clip-rule="evenodd" d="M37.01 25.6199C37.37 23.2299 38.02 20.9298 38.92 18.7598C35.09 20.4098 31.28 22.0898 27.49 23.8098C25.15 24.8698 22.82 25.9598 20.51 27.0898V43.1798C22.33 42.7798 24.17 42.4098 26.01 42.0798V30.5298L37.02 25.6199H37.01Z" fill="#030E80"/>
<path fill-rule="evenodd" clip-rule="evenodd" d="M38.5801 40.3103C37.5001 37.4803 36.8601 34.4503 36.7201 31.2803L31.4301 33.6703V41.1903C33.8101 40.8503 36.1901 40.5503 38.5801 40.3003" fill="#030E80"/>
<path fill-rule="evenodd" clip-rule="evenodd" d="M94.9 31.3101C94.75 34.5301 94.08 37.6101 92.97 40.4701C95.38 40.7201 97.79 41.0101 100.19 41.3401V33.67L94.9 31.3101Z" fill="#030E80"/>
<path fill-rule="evenodd" clip-rule="evenodd" d="M111.11 43.1898V27.0898C108.8 25.9598 106.47 24.8798 104.13 23.8098C100.34 22.0798 96.52 20.3998 92.7 18.7598C93.61 20.9398 94.2599 23.2498 94.6199 25.6598L105.62 30.5198V42.1698C107.46 42.4798 109.29 42.8098 111.12 43.1798" fill="#030E80"/>
<path fill-rule="evenodd" clip-rule="evenodd" d="M67.22 2.50977C67.22 2.50977 74.35 15.0498 66.98 29.5398C66.98 29.5398 68.12 31.6998 71.96 35.8098C71.96 35.8098 83.81 20.6298 70.37 2.75977L67.21 2.50977H67.22Z" fill="#FC4B0B"/>
<path fill-rule="evenodd" clip-rule="evenodd" d="M73.51 3.55981L75.41 4.14978C75.41 4.14978 81.78 9.20981 84.25 18.0598C86.47 26.0398 84.23 34.3598 81.24 39.5798C79.72 39.4998 78.19 39.4299 76.67 39.3699C75.56 38.7299 74.39 37.9698 73.51 37.1798C73.51 37.1798 78.26 31.5398 78.8 21.1998C79.33 10.8598 73.51 3.5498 73.51 3.5498" fill="#030E80"/>
<path fill-rule="evenodd" clip-rule="evenodd" d="M80.89 7.02002C80.89 7.02002 87.44 10.77 91.14 19.16C94.23 26.16 93.61 34.6901 91.38 40.3501C88.75 40.1001 86.12 39.8901 83.48 39.7201C86.27 34.6001 91.59 21.2 80.89 7.02002Z" fill="#FC4B0B"/>
<path fill-rule="evenodd" clip-rule="evenodd" d="M73.07 39.2599C70.44 37.2899 67.85 34.6799 65.61 31.1999C64.45 31.0499 59.87 31.5599 58.21 32.0999C58.21 32.0999 59.66 35.5199 63.14 39.1399C64.11 39.1399 65.08 39.1399 66.05 39.1399C68.39 39.1499 70.72 39.1898 73.06 39.2498" fill="#FC4B0B"/>
<path fill-rule="evenodd" clip-rule="evenodd" d="M51.08 39.4298C50.44 38.4298 49.9 37.4498 49.46 36.5198C49.46 36.5198 52.91 33.9698 56.4 32.7598C57.29 35.0598 58.6 37.2098 60.25 39.1698C57.2 39.2098 54.14 39.2898 51.09 39.4298" fill="#030E80"/>
<path fill-rule="evenodd" clip-rule="evenodd" d="M45.8101 39.7201C46.4101 39.0701 47.0701 38.41 47.7901 37.79C47.7901 37.79 48.0801 38.46 48.7001 39.54C47.7401 39.59 46.7801 39.6501 45.8101 39.7201Z" fill="#FC4B0B"/>
<path fill-rule="evenodd" clip-rule="evenodd" d="M43.11 39.9203C46.17 36.2503 53.28 29.6104 64.99 29.1104C65.9 27.4504 67.06 24.4503 67.7 22.4603C67.7 22.4603 48.94 20.3504 40.21 39.8504L40.36 40.1703C41.28 40.0803 42.2 40.0003 43.11 39.9303" fill="#FC4B0B"/>
<path fill-rule="evenodd" clip-rule="evenodd" d="M39.33 37.01L38.91 34.9501C38.91 34.9501 40.14 26.9901 46.64 20.4901C53.14 14.0001 62.21 12.1501 68.25 12.7101C68.25 12.7101 68.61 17.13 68.05 20.43C68.05 20.43 59.7 19.5101 52.11 23.7401C42.84 28.3501 39.33 37 39.33 37" fill="#030E80"/>
<path fill-rule="evenodd" clip-rule="evenodd" d="M38.35 29.2299C38.91 13.7699 50.8 3.10977 64.94 2.50977C64.94 2.50977 67.03 6.21981 67.85 10.5598C67.85 10.5598 47.41 8.47986 38.35 29.2299Z" fill="#FC4B0B"/>
<path fill-rule="evenodd" clip-rule="evenodd" d="M65.8001 110.47C73.7701 107.2 81.6101 102.79 88.0701 97.0701C89.8201 95.5201 91.5201 93.8401 93.0201 92.0401C93.5101 91.4501 94.0601 90.7801 94.4701 90.1301L95.2101 88.9601L106.62 90.1202L105.33 81.8201L107.55 82.4401L120.83 75.7201L119.03 70.6301L122.41 52.4201L126.04 48.8301C124.91 48.4801 123.76 48.1701 122.66 47.8801C119.46 47.0401 116.16 46.3001 112.91 45.6801L111.1 45.3301C96.55 42.3801 81.3901 41.3001 66.0501 41.2201C50.7101 41.1401 35.1701 42.0401 20.5001 45.3301L18.6901 45.6801C15.4401 46.3001 12.1401 47.0401 8.94006 47.8801C7.84006 48.1701 6.70006 48.4801 5.56006 48.8301L9.19006 52.4201L12.5701 70.6301L10.7701 75.7201L24.0501 82.4401L26.2701 81.8201L24.9801 90.1202L36.3901 88.9601L37.1301 90.1301C37.5401 90.7801 38.0901 91.4501 38.5801 92.0401C40.0801 93.8401 41.7701 95.5201 43.5301 97.0701C49.9901 102.79 57.8301 107.2 65.8001 110.47Z" fill="#030E80"/>
<path fill-rule="evenodd" clip-rule="evenodd" d="M29.77 77.7202L32.39 77.4102L31.38 83.6501C31.38 83.6501 31.16 84.5202 32.68 85.1102C34.2 85.7002 36.41 86.6002 36.41 86.6002L29.49 87.4502C29.49 87.4502 28.21 87.7602 28.43 86.1202L29.77 77.7102V77.7202Z" fill="white"/>
<path fill-rule="evenodd" clip-rule="evenodd" d="M101.84 77.7202L99.2199 77.4102L100.23 83.6501C100.23 83.6501 100.45 84.5202 98.9299 85.1102C97.4099 85.7002 95.2 86.6002 95.2 86.6002L102.12 87.4502C102.12 87.4502 103.4 87.7602 103.18 86.1202L101.84 77.7102V77.7202Z" fill="white"/>
<path fill-rule="evenodd" clip-rule="evenodd" d="M105.35 46.1201C105.32 46.2601 105.41 46.4201 105.59 46.6101C105.76 46.8001 106.01 46.93 106.31 47C106.62 47.07 106.9 47.0701 107.14 46.9801C107.39 46.8901 107.51 46.78 107.54 46.64C108.3 46.84 109.07 47.04 109.82 47.26C109.77 47.48 109.67 47.7 109.53 47.91C109.39 48.12 109.18 48.3 108.9 48.42C108.6 48.55 108.24 48.62 107.77 48.64C107.31 48.65 106.75 48.57 106.06 48.41C105.37 48.25 104.82 48.07 104.4 47.84C103.99 47.62 103.67 47.38 103.47 47.13C103.27 46.88 103.11 46.6201 103.05 46.3601C102.99 46.1001 102.99 45.85 103.04 45.63C103.8 45.79 104.58 45.95 105.35 46.13M108.46 61.2C107.35 60.93 106.24 60.6501 105.14 60.3701C105.32 59.3201 105.52 58.2701 105.7 57.2201C105.89 56.1701 106.08 55.12 106.27 54.07C106.25 54.07 106.23 54.06 106.22 54.06C105.69 55.03 105.15 55.9901 104.63 56.9701C104.11 57.9501 103.58 58.95 103.07 59.94C101.88 59.71 100.69 59.48 99.5 59.27C99.81 57.23 100.12 55.2 100.44 53.16C100.75 51.13 101.07 49.09 101.37 47.05C101.89 47.15 102.41 47.2501 102.92 47.3601C103.01 47.4501 103.13 47.54 103.29 47.66C103.45 47.77 103.59 47.8801 103.77 47.9901C103.95 48.1001 104.13 48.19 104.31 48.28C104.5 48.37 104.66 48.4301 104.83 48.4701C104.68 49.4201 104.51 50.36 104.35 51.31C104.19 52.26 104.03 53.2 103.87 54.15C103.87 54.15 103.9 54.15 103.92 54.16C104.39 53.28 104.85 52.4 105.33 51.53C105.81 50.66 106.3 49.8 106.77 48.94C106.97 48.99 107.19 49.03 107.43 49.05C107.68 49.07 107.92 49.08 108.15 49.08C108.4 49.08 108.62 49.06 108.82 49.03C109.01 49 109.18 48.95 109.3 48.9C109.79 49.04 110.29 49.19 110.81 49.33C110.42 51.31 110.03 53.29 109.63 55.27C109.24 57.25 108.85 59.23 108.46 61.21V61.2ZM94.51 58.55C94.64 57.47 94.78 56.39 94.92 55.31C95.06 54.23 95.2 53.15 95.34 52.07C95.32 52.07 95.29 52.07 95.29 52.07C94.81 53.11 94.32 54.15 93.84 55.19C93.36 56.23 92.88 57.28 92.41 58.32C91.18 58.19 89.96 58.05 88.75 57.93C88.96 55.85 89.17 53.77 89.39 51.69C89.6 49.61 89.82 47.53 90.03 45.45C91.25 45.58 92.47 45.7301 93.69 45.8701C93.56 46.9601 93.43 48.04 93.3 49.13C93.17 50.22 93.05 51.3 92.92 52.39C92.92 52.39 92.95 52.39 92.97 52.39C93.45 51.35 93.94 50.31 94.43 49.27C94.92 48.23 95.42 47.2 95.93 46.17C97.19 46.36 98.48 46.56 99.74 46.77C99.45 48.82 99.15 50.86 98.85 52.9C98.55 54.95 98.26 56.99 97.96 59.04C96.81 58.87 95.67 58.71 94.52 58.54L94.51 58.55ZM82.29 44.79C82.23 45.58 82.18 46.36 82.12 47.15C82.07 47.93 82.02 48.72 81.95 49.51C82.68 49.56 83.41 49.61 84.13 49.65C84.19 48.87 84.26 48.08 84.32 47.3C84.38 46.52 84.43 45.73 84.49 44.95C85.76 45.06 87.03 45.17 88.3 45.28C88.1 47.37 87.9 49.45 87.7 51.54C87.5 53.62 87.31 55.71 87.12 57.8C85.92 57.7 84.71 57.61 83.52 57.51C83.58 56.62 83.64 55.7301 83.72 54.84C83.79 53.95 83.86 53.06 83.93 52.16C83.21 52.12 82.49 52.07 81.77 52.03C81.7 52.93 81.64 53.8201 81.58 54.7201C81.52 55.6101 81.46 56.51 81.4 57.4C80.19 57.34 78.99 57.27 77.78 57.21C77.89 55.1 77.99 53 78.11 50.89C78.22 48.79 78.33 46.68 78.44 44.57C79.71 44.64 81 44.71 82.27 44.79H82.29ZM66.83 47.7201C66.83 47.1101 66.95 46.5701 67.2 46.1001C67.45 45.6401 67.8 45.26 68.24 44.96C68.68 44.66 69.21 44.45 69.82 44.3C70.42 44.16 71.09 44.0901 71.79 44.1001C72.52 44.1201 73.18 44.22 73.77 44.39C74.36 44.56 74.88 44.8001 75.31 45.1201C75.74 45.4401 76.06 45.83 76.29 46.31C76.52 46.78 76.62 47.33 76.59 47.93C76.57 48.32 76.56 48.7201 76.53 49.1101C75.28 49.0601 74.04 49.0201 72.77 48.9801C72.78 48.5001 72.8 48.03 72.81 47.55C72.81 47.45 72.81 47.33 72.79 47.19C72.77 47.05 72.74 46.93 72.67 46.8C72.6 46.68 72.51 46.5801 72.36 46.4901C72.22 46.4001 72.01 46.3601 71.71 46.3501C71.44 46.3501 71.22 46.39 71.08 46.46C70.93 46.54 70.8 46.64 70.73 46.75C70.66 46.87 70.62 46.99 70.61 47.13C70.6 47.27 70.59 47.3801 70.59 47.4901C70.57 48.5401 70.55 49.58 70.53 50.63C70.51 51.67 70.49 52.72 70.48 53.76C70.48 53.84 70.47 53.95 70.48 54.09C70.48 54.2301 70.52 54.3601 70.59 54.4801C70.66 54.6101 70.76 54.71 70.91 54.8C71.05 54.89 71.25 54.94 71.53 54.94C71.79 54.94 72 54.9 72.14 54.82C72.29 54.73 72.39 54.63 72.46 54.51C72.53 54.38 72.58 54.2601 72.59 54.1201C72.6 53.9901 72.62 53.88 72.62 53.8C72.63 53.18 72.66 52.57 72.67 51.95C73.92 51.99 75.15 52.03 76.38 52.07C76.37 52.6 76.33 53.14 76.31 53.67C76.27 54.81 75.8 55.69 74.95 56.32C74.09 56.95 72.94 57.23 71.47 57.2C70.02 57.18 68.88 56.85 68.05 56.19C67.21 55.53 66.79 54.6301 66.8 53.4801C66.8 52.5201 66.8 51.55 66.8 50.59C66.8 49.63 66.81 48.66 66.82 47.7L66.83 47.7201ZM58.8 51.77C58.77 50.96 58.74 50.14 58.72 49.32C59.59 49.3 60.49 49.28 61.39 49.27C61.38 48.68 61.36 48.09 61.35 47.5C61.35 47.4 61.33 47.28 61.32 47.14C61.3 47.01 61.25 46.88 61.18 46.76C61.11 46.65 61.01 46.54 60.86 46.46C60.71 46.38 60.5 46.34 60.21 46.34C59.94 46.34 59.73 46.3901 59.57 46.4801C59.42 46.5601 59.31 46.67 59.25 46.79C59.18 46.91 59.13 47.04 59.14 47.18C59.14 47.32 59.14 47.44 59.14 47.54C59.15 47.91 59.16 48.28 59.19 48.66C57.92 48.69 56.68 48.73 55.42 48.77C55.4 48.48 55.39 48.19 55.38 47.9C55.35 47.28 55.46 46.74 55.68 46.26C55.9 45.78 56.24 45.39 56.65 45.07C57.08 44.75 57.6 44.51 58.2 44.34C58.79 44.17 59.45 44.08 60.16 44.06C60.88 44.05 61.54 44.12 62.14 44.27C62.74 44.42 63.27 44.64 63.72 44.94C64.16 45.24 64.5 45.62 64.75 46.09C65 46.56 65.14 47.09 65.14 47.71C65.14 48.67 65.14 49.6401 65.14 50.6101C65.14 51.5701 65.16 52.54 65.16 53.5C65.16 54.64 64.74 55.5501 63.9 56.2201C63.07 56.8801 61.93 57.22 60.48 57.25C59.02 57.28 57.86 56.9901 57.01 56.3701C56.15 55.7401 55.68 54.86 55.63 53.71C55.61 53.28 55.59 52.85 55.58 52.42C56.81 52.38 58.05 52.33 59.29 52.3C59.3 52.81 59.31 53.33 59.33 53.84C59.33 53.92 59.34 54.03 59.35 54.17C59.36 54.31 59.4 54.43 59.47 54.56C59.54 54.68 59.65 54.7901 59.79 54.8701C59.95 54.9601 60.15 55.0001 60.42 54.9901C60.69 54.9901 60.89 54.9401 61.03 54.8501C61.17 54.7601 61.26 54.65 61.32 54.53C61.38 54.4 61.43 54.27 61.44 54.14C61.45 54 61.46 53.89 61.46 53.81C61.44 53.12 61.44 52.4301 61.42 51.7401C60.54 51.7501 59.65 51.77 58.79 51.79L58.8 51.77ZM53.16 44.5C53.25 46.22 53.34 47.93 53.43 49.65C53.52 51.36 53.61 53.08 53.7 54.79C54.04 54.78 54.37 54.76 54.72 54.75C54.76 55.57 54.81 56.4001 54.84 57.2201C53.82 57.2601 52.81 57.3101 51.79 57.3701C49.88 57.4801 47.97 57.6 46.06 57.75C45.05 57.83 44.05 57.92 43.05 58C42.97 57.18 42.88 56.35 42.81 55.53C43.1 55.5 43.4 55.48 43.72 55.45C43.97 54.88 44.14 54.18 44.22 53.34C44.3 52.5 44.33 51.61 44.32 50.66C44.3 49.71 44.26 48.75 44.18 47.77C44.1 46.8 44.04 45.88 43.99 45.03C47.04 44.82 50.08 44.64 53.16 44.5ZM50.01 55C49.92 53.64 49.82 52.29 49.74 50.93C49.65 49.57 49.56 48.2201 49.47 46.8601C48.85 46.8901 48.24 46.9301 47.64 46.9701C47.67 47.6701 47.68 48.41 47.69 49.19C47.71 49.97 47.69 50.7301 47.67 51.4701C47.65 52.2101 47.63 52.9 47.56 53.54C47.49 54.19 47.4 54.73 47.25 55.17C48.16 55.11 49.08 55.05 50.01 55ZM34.91 45.88C35 46.68 35.1 47.48 35.2 48.28C35.3 49.08 35.4 49.88 35.51 50.68C36.21 50.6 36.93 50.52 37.64 50.44C37.56 49.64 37.46 48.84 37.37 48.04C37.28 47.24 37.18 46.44 37.09 45.64C38.35 45.52 39.6 45.4 40.86 45.29C41.07 47.42 41.28 49.56 41.5 51.69C41.71 53.82 41.93 55.96 42.14 58.09C40.96 58.22 39.76 58.3601 38.58 58.4901C38.47 57.5801 38.36 56.67 38.26 55.76C38.15 54.85 38.06 53.94 37.96 53.02C37.25 53.1 36.54 53.18 35.84 53.26C35.95 54.17 36.06 55.0801 36.17 55.9901C36.29 56.9001 36.4 57.8101 36.52 58.7201C35.34 58.8901 34.15 59.0701 32.97 59.2401C32.67 57.0901 32.37 54.93 32.07 52.78C31.77 50.63 31.49 48.47 31.19 46.32C32.43 46.17 33.68 46.0201 34.93 45.8701L34.91 45.88ZM24.25 47.34C24.54 48.05 24.83 48.7601 25.11 49.4701C25.4 50.1801 25.68 50.88 25.98 51.59C25.98 51.59 26.01 51.59 26.03 51.59C26.07 50.82 26.14 50.06 26.2 49.3C26.26 48.54 26.31 47.78 26.39 47.02C27.65 46.83 28.91 46.6501 30.18 46.4801C29.86 47.8101 29.54 49.16 29.23 50.5C28.92 51.85 28.62 53.21 28.33 54.56C28.47 55.45 28.59 56.3501 28.73 57.2401C28.87 58.1301 29.02 59.02 29.15 59.92C27.98 60.14 26.82 60.37 25.67 60.64C25.52 59.78 25.38 58.91 25.24 58.04C25.09 57.18 24.94 56.31 24.79 55.45C24.09 54.23 23.37 52.99 22.66 51.76C21.95 50.52 21.22 49.28 20.48 48.02C21.74 47.8 23 47.5801 24.26 47.3701L24.25 47.34Z" fill="white"/>
<path fill-rule="evenodd" clip-rule="evenodd" d="M100.49 52.8303C101.65 53.0103 102.82 53.2103 103.99 53.4203C103.95 53.6603 103.91 53.9003 103.87 54.1403C103.87 54.1403 103.9 54.1403 103.92 54.1503C104.04 53.9203 104.16 53.7003 104.28 53.4703C106.09 53.8003 107.93 54.1603 109.77 54.5503L109.63 55.2502C109.24 57.2302 108.85 59.2103 108.46 61.1903C107.35 60.9203 106.24 60.6404 105.14 60.3604C105.32 59.3104 105.52 58.2603 105.7 57.2103C105.89 56.1603 106.08 55.1103 106.27 54.0603C106.25 54.0603 106.23 54.0503 106.22 54.0503C105.69 55.0203 105.15 55.9803 104.63 56.9603C104.11 57.9403 103.58 58.9403 103.07 59.9303C101.88 59.7003 100.69 59.4703 99.5 59.2603C99.81 57.2203 100.12 55.1903 100.44 53.1503L100.49 52.8203V52.8303ZM95.34 52.0903C96.51 52.2403 97.7 52.4103 98.89 52.5803L98.84 52.9003C98.54 54.9503 98.25 56.9903 97.95 59.0403C96.8 58.8703 95.66 58.7103 94.51 58.5403C94.64 57.4603 94.78 56.3803 94.92 55.3003C95.06 54.2303 95.2 53.1603 95.34 52.0903ZM89.41 51.4203C90.59 51.5403 91.78 51.6603 92.98 51.8003C92.96 51.9903 92.93 52.1902 92.91 52.3802C92.91 52.3802 92.94 52.3802 92.96 52.3802L93.22 51.8303C93.9 51.9103 94.59 52.0003 95.28 52.0803C94.8 53.1103 94.32 54.1403 93.84 55.1703C93.36 56.2103 92.88 57.2603 92.41 58.3003C91.18 58.1703 89.96 58.0303 88.75 57.9103C88.96 55.8303 89.17 53.7503 89.39 51.6703L89.42 51.4103L89.41 51.4203ZM78.14 50.6204C81.25 50.7604 84.46 50.9703 87.74 51.2603L87.71 51.5303C87.51 53.6103 87.32 55.7003 87.13 57.7903C85.93 57.6903 84.72 57.6002 83.53 57.5002C83.59 56.6102 83.65 55.7203 83.73 54.8303C83.8 53.9403 83.87 53.0503 83.94 52.1503C83.22 52.1103 82.5 52.0603 81.78 52.0203C81.71 52.9203 81.65 53.8103 81.59 54.7103C81.53 55.6003 81.47 56.5003 81.41 57.3903C80.2 57.3303 79 57.2603 77.79 57.2003C77.9 55.0903 78 52.9902 78.12 50.8802V50.6302L78.14 50.6204ZM66.81 50.3604C68.04 50.3604 69.28 50.3703 70.55 50.3903V50.6503C70.52 51.6903 70.51 52.7403 70.49 53.7803C70.49 53.8603 70.48 53.9704 70.49 54.1104C70.49 54.2504 70.53 54.3802 70.6 54.5002C70.67 54.6302 70.77 54.7303 70.92 54.8203C71.06 54.9103 71.26 54.9603 71.54 54.9603C71.8 54.9603 72.01 54.9203 72.15 54.8403C72.3 54.7503 72.4 54.6503 72.47 54.5303C72.54 54.4003 72.59 54.2803 72.6 54.1403C72.61 54.0103 72.63 53.9003 72.63 53.8203C72.64 53.2003 72.67 52.5903 72.68 51.9703C73.93 52.0103 75.16 52.0503 76.39 52.0903C76.38 52.6203 76.34 53.1603 76.32 53.6903C76.28 54.8303 75.81 55.7103 74.96 56.3403C74.1 56.9703 72.95 57.2503 71.48 57.2203C70.03 57.2003 68.89 56.8703 68.06 56.2103C67.22 55.5503 66.8 54.6502 66.81 53.5002C66.81 52.5402 66.81 51.5704 66.81 50.6104V50.3604ZM58.75 50.4303C59.53 50.4103 60.33 50.4003 61.13 50.3903C62.44 50.3703 63.78 50.3604 65.13 50.3604V50.6104C65.13 51.5704 65.15 52.5402 65.15 53.5002C65.15 54.6402 64.73 55.5503 63.89 56.2203C63.06 56.8803 61.92 57.2202 60.47 57.2502C59.01 57.2802 57.85 56.9904 57 56.3704C56.14 55.7404 55.67 54.8603 55.62 53.7103C55.6 53.2803 55.58 52.8503 55.57 52.4203C56.8 52.3803 58.04 52.3303 59.28 52.3003C59.29 52.8103 59.3 53.3303 59.32 53.8403C59.32 53.9203 59.33 54.0303 59.34 54.1703C59.35 54.3103 59.39 54.4303 59.46 54.5603C59.53 54.6803 59.64 54.7904 59.78 54.8704C59.94 54.9604 60.14 55.0004 60.41 54.9904C60.68 54.9904 60.88 54.9403 61.02 54.8503C61.16 54.7603 61.25 54.6503 61.31 54.5303C61.37 54.4003 61.42 54.2703 61.43 54.1403C61.44 54.0003 61.45 53.8903 61.45 53.8103C61.43 53.1203 61.43 52.4304 61.41 51.7404C60.53 51.7504 59.64 51.7703 58.78 51.7903C58.76 51.3403 58.75 50.9003 58.73 50.4503L58.75 50.4303ZM44.32 51.1204C45.41 51.0404 46.53 50.9603 47.69 50.8903V51.4603C47.66 52.2003 47.63 52.8903 47.57 53.5303C47.5 54.1803 47.41 54.7203 47.26 55.1603C48.17 55.1003 49.09 55.0404 50.02 54.9904C49.93 53.6304 49.83 52.2803 49.75 50.9203V50.7603C50.96 50.6903 52.21 50.6303 53.49 50.5803C53.56 51.9803 53.64 53.3803 53.71 54.7803C54.05 54.7703 54.38 54.7504 54.73 54.7404C54.77 55.5604 54.82 56.3903 54.85 57.2103C53.83 57.2503 52.82 57.3004 51.8 57.3604C49.89 57.4704 47.98 57.5904 46.07 57.7404C45.06 57.8204 44.06 57.9104 43.06 57.9904C42.98 57.1704 42.89 56.3403 42.82 55.5203C43.11 55.4903 43.41 55.4703 43.73 55.4403C43.98 54.8703 44.15 54.1703 44.23 53.3303C44.3 52.6303 44.33 51.8904 44.33 51.1104L44.32 51.1204ZM32 52.3604C34.7 52.0204 37.87 51.6603 41.46 51.3503L41.49 51.6803C41.7 53.8103 41.92 55.9503 42.13 58.0803C40.95 58.2103 39.75 58.3503 38.57 58.4803C38.46 57.5703 38.35 56.6602 38.25 55.7502C38.14 54.8402 38.05 53.9303 37.95 53.0103C37.24 53.0903 36.53 53.1702 35.83 53.2502C35.94 54.1602 36.05 55.0703 36.16 55.9803C36.28 56.8903 36.39 57.8003 36.51 58.7103C35.33 58.8803 34.14 59.0603 32.96 59.2303C32.66 57.0803 32.36 54.9203 32.06 52.7703L32 52.3503V52.3604ZM28.71 52.8103C28.58 53.3903 28.46 53.9603 28.33 54.5403C28.47 55.4303 28.59 56.3303 28.73 57.2203C28.87 58.1103 29.02 59.0003 29.15 59.9003C27.98 60.1203 26.82 60.3504 25.67 60.6204C25.52 59.7604 25.38 58.8903 25.24 58.0203C25.09 57.1603 24.94 56.2903 24.79 55.4303C24.45 54.8303 24.09 54.2204 23.74 53.6104C24.93 53.4004 26.6 53.1203 28.71 52.8103Z" fill="#E5E6E7"/>
<path fill-rule="evenodd" clip-rule="evenodd" d="M95.26 61.1001C95.2 61.6601 95.14 62.2301 95.08 62.7901C94.16 62.7101 93.25 62.6201 92.33 62.5401C92.27 63.1301 92.22 63.7201 92.16 64.3101C92.11 64.9001 92.05 65.4801 92 66.0701C91.95 66.6601 91.89 67.2501 91.83 67.8401C91.78 68.4301 91.72 69.0201 91.66 69.6001C90.86 69.5301 90.04 69.4601 89.23 69.4001C89.29 68.6701 89.34 67.9401 89.4 67.2101C89.45 66.4801 89.52 65.7501 89.58 65.0201C89.64 64.2901 89.69 63.5601 89.75 62.8301C89.81 62.1001 89.86 61.37 89.93 60.64C91.7 60.79 93.47 60.9602 95.24 61.1202M85.77 69.1501C85.82 68.3801 85.86 67.6101 85.91 66.8401C85.96 66.0701 86.02 65.3001 86.06 64.5301C86.05 64.5301 86.04 64.5301 86.03 64.5301C85.74 65.2801 85.46 66.0401 85.17 66.7901C84.89 67.5401 84.6 68.3001 84.33 69.0601C83.5 69.0101 82.65 68.9601 81.82 68.9101C81.85 68.1701 81.89 67.4301 81.92 66.6901C81.95 65.9501 81.99 65.2101 82.02 64.4701C82.05 63.7301 82.08 62.99 82.11 62.25C82.14 61.51 82.17 60.7701 82.21 60.0301C83.03 60.0901 83.86 60.1501 84.69 60.2101C84.64 60.9801 84.61 61.7501 84.56 62.5301C84.51 63.3001 84.47 64.0801 84.43 64.8501C84.43 64.8501 84.45 64.8501 84.46 64.8501C84.74 64.1001 85.03 63.3401 85.31 62.5901C85.6 61.8401 85.9 61.0901 86.2 60.3401C87.06 60.4101 87.92 60.4801 88.79 60.5501C88.73 61.2801 88.67 62.02 88.62 62.75C88.57 63.48 88.52 64.2201 88.47 64.9501C88.42 65.6801 88.35 66.4101 88.3 67.1501C88.25 67.8801 88.19 68.6201 88.14 69.3501C87.33 69.2901 86.55 69.2301 85.77 69.1801V69.1501ZM73.34 66.6601C73.43 66.7301 73.49 66.7901 73.56 66.8301C73.63 66.8701 73.72 66.9001 73.83 66.9001C74 66.9001 74.12 66.8801 74.21 66.8301C74.3 66.7701 74.38 66.6601 74.47 66.4801C74.56 66.2801 74.63 65.9701 74.68 65.5401C74.72 65.1101 74.76 64.5901 74.78 63.9901C74.8 63.3901 74.83 62.7101 74.84 61.9601C74.84 61.5901 74.86 61.2001 74.87 60.8101C74.88 60.4201 74.89 60.0101 74.9 59.6001C76.96 59.7001 79.02 59.8201 81.08 59.9501C81.05 60.6901 81.02 61.4301 80.99 62.1701C80.96 62.9101 80.94 63.65 80.91 64.39C80.88 65.13 80.84 65.8702 80.82 66.6202C80.79 67.3602 80.76 68.1001 80.74 68.8401C79.92 68.8001 79.09 68.7601 78.27 68.7201C78.28 68.1001 78.3 67.4801 78.31 66.8601C78.32 66.2401 78.35 65.62 78.36 65.01C78.37 64.39 78.4 63.7701 78.41 63.1601C78.42 62.5401 78.44 61.9201 78.46 61.3001C78.05 61.2801 77.64 61.2501 77.23 61.2301C77.2 61.6001 77.19 62.0401 77.18 62.5701C77.17 63.1001 77.13 63.6501 77.09 64.2001C77.05 64.7601 77.01 65.3001 76.94 65.8101C76.86 66.3301 76.77 66.7501 76.64 67.0801C76.41 67.6801 76.11 68.0901 75.72 68.3101C75.32 68.5401 74.9 68.6302 74.47 68.6202C74.37 68.6202 74.26 68.6101 74.14 68.5801C74.03 68.5601 73.91 68.5201 73.81 68.4901C73.71 68.4501 73.62 68.4102 73.53 68.3702C73.44 68.3302 73.38 68.29 73.35 68.26C73.35 67.73 73.35 67.1901 73.35 66.6601H73.34ZM68.79 59.4001C68.8 60.0101 68.81 60.6201 68.82 61.2201C68.82 61.8301 68.85 62.4301 68.86 63.0401C68.86 63.6501 68.88 64.2501 68.89 64.8601C68.9 65.4701 68.91 66.0701 68.92 66.6801C69.15 66.6801 69.38 66.6801 69.61 66.6901C69.62 67.2701 69.63 67.8501 69.64 68.4301C68.95 68.4301 68.26 68.4101 67.57 68.4101C66.26 68.4001 64.96 68.4001 63.66 68.4001C62.97 68.4001 62.29 68.4001 61.61 68.4201C61.58 67.8401 61.55 67.2601 61.51 66.6801C61.72 66.6801 61.91 66.6801 62.13 66.6801C62.32 66.2901 62.46 65.8101 62.54 65.2301C62.62 64.6501 62.66 64.0201 62.67 63.3601C62.68 62.7001 62.67 62.0201 62.65 61.3301C62.62 60.6401 62.6 60.0001 62.59 59.4001C64.66 59.3901 66.72 59.3801 68.79 59.4201V59.4001ZM66.43 66.6501C66.42 66.1701 66.4 65.6901 66.38 65.2101C66.37 64.7301 66.35 64.2501 66.34 63.7701C66.33 63.2901 66.31 62.8101 66.29 62.3301C66.28 61.8501 66.26 61.37 66.25 60.89C65.83 60.89 65.43 60.89 65.01 60.89C65.01 61.38 65.01 61.9001 64.99 62.4501C64.98 63.0001 64.96 63.5301 64.93 64.0501C64.9 64.5701 64.85 65.05 64.79 65.51C64.74 65.96 64.65 66.34 64.54 66.64C65.16 66.64 65.79 66.64 66.42 66.64L66.43 66.6501ZM56.49 64.7901C56.45 64.2201 56.4 63.6501 56.36 63.0701C56.95 63.0501 57.55 63.03 58.15 63.01C58.12 62.6 58.09 62.1801 58.06 61.7701C58.06 61.6901 58.04 61.61 58.02 61.51C58 61.42 57.98 61.3201 57.93 61.2401C57.88 61.1601 57.8 61.0901 57.7 61.0401C57.6 60.9901 57.45 60.9601 57.26 60.9701C57.08 60.9701 56.93 61.0101 56.84 61.0701C56.75 61.1301 56.68 61.2101 56.64 61.2901C56.6 61.3701 56.57 61.4601 56.58 61.5601C56.58 61.6601 56.59 61.7401 56.6 61.8201C56.62 62.0801 56.63 62.3401 56.66 62.6001C55.82 62.6301 54.98 62.6701 54.14 62.7101C54.12 62.5101 54.11 62.3001 54.09 62.1001C54.05 61.6701 54.11 61.2901 54.24 60.9601C54.37 60.6201 54.58 60.3402 54.86 60.1202C55.13 59.8902 55.47 59.7101 55.86 59.5901C56.26 59.4601 56.69 59.39 57.17 59.38C57.64 59.36 58.08 59.4001 58.5 59.4901C58.91 59.5801 59.27 59.7301 59.57 59.9401C59.88 60.1501 60.13 60.4101 60.31 60.7401C60.49 61.0601 60.6 61.45 60.62 61.88C60.66 62.56 60.7 63.2501 60.74 63.9301C60.78 64.6101 60.82 65.3001 60.85 65.9801C60.9 66.7901 60.65 67.4301 60.11 67.9001C59.57 68.3701 58.81 68.62 57.83 68.64C56.84 68.67 56.04 68.4601 55.44 68.0201C54.84 67.5801 54.51 66.9701 54.43 66.1601C54.4 65.8601 54.38 65.56 54.35 65.26C55.18 65.22 56.01 65.1901 56.84 65.1601C56.87 65.5201 56.9 65.8801 56.92 66.2401C56.92 66.3001 56.92 66.3701 56.95 66.4701C56.97 66.5701 56.99 66.6601 57.04 66.7401C57.09 66.8301 57.18 66.9001 57.28 66.9601C57.39 67.0201 57.53 67.0501 57.71 67.0401C57.89 67.0401 58.02 67.0001 58.1 66.9301C58.19 66.8601 58.27 66.7901 58.3 66.7001C58.33 66.6101 58.36 66.5201 58.36 66.4301C58.36 66.3401 58.36 66.2601 58.36 66.2001C58.33 65.7101 58.29 65.2301 58.26 64.7401C57.67 64.7601 57.08 64.7801 56.48 64.7901H56.49ZM48.94 65.1701C48.88 64.6101 48.81 64.0401 48.75 63.4801C49.34 63.4401 49.93 63.4002 50.53 63.3702C50.48 62.9602 50.44 62.55 50.4 62.14C50.4 62.07 50.38 61.98 50.37 61.89C50.36 61.8 50.31 61.71 50.26 61.63C50.21 61.55 50.13 61.4901 50.01 61.4301C49.91 61.3801 49.76 61.3602 49.58 61.3702C49.39 61.3802 49.26 61.4201 49.17 61.4801C49.08 61.5501 49.01 61.6201 48.98 61.7001C48.94 61.7901 48.92 61.8701 48.92 61.9701C48.92 62.0601 48.94 62.1501 48.95 62.2201C48.98 62.4801 49 62.7301 49.04 62.9901C48.2 63.0501 47.37 63.1101 46.53 63.1801C46.51 62.9801 46.49 62.7801 46.46 62.5901C46.41 62.1701 46.44 61.7901 46.56 61.4601C46.68 61.1301 46.87 60.8401 47.14 60.6101C47.41 60.3801 47.73 60.1901 48.12 60.0501C48.51 59.9101 48.95 59.8301 49.42 59.7901C49.9 59.7601 50.34 59.7901 50.75 59.8601C51.16 59.9401 51.52 60.07 51.84 60.26C52.15 60.45 52.41 60.7001 52.6 61.0201C52.79 61.3401 52.92 61.71 52.96 62.14C53.03 62.81 53.09 63.4901 53.15 64.1601C53.21 64.8301 53.28 65.5101 53.34 66.1801C53.41 66.9801 53.19 67.6201 52.67 68.1001C52.15 68.5801 51.4 68.8501 50.43 68.9001C49.44 68.9501 48.65 68.7701 48.03 68.3501C47.42 67.9401 47.05 67.3401 46.96 66.5501C46.92 66.2601 46.88 65.9601 46.85 65.6601C47.67 65.6001 48.49 65.5401 49.32 65.4901C49.35 65.8401 49.39 66.2001 49.43 66.5501C49.43 66.6101 49.45 66.6801 49.47 66.7801C49.49 66.8701 49.53 66.9601 49.58 67.0501C49.63 67.1301 49.71 67.2 49.82 67.26C49.92 67.31 50.07 67.3401 50.24 67.3301C50.42 67.3301 50.56 67.2801 50.65 67.2101C50.73 67.1501 50.79 67.0701 50.83 66.9801C50.87 66.8901 50.89 66.8001 50.89 66.7101C50.89 66.6101 50.89 66.5401 50.88 66.4801C50.83 66.0001 50.77 65.5201 50.72 65.0401C50.13 65.0701 49.54 65.11 48.96 65.14L48.94 65.1701ZM44.76 60.3301C44.84 60.9101 44.92 61.5001 44.99 62.0801C45.07 62.6601 45.15 63.2501 45.23 63.8401C45.31 64.4201 45.39 65.0101 45.47 65.6001C45.55 66.1901 45.62 66.7701 45.7 67.3601C45.93 67.3501 46.16 67.3301 46.38 67.3101C46.46 67.8701 46.53 68.44 46.6 69C45.92 69.04 45.24 69.09 44.56 69.14C43.28 69.24 41.99 69.3401 40.71 69.4501C40.04 69.5101 39.38 69.57 38.71 69.63C38.61 69.08 38.52 68.5301 38.42 67.9801C38.61 67.9601 38.81 67.9401 39.01 67.9201C39.15 67.5401 39.24 67.06 39.25 66.5C39.26 65.94 39.25 65.3401 39.18 64.7101C39.12 64.0701 39.03 63.4301 38.93 62.7801C38.83 62.1301 38.75 61.5201 38.67 60.9401C40.69 60.7201 42.71 60.5201 44.74 60.3201L44.76 60.3301ZM43.24 67.5501C43.18 67.0901 43.11 66.6301 43.05 66.1701C42.99 65.7101 42.92 65.2501 42.85 64.7901C42.78 64.3301 42.71 63.8701 42.64 63.4101C42.58 62.9501 42.5 62.4901 42.44 62.0301C42.05 62.0701 41.63 62.11 41.23 62.14C41.27 62.61 41.33 63.12 41.38 63.64C41.43 64.16 41.47 64.6801 41.49 65.1801C41.52 65.6801 41.54 66.1501 41.53 66.5901C41.53 67.0301 41.48 67.4001 41.4 67.7001C42.02 67.6401 42.63 67.5901 43.24 67.5401V67.5501Z" fill="#E5E6E7"/>
<path fill-rule="evenodd" clip-rule="evenodd" d="M44.45 90.1201C44.45 90.1201 58.63 98.1001 65.81 99.4601C72.98 98.0901 87.17 90.1201 87.17 90.1201C80.24 97.6201 65.81 104.34 65.81 104.34C65.81 104.34 51.38 97.6201 44.45 90.1201Z" fill="white"/>
<path fill-rule="evenodd" clip-rule="evenodd" d="M65.8 85.4302L66.86 88.8901L70.53 88.8602L67.56 90.9402L68.72 94.4202L65.83 92.2402L62.89 94.4202L64.06 90.9902L61.08 88.8602L64.7 88.9202L65.8 85.4302Z" fill="white"/>
<path fill-rule="evenodd" clip-rule="evenodd" d="M79.07 83.98L79.67 85.95L81.75 85.9399L80.07 87.12L80.73 89.09L79.08 87.86L77.41 89.09L78.08 87.1499L76.38 85.9399L78.44 85.97L79.07 83.98Z" fill="white"/>
<path fill-rule="evenodd" clip-rule="evenodd" d="M52.54 83.98L53.14 85.95L55.23 85.9399L53.54 87.12L54.2 89.09L52.56 87.86L50.88 89.09L51.55 87.1499L49.86 85.9399L51.92 85.97L52.54 83.98Z" fill="white"/>
<path fill-rule="evenodd" clip-rule="evenodd" d="M34.53 82.3101C34.56 82.4401 34.62 82.5701 34.73 82.6601C35.07 82.9201 38.18 84.1901 38.18 84.1901C38.18 84.1901 52.02 82.4401 65.75 82.4401C79.48 82.4401 93.32 84.1901 93.32 84.1901C93.32 84.1901 96.44 82.9201 96.77 82.6601C96.88 82.5701 96.94 82.4501 96.97 82.3201H96.9C76.18 79.7701 55.31 79.7301 34.59 82.3201H34.52L34.53 82.3101Z" fill="white"/>
<path fill-rule="evenodd" clip-rule="evenodd" d="M35.99 72.3899L34.54 81.8C44.85 80.51 55.25 79.86 65.76 79.87C76.27 79.87 86.67 80.52 96.98 81.8L95.98 72.3899C75.41 69.7999 55.42 69.8399 35.99 72.3899Z" fill="#FC4B0B"/>
<path d="M83.5201 76.32C83.6601 76.05 83.8001 75.75 83.9201 75.42C84.0401 75.09 84.1401 74.76 84.2301 74.41C84.3201 74.06 84.3801 73.72 84.4201 73.38C84.4701 73.03 84.4901 72.71 84.5001 72.4C85.1201 72.45 85.7501 72.5 86.3701 72.56C86.3601 72.92 86.3001 73.28 86.2001 73.63C86.1001 73.99 85.9701 74.34 85.8001 74.68C85.6301 75.02 85.4501 75.35 85.2401 75.68C85.0301 76 84.8101 76.3101 84.5701 76.5801C85.0201 76.6101 85.4701 76.64 85.9101 76.67C85.8901 76.37 85.8701 76.06 85.8601 75.76C86.0701 75.51 86.2601 75.22 86.4501 74.89C86.6401 74.55 86.7601 74.23 86.8201 73.92C87.0501 73.94 87.2801 73.9601 87.5101 73.9801C87.5401 74.4501 87.5801 74.92 87.6101 75.39C87.6401 75.86 87.6701 76.33 87.7001 76.8C87.9101 76.82 88.1101 76.8301 88.3301 76.8501C88.3601 77.2501 88.3901 77.65 88.4201 78.04C88.2101 78.03 88.0001 78.01 87.7901 78C87.8201 78.42 87.8501 78.83 87.8801 79.25C87.2701 79.21 86.6701 79.17 86.0601 79.13C86.0301 78.71 86.0101 78.2901 85.9801 77.8701C85.1801 77.8201 84.3701 77.7701 83.5801 77.7201C83.5601 77.2501 83.5301 76.78 83.5201 76.31M78.4901 73.82C78.4801 73.15 78.6401 72.6701 79.0001 72.3701C79.3501 72.0701 79.9301 71.94 80.7401 72C81.4301 72.05 81.9701 72.23 82.3601 72.55C82.7501 72.87 82.9601 73.33 82.9901 73.93C83.0001 74.23 82.9701 74.4801 82.9001 74.7001C82.8201 74.9201 82.7201 75.11 82.5801 75.28C82.4401 75.45 82.2801 75.61 82.1001 75.75C81.9201 75.89 81.7301 76.03 81.5401 76.18C81.3501 76.32 81.1501 76.47 80.9701 76.63C80.7901 76.79 80.6201 76.98 80.4701 77.19C80.4201 77.26 80.3901 77.33 80.3801 77.38C80.3701 77.41 80.3501 77.4401 80.3301 77.4701C80.3201 77.5001 80.3001 77.53 80.3001 77.56C81.2301 77.61 82.1701 77.6501 83.1001 77.7001C83.1201 78.1201 83.1401 78.5401 83.1601 78.9601C81.5801 78.8901 80.0001 78.82 78.4201 78.76C78.4201 78.62 78.4201 78.4801 78.4201 78.3401C78.4201 77.8501 78.4801 77.4401 78.6101 77.1001C78.7501 76.7601 78.9201 76.4801 79.1301 76.2401C79.3401 76.0001 79.5701 75.7901 79.8101 75.6201C80.0501 75.4501 80.2801 75.2801 80.4901 75.1101C80.7001 74.9401 80.8701 74.76 81.0101 74.56C81.1401 74.36 81.2001 74.1201 81.1901 73.8301C81.1901 73.6701 81.1501 73.52 81.0901 73.39C81.0301 73.25 80.8901 73.18 80.6801 73.16C80.5701 73.16 80.4801 73.1601 80.4101 73.2001C80.3401 73.2301 80.2901 73.2801 80.2601 73.3401C80.2301 73.4001 80.2101 73.47 80.2101 73.54C80.2101 73.62 80.2001 73.69 80.2101 73.77C80.2101 74 80.2201 74.2201 80.2301 74.4501C79.6601 74.4201 79.0901 74.3901 78.5301 74.3701C78.5301 74.1901 78.5201 74.0101 78.5201 73.8301L78.4901 73.82ZM75.1401 77.15C75.1401 77.34 75.1801 77.46 75.2701 77.52C75.3601 77.58 75.4601 77.6101 75.5901 77.6101C75.7101 77.6101 75.8101 77.59 75.9001 77.54C75.9801 77.49 76.0301 77.37 76.0301 77.18C76.0301 76.55 76.0301 75.91 76.0301 75.27C76.0301 74.64 76.0301 74.0001 76.0301 73.3601C76.0301 73.1701 75.9801 73.0501 75.9001 72.9901C75.8101 72.9301 75.7101 72.9 75.6001 72.9C75.4801 72.9 75.3801 72.9201 75.2901 72.9701C75.2101 73.0201 75.1701 73.1401 75.1701 73.3301V77.15H75.1401ZM73.3301 73.39C73.3301 72.85 73.5301 72.43 73.9101 72.13C74.2901 71.83 74.8401 71.6901 75.5701 71.7201C76.2901 71.7501 76.8501 71.93 77.2301 72.26C77.6101 72.59 77.8001 73.02 77.8101 73.56C77.8101 74.15 77.8301 74.7501 77.8401 75.3501C77.8401 75.9401 77.8501 76.54 77.8601 77.14C77.8601 77.67 77.6901 78.09 77.3001 78.39C76.9101 78.69 76.3401 78.83 75.5901 78.81C74.8401 78.79 74.2601 78.62 73.8701 78.3C73.4801 77.98 73.2901 77.55 73.3001 77.01C73.3001 76.41 73.3101 75.8101 73.3201 75.2101C73.3201 74.6101 73.3301 74.01 73.3401 73.41L73.3301 73.39ZM68.3201 73.53C68.3401 72.85 68.5401 72.35 68.9101 72.02C69.2801 71.7 69.8701 71.55 70.6701 71.56C71.3601 71.57 71.8901 71.74 72.2701 72.05C72.6401 72.36 72.8301 72.83 72.8201 73.44C72.8201 73.75 72.7701 74.0101 72.6801 74.2401C72.5901 74.4701 72.4701 74.6701 72.3201 74.8501C72.1701 75.0301 72.0101 75.2001 71.8201 75.3501C71.6301 75.5001 71.4301 75.66 71.2301 75.81C71.0301 75.96 70.8301 76.13 70.6401 76.3C70.4501 76.47 70.2701 76.67 70.1101 76.89C70.0601 76.97 70.0201 77.0301 70.0001 77.0801C69.9901 77.1101 69.9701 77.15 69.9501 77.18C69.9301 77.21 69.9201 77.24 69.9101 77.28C70.8401 77.28 71.7701 77.3 72.7001 77.32C72.7001 77.75 72.7001 78.1801 72.6901 78.6201C71.1101 78.6001 69.5301 78.5901 67.9601 78.5801C67.9601 78.4401 67.9601 78.29 67.9701 78.15C67.9901 77.65 68.0801 77.23 68.2301 76.88C68.3801 76.53 68.5701 76.2301 68.7901 75.9701C69.0201 75.7101 69.2601 75.5 69.5201 75.31C69.7701 75.13 70.0101 74.94 70.2301 74.76C70.4501 74.58 70.6401 74.38 70.7801 74.17C70.9201 73.96 71.0001 73.71 71.0001 73.42C71.0001 73.26 70.9801 73.1101 70.9301 72.9701C70.8801 72.8301 70.7501 72.76 70.5301 72.76C70.4101 72.76 70.3201 72.77 70.2501 72.81C70.1901 72.85 70.1301 72.9001 70.1001 72.9601C70.0701 73.0201 70.0401 73.09 70.0301 73.17C70.0301 73.25 70.0101 73.33 70.0101 73.4C70.0101 73.63 69.9901 73.8601 69.9901 74.1001C69.4201 74.1001 68.8601 74.0801 68.2901 74.0801C68.2901 73.9001 68.3001 73.71 68.3101 73.53H68.3201ZM67.5201 74.94C67.5001 75.38 67.4801 75.81 67.4701 76.25C66.5601 76.25 65.6601 76.25 64.7501 76.25C64.7801 75.81 64.8001 75.38 64.8301 74.94C65.7301 74.94 66.6201 74.94 67.5301 74.94H67.5201ZM61.2501 76.3C61.2301 76.54 61.2101 76.78 61.2001 77.02C61.2001 77.16 61.2201 77.28 61.2801 77.39C61.3401 77.5 61.4701 77.55 61.6701 77.55C61.8701 77.55 62.0001 77.49 62.0801 77.38C62.1601 77.27 62.2001 77.15 62.2101 77.01C62.2101 76.85 62.2301 76.68 62.2401 76.52C62.2501 76.32 62.2401 76.16 62.2401 76.03C62.2201 75.9 62.1701 75.8001 62.0901 75.7201C62.0101 75.6501 61.9001 75.59 61.7501 75.56C61.6101 75.53 61.4001 75.52 61.1601 75.52C61.1901 75.14 61.2201 74.7501 61.2501 74.3701C61.3601 74.3701 61.4601 74.3701 61.5701 74.3701C61.7601 74.3701 61.9501 74.3201 62.1201 74.2201C62.2801 74.1301 62.3701 73.99 62.3801 73.81C62.3901 73.62 62.4101 73.4301 62.4301 73.2401C62.4401 73.1101 62.4301 73 62.3801 72.91C62.3301 72.81 62.2301 72.76 62.0501 72.77C61.7501 72.77 61.5701 72.95 61.5401 73.3C61.5301 73.45 61.5201 73.5901 61.5101 73.7401C60.9301 73.7501 60.3501 73.76 59.7701 73.78C59.7701 73.45 59.8201 73.15 59.9101 72.88C59.9901 72.61 60.1201 72.38 60.3201 72.19C60.5101 72 60.7501 71.8501 61.0601 71.7401C61.3701 71.6301 61.7401 71.57 62.1701 71.57C62.5001 71.57 62.8001 71.59 63.0601 71.64C63.3301 71.69 63.5501 71.79 63.7301 71.92C63.9201 72.06 64.0601 72.2301 64.1501 72.4601C64.2401 72.6801 64.2701 72.96 64.2501 73.3C64.2401 73.47 64.2201 73.63 64.1901 73.78C64.1601 73.93 64.1201 74.0701 64.0501 74.2001C63.9701 74.3301 63.8701 74.45 63.7501 74.56C63.6201 74.67 63.4501 74.7701 63.2501 74.8501C63.4401 74.9101 63.6101 74.9901 63.7301 75.1001C63.8501 75.2101 63.9501 75.3301 64.0101 75.4801C64.0701 75.6201 64.1001 75.7801 64.1101 75.9501C64.1201 76.1201 64.1201 76.2901 64.1101 76.4701C64.0901 76.8301 64.0301 77.15 63.9401 77.44C63.8501 77.72 63.7201 77.96 63.5301 78.15C63.3401 78.34 63.1001 78.4901 62.7901 78.6001C62.4801 78.7101 62.0901 78.76 61.6301 78.77C60.9001 78.78 60.3401 78.6501 59.9501 78.3701C59.5701 78.0901 59.4001 77.64 59.4501 77.02C59.4701 76.8 59.4901 76.5801 59.5001 76.3601C60.0901 76.3401 60.6801 76.33 61.2701 76.32L61.2501 76.3ZM54.7301 73.8C54.8101 73.12 55.0501 72.61 55.4501 72.26C55.8401 71.92 56.4501 71.73 57.2501 71.69C57.9401 71.66 58.4601 71.8001 58.8101 72.0901C59.1701 72.3801 59.3201 72.8401 59.2601 73.4601C59.2301 73.7701 59.1601 74.04 59.0501 74.27C58.9401 74.5 58.8101 74.71 58.6401 74.9C58.4801 75.09 58.3001 75.27 58.1001 75.43C57.9001 75.59 57.6901 75.76 57.4701 75.92C57.2501 76.08 57.0401 76.26 56.8401 76.44C56.6401 76.62 56.4401 76.83 56.2701 77.06C56.2101 77.14 56.1701 77.21 56.1501 77.26C56.1301 77.3 56.1001 77.3301 56.0801 77.3601C56.0601 77.3901 56.0501 77.4301 56.0401 77.4601C56.9701 77.4301 57.9001 77.4001 58.8401 77.3701C58.8001 77.8101 58.7601 78.24 58.7201 78.68C57.1401 78.72 55.5601 78.7801 53.9801 78.8301C53.9901 78.6901 54.0101 78.54 54.0301 78.4C54.0901 77.91 54.2101 77.4801 54.3901 77.1201C54.5701 76.7701 54.7801 76.45 55.0201 76.19C55.2701 75.92 55.5201 75.69 55.8001 75.5C56.0701 75.3 56.3201 75.11 56.5601 74.91C56.7901 74.72 56.9901 74.51 57.1501 74.29C57.3101 74.07 57.4101 73.82 57.4401 73.52C57.4601 73.36 57.4401 73.21 57.3901 73.07C57.3401 72.93 57.2201 72.87 57.0001 72.88C56.8901 72.88 56.7901 72.9101 56.7201 72.9501C56.6501 72.9901 56.5901 73.0401 56.5501 73.1101C56.5101 73.1701 56.4801 73.24 56.4701 73.32C56.4601 73.4 56.4401 73.48 56.4301 73.56C56.4101 73.79 56.3801 74.02 56.3601 74.26C55.7901 74.28 55.2201 74.3001 54.6501 74.3301C54.6701 74.1501 54.6901 73.96 54.7101 73.78L54.7301 73.8ZM50.9001 77.4701C50.8701 77.6601 50.9001 77.7801 50.9801 77.8301C51.0601 77.8801 51.1701 77.9 51.2901 77.9C51.4101 77.9 51.5201 77.86 51.6101 77.8C51.7101 77.74 51.7701 77.61 51.7901 77.43C51.8701 76.79 51.9601 76.15 52.0401 75.51C52.1201 74.87 52.2001 74.2301 52.2801 73.5901C52.3001 73.4001 52.2801 73.2801 52.1901 73.2301C52.1101 73.1801 52.0101 73.16 51.9001 73.17C51.7801 73.17 51.6801 73.21 51.5801 73.27C51.4801 73.33 51.4301 73.45 51.4001 73.64C51.3201 74.28 51.2301 74.92 51.1501 75.56C51.0701 76.2 50.9801 76.8401 50.9001 77.4701ZM49.5701 73.8701C49.6501 73.3301 49.8901 72.89 50.3101 72.56C50.7401 72.22 51.3201 72.0201 52.0501 71.9801C52.7801 71.9301 53.3201 72.0601 53.6601 72.3501C54.0001 72.6401 54.1501 73.0601 54.0801 73.6001C54.0101 74.2001 53.9401 74.81 53.8701 75.41C53.8001 76.01 53.7201 76.6201 53.6501 77.2201C53.5901 77.7601 53.3401 78.2 52.9101 78.53C52.4801 78.86 51.8901 79.0401 51.1201 79.0801C50.3701 79.1201 49.8101 78.99 49.4601 78.69C49.1101 78.4 48.9701 77.9801 49.0501 77.4501C49.1401 76.8501 49.2301 76.25 49.3101 75.66C49.4001 75.06 49.4801 74.4601 49.5701 73.8701ZM44.4401 74.51C44.5501 73.85 44.8101 73.35 45.2301 73C45.6501 72.65 46.2601 72.4301 47.0801 72.3601C47.7701 72.3001 48.3001 72.41 48.6401 72.68C48.9801 72.95 49.1101 73.39 49.0201 74C48.9801 74.3 48.8901 74.57 48.7701 74.8C48.6501 75.03 48.5001 75.24 48.3301 75.44C48.1601 75.63 47.9601 75.8101 47.7501 75.9801C47.5401 76.1501 47.3201 76.3101 47.1001 76.4801C46.8801 76.6501 46.6501 76.82 46.4401 77.01C46.2301 77.2 46.0201 77.41 45.8301 77.63C45.7601 77.71 45.7201 77.7801 45.6901 77.8301C45.6701 77.8701 45.6401 77.9 45.6201 77.93C45.6001 77.96 45.5801 78 45.5701 78.03C46.5101 77.97 47.4601 77.9101 48.3901 77.8501C48.3301 78.2801 48.2701 78.71 48.2101 79.13C46.6201 79.22 45.0201 79.32 43.4301 79.42C43.4501 79.28 43.4801 79.14 43.5001 79C43.5801 78.52 43.7101 78.1 43.9101 77.76C44.1101 77.41 44.3401 77.1001 44.6001 76.8401C44.8601 76.5801 45.1301 76.34 45.4201 76.14C45.7001 75.94 45.9601 75.73 46.2001 75.53C46.4501 75.33 46.6601 75.12 46.8401 74.9C47.0101 74.68 47.1201 74.43 47.1601 74.14C47.1801 73.98 47.1801 73.8301 47.1401 73.7001C47.1001 73.5701 46.9801 73.52 46.7601 73.53C46.6401 73.54 46.5401 73.5701 46.4701 73.6101C46.3901 73.6601 46.3401 73.71 46.2901 73.77C46.2501 73.84 46.2101 73.9001 46.1901 73.9801C46.1701 74.0601 46.1501 74.1301 46.1401 74.2101C46.1001 74.4401 46.0701 74.66 46.0301 74.89C45.4501 74.94 44.8801 74.99 44.3001 75.03C44.3301 74.85 44.3601 74.68 44.3901 74.5L44.4401 74.51Z" fill="white"/>
<path d="M220.5 65.3004L184.91 99.5504H159.31L197.58 14.2305H221.96L260.11 99.5504H234.27L220.5 65.3004ZM209.65 38.1205L198.68 65.3004H220.5L209.65 38.1205Z" fill="url(#paint0_linear_126_536)"/>
<path d="M284.14 14.2305V79.0804H324.97L318.8 99.5604H260V14.2405H284.13L284.14 14.2305Z" fill="url(#paint1_linear_126_536)"/>
<path d="M352.77 14.2305V79.0804H393.6L387.43 99.5604H328.63V14.2405H352.76L352.77 14.2305Z" fill="url(#paint2_linear_126_536)"/>
<path d="M483.56 37.5101C477.71 33.1201 471.01 31.6602 463.57 31.6602C457.72 31.6602 451.99 33.4901 451.99 38.0001C451.99 43.8501 457.72 44.7002 466.13 45.5602C483.07 47.3902 500.75 54.2102 500.75 73.8402C500.75 93.4702 482.47 101.51 463.33 101.63C447.97 101.75 437 99.0701 425.18 86.6401L438.47 71.4001C446.88 79.5701 456.27 81.0302 463.46 81.0302C471.38 81.0302 476.87 78.2302 476.87 73.4702C476.87 69.2002 471.99 66.5202 462.61 65.6702C443.96 63.9602 427.87 59.2101 427.87 38.0001C427.87 19.9601 445.54 12.1602 463.58 12.1602C476.38 12.1602 486.37 15.0902 495.52 22.2802L483.58 37.5201L483.56 37.5101Z" fill="url(#paint3_linear_126_536)"/>
<path d="M501.85 13.8604V33.7303H575.72V13.8604H501.85ZM526.71 99.1803H550.73V38.1703C537.47 38.1703 526.71 48.9203 526.71 62.1903V99.1803Z" fill="url(#paint4_linear_126_536)"/>
<path d="M623.47 64.9303L587.88 99.1803H562.28L600.55 13.8604H624.93L663.08 99.1803H637.24L623.47 64.9303ZM612.62 37.7502L601.65 64.9303H623.47L612.62 37.7502Z" fill="url(#paint5_linear_126_536)"/>
<path d="M742.07 99.1901H715.5L687.22 53.6001V99.1901H663.09V13.8701H704.78C726.6 13.8701 737.93 27.89 737.93 43.25C737.93 53.73 734.27 62.6301 719.89 68.9701L742.07 97.7401V99.2001V99.1901ZM687.22 33.1201V53.6001H705.02C711.36 53.6001 714.16 48.8501 714.16 43.7301C714.16 38.6101 711.11 33.13 704.77 33.13H687.22V33.1201Z" fill="url(#paint6_linear_126_536)"/>
<defs>
<linearGradient id="paint0_linear_126_536" x1="159.31" y1="56.8788" x2="260.11" y2="56.8788" gradientUnits="userSpaceOnUse">
<stop/>
<stop offset="1" stop-color="#212121"/>
</linearGradient>
<linearGradient id="paint1_linear_126_536" x1="260" y1="56.8838" x2="324.97" y2="56.8838" gradientUnits="userSpaceOnUse">
<stop/>
<stop offset="1" stop-color="#212121"/>
</linearGradient>
<linearGradient id="paint2_linear_126_536" x1="328.63" y1="56.8838" x2="393.6" y2="56.8838" gradientUnits="userSpaceOnUse">
<stop/>
<stop offset="1" stop-color="#212121"/>
</linearGradient>
<linearGradient id="paint3_linear_126_536" x1="425.18" y1="56.8849" x2="500.75" y2="56.8849" gradientUnits="userSpaceOnUse">
<stop/>
<stop offset="1" stop-color="#212121"/>
</linearGradient>
<linearGradient id="paint4_linear_126_536" x1="501.85" y1="56.5087" x2="575.72" y2="56.5087" gradientUnits="userSpaceOnUse">
<stop/>
<stop offset="1" stop-color="#212121"/>
</linearGradient>
<linearGradient id="paint5_linear_126_536" x1="562.28" y1="56.5087" x2="663.08" y2="56.5087" gradientUnits="userSpaceOnUse">
<stop/>
<stop offset="1" stop-color="#212121"/>
</linearGradient>
<linearGradient id="paint6_linear_126_536" x1="663.09" y1="56.5235" x2="742.07" y2="56.5235" gradientUnits="userSpaceOnUse">
<stop/>
<stop offset="1" stop-color="#212121"/>
</linearGradient>
</defs>
</svg>
