<svg width="96" height="138" viewBox="0 0 96 138" fill="none" xmlns="http://www.w3.org/2000/svg">
<path d="M95.5442 47.955C95.5442 50.6134 95.3308 53.2525 94.9039 55.8334C94.7098 57.0365 94.4575 58.2396 94.1665 59.4233C93.7396 61.1503 93.2156 62.8385 92.6141 64.5073C92.3618 65.2059 92.0902 65.8851 91.7991 66.5837C91.1975 67.9808 90.5572 69.3586 89.8392 70.6781C89.8392 70.6975 89.8198 70.7363 89.8004 70.7557C89.7616 70.7557 89.7422 70.7557 89.7033 70.7557C88.9854 70.7557 88.248 70.7169 87.53 70.6587C87.4912 70.6587 87.4718 70.6587 87.433 70.6587C87.3165 70.6587 87.2001 70.6587 87.0837 70.6393C84.0953 70.4258 81.1264 69.9213 78.1768 69.1257C77.323 68.8929 76.4692 68.6406 75.6348 68.3689C75.6348 68.3495 75.6542 68.3301 75.6736 68.3107C77.1096 66.1956 78.3709 63.9834 79.477 61.6936C79.477 61.6742 79.4964 61.6548 79.5158 61.616C79.5934 61.4414 79.671 61.2861 79.7486 61.1115C81.4757 57.3857 82.7758 53.4465 83.5714 49.4297C83.8431 48.0908 84.0565 46.7324 84.2118 45.3741C84.6969 41.3573 84.6969 37.2629 84.2118 33.1878C83.9983 31.3638 83.6878 29.5591 83.2803 27.7544C82.1548 22.8644 80.292 18.052 77.6529 13.4724C76.5856 11.629 75.4407 9.88253 74.1988 8.23311C74.16 8.1749 74.1018 8.11668 74.063 8.03906C76.7409 9.80491 79.2441 11.8424 81.5533 14.1516C85.9388 18.5371 89.3929 23.66 91.7991 29.3457C94.0112 34.5656 95.2532 40.0766 95.5054 45.7622C95.5442 46.4996 95.5636 47.237 95.5636 47.9744L95.5442 47.955Z" fill="black"/>
<path d="M87.8205 73.8993C87.8205 73.8993 87.8788 73.8993 87.9176 73.8993C86.9085 75.4517 85.8218 76.9459 84.6381 78.3819C84.5993 78.3819 84.5605 78.3819 84.5217 78.4013C81.8826 78.8476 79.1853 79.0805 76.4299 79.0805C73.1892 79.0805 70.0262 78.7506 66.9797 78.149C65.7766 77.9162 64.6123 77.6251 63.448 77.2952C58.8102 75.9951 54.4635 73.9964 50.5243 71.4543C49.5929 70.8528 48.7002 70.2318 47.827 69.5721C44.1983 66.8554 40.9771 63.6342 38.241 60.0248C37.8723 59.5203 37.5036 59.0158 37.1349 58.4918C37.1349 58.4724 37.1155 58.453 37.0961 58.4336C35.7184 56.4349 34.4764 54.3198 33.4092 52.1076C33.4092 52.0882 33.3898 52.0688 33.3704 52.03C36.9409 50.8851 40.6278 50.1671 44.3729 49.8761C44.4118 49.8761 44.4312 49.8761 44.47 49.8761C45.5372 49.7985 46.6045 49.7596 47.6718 49.7596C47.6718 49.7596 47.6718 49.7596 47.6718 49.7402C47.6718 49.7402 47.6718 49.7402 47.6718 49.7596C47.6718 49.779 47.6912 49.8179 47.7106 49.8373C50.078 53.9899 53.0663 57.7545 56.5398 61.0145C57.2966 61.7325 58.0922 62.431 58.9072 63.0908C62.4389 65.9821 66.3781 68.3884 70.6278 70.193C71.5592 70.5811 72.5101 70.9498 73.4803 71.2991C77.9822 72.8709 82.7947 73.7829 87.8011 73.9382L87.8205 73.8993Z" fill="black"/>
<path d="M11.2875 45.083C8.08564 48.246 5.25253 51.8941 2.88513 55.9885C2.30298 56.9976 1.75964 58.0067 1.25512 59.0157C1.25512 59.0545 1.21631 59.0933 1.1969 59.1321C1.00285 58.2783 0.808804 57.4245 0.653564 56.5513C0.653564 56.4737 0.672969 56.3961 0.692374 56.3378C1.6044 50.8462 3.50609 45.4129 6.45563 40.3094C7.8916 37.8061 9.52161 35.497 11.3263 33.3624C12.4906 31.9847 13.7325 30.6651 15.0132 29.4426C18.4091 26.2214 22.2318 23.5823 26.3069 21.5254C27.51 20.9239 28.7131 20.3805 29.955 19.876C33.9136 18.2848 38.0856 17.2175 42.3353 16.7324C42.5876 16.6936 42.8592 16.6742 43.1115 16.6548C43.1309 16.6548 43.1697 16.6548 43.1891 16.6548C46.0611 16.3637 48.9524 16.3443 51.8437 16.5966C51.8631 16.5966 51.9019 16.5966 51.9213 16.5966C52.5423 20.8074 52.5811 25.0765 52.0572 29.3262C52.0184 29.6755 51.9601 30.0248 51.9213 30.3741C51.9019 30.3741 51.8631 30.3741 51.8437 30.3741C49.0106 30.1412 46.1581 30.1412 43.3444 30.3741C43.325 30.3741 43.2861 30.3741 43.2667 30.3741C42.704 30.4129 42.1607 30.4711 41.5979 30.5487C37.1542 31.0726 32.7881 32.1593 28.6354 33.8087C27.5876 34.2162 26.5785 34.6626 25.5501 35.1283C21.3974 37.0688 17.497 39.5914 13.9653 42.6186C13.0339 43.4142 12.1219 44.268 11.2292 45.1412L11.2875 45.083Z" fill="black"/>
<path d="M61.372 2.19761C61.372 2.19761 61.3331 2.1394 61.3137 2.10059C62.1482 2.35285 62.9826 2.62452 63.7976 2.91559C63.7976 2.91559 63.914 3.01262 63.9722 3.05143C68.2801 6.60252 72.0253 10.9492 74.9942 16.0721C76.4302 18.5754 77.6333 21.1368 78.5647 23.7565C79.1857 25.4641 79.6902 27.1717 80.0977 28.9182C81.1844 33.4589 81.5725 38.0967 81.3008 42.6568C81.2232 43.9958 81.0873 45.3347 80.8933 46.6543C80.2917 50.8845 79.1274 55.0178 77.4392 58.9376C77.3422 59.1704 77.2258 59.4227 77.1287 59.6555C77.1287 59.6749 77.1093 59.6944 77.0899 59.7332C75.9062 62.3528 74.4703 64.8755 72.8208 67.2623C72.8208 67.2817 72.8014 67.3011 72.782 67.3205C68.8234 65.7487 65.1171 63.653 61.7018 61.0721C61.4302 60.8586 61.1391 60.6452 60.8674 60.4317L60.9062 60.3735C62.5363 58.0255 63.9528 55.5805 65.1365 53.0191C65.1365 53.0191 65.1559 52.9803 65.1753 52.9414C65.4082 52.4369 65.641 51.9324 65.8545 51.4085C67.6203 47.2946 68.8623 42.9867 69.522 38.5624C69.6967 37.4563 69.8131 36.3502 69.9101 35.2442C70.2982 30.684 70.0848 26.0462 69.2309 21.4667C68.9981 20.2636 68.7264 19.0411 68.4159 17.838C67.271 13.4913 65.544 9.20278 63.1766 5.12775C62.5945 4.1187 61.9929 3.14845 61.3526 2.19761H61.372Z" fill="black"/>
<path d="M68.9207 90.7624C68.9207 90.7624 69.0759 90.7625 69.1536 90.743C68.2415 91.2088 67.3101 91.6357 66.3593 92.0238C60.4602 94.527 54.1924 95.7883 47.7499 95.7883C41.3075 95.7883 35.0397 94.527 29.1406 92.0238C27.9763 91.5386 26.8509 91.0147 25.7448 90.4326C22.7564 88.8802 19.9621 87.0367 17.3619 84.8828C16.4304 84.1066 15.5184 83.2916 14.6452 82.4377C14.4123 82.2243 14.1795 81.9914 13.9466 81.7586C12.9181 80.7301 11.9285 79.6628 11.0165 78.5374C9.56109 76.7909 8.24155 74.9669 7.05785 73.0458C7.05785 73.0264 7.01904 72.9876 7.01904 72.9682C7.01904 72.9487 7.03845 72.9099 7.05785 72.8905C7.42655 72.2696 7.81464 71.668 8.22215 71.0665C8.22215 71.0471 8.26096 71.0083 8.28036 70.9888C8.33858 70.8918 8.4162 70.7948 8.47441 70.6978C10.1626 68.2139 12.0837 65.9048 14.2377 63.7508C14.8586 63.1299 15.499 62.5283 16.1588 61.9268C16.1588 61.9462 16.1782 61.9656 16.1976 61.985C17.3036 64.2748 18.5844 66.4869 20.0203 68.5826C20.0203 68.602 20.0591 68.6215 20.0591 68.6409C20.1562 68.7961 20.2726 68.9513 20.3696 69.1066C22.737 72.483 25.4925 75.549 28.5779 78.2657C29.6064 79.1777 30.6736 80.0315 31.7603 80.8465C35.0009 83.2722 38.5326 85.3291 42.2972 86.9397C43.9854 87.6577 45.7124 88.298 47.4783 88.8414C52.2713 90.3161 57.3748 91.1117 62.6723 91.1117C64.7875 91.1117 66.8832 90.9759 68.9401 90.743L68.9207 90.7624Z" fill="black"/>
<path d="M50.1747 0.276838C50.1747 0.276838 50.1553 0.218624 50.1359 0.199219C51.9988 0.296243 53.8229 0.490292 55.6469 0.781366C55.6469 0.781366 55.7051 0.839581 55.7245 0.878391C57.4322 2.93531 58.9846 5.16688 60.3817 7.55368C61.9923 10.348 63.2925 13.2587 64.3015 16.2083C64.6896 17.3726 65.0389 18.5175 65.33 19.7012C66.5137 24.3777 66.9794 29.1319 66.7271 33.8279C66.6689 34.934 66.5719 36.0207 66.4555 37.1268C65.9121 41.6287 64.7478 46.0336 62.9626 50.1863C62.7103 50.7684 62.458 51.3312 62.1864 51.8939C62.1864 51.9133 62.167 51.9327 62.1476 51.9715C61.0997 54.1643 59.8966 56.2988 58.5188 58.3363C55.7633 55.8525 53.3183 53.0388 51.2032 49.9534C51.1644 49.9534 51.145 49.9534 51.1062 49.9534C51.0868 49.934 51.0674 49.8952 51.048 49.8758C50.4464 49.0026 49.8837 48.0905 49.3403 47.1591C49.3403 47.1591 49.3209 47.1591 49.3015 47.1591C49.3015 47.1591 49.3015 47.1591 49.3015 47.1397C49.3015 47.1203 49.3403 47.0815 49.3403 47.0621C51.7465 42.9288 53.5124 38.4657 54.5991 33.8279C54.8319 32.7995 55.0454 31.771 55.22 30.7425C55.9768 26.2406 56.0738 21.6222 55.5111 17.0427C55.3947 16.0336 55.22 15.0246 55.0454 14.0155C54.1527 9.33893 52.5421 4.72056 50.1747 0.315648V0.276838Z" fill="black"/>
<path d="M80.525 82.671C80.525 82.671 80.6027 82.671 80.6415 82.671C80.0011 83.2919 79.3413 83.8741 78.6816 84.4368C78.6039 84.4562 78.5457 84.4951 78.4681 84.5145C73.2676 86.4549 67.6208 87.5222 61.7411 87.5222C58.8497 87.5222 56.036 87.27 53.2999 86.7848C51.5147 86.4743 49.7683 86.0474 48.0606 85.5429C43.5781 84.204 39.3866 82.2247 35.5445 79.7214C34.419 78.9841 33.3323 78.2079 32.2844 77.3929C28.9274 74.7538 25.9196 71.6878 23.3776 68.2531C23.2223 68.0397 23.0671 67.8456 22.9313 67.6322C22.9313 67.6128 22.8925 67.5934 22.873 67.574C21.2042 65.2454 19.7295 62.7421 18.4875 60.1031C18.4875 60.0837 18.4681 60.0643 18.4487 60.0255C21.7864 57.3864 25.4539 55.213 29.4125 53.5442C29.7424 53.4084 30.0529 53.2726 30.3827 53.1367C30.3827 53.1561 30.4022 53.1949 30.4216 53.2143C31.6441 55.7952 33.0606 58.2402 34.6712 60.5688C34.6712 60.5882 34.6906 60.6076 34.71 60.627C35.0205 61.0927 35.3504 61.539 35.6803 61.9854C38.3582 65.5753 41.4824 68.7965 44.9752 71.5908C45.8485 72.2894 46.7411 72.9491 47.6531 73.5895C51.4177 76.2092 55.5315 78.3243 59.9364 79.8767C61.1007 80.2842 62.2844 80.6529 63.4681 80.9828C67.8148 82.1665 72.3944 82.8068 77.1098 82.8068C78.2547 82.8068 79.3995 82.768 80.525 82.6904V82.671Z" fill="black"/>
<path d="M2.88547 39.2805C1.83761 41.1045 0.886766 42.9868 0.0911652 44.8885C0.0523553 44.9661 0.0329504 45.0243 -0.00585938 45.1019C0.304619 39.6491 1.54653 34.371 3.66167 29.3451C6.06788 23.6595 9.52195 18.5366 13.9075 14.1511C16.3719 11.6867 19.0498 9.53273 21.9411 7.68926C24.2115 6.23389 26.5983 4.97257 29.1015 3.9053C29.7225 3.65304 30.324 3.40078 30.945 3.16792C32.0899 2.74101 33.2542 2.35291 34.4184 2.02303C36.1261 1.5379 37.8531 1.1304 39.5996 0.839328C41.8311 0.45123 44.0821 0.218371 46.3525 0.160156C46.3719 0.160156 46.4107 0.160156 46.4495 0.160156C46.4495 0.179561 46.4689 0.218371 46.4883 0.237776C46.8376 0.858733 47.1675 1.49909 47.4779 2.13946C47.4779 2.15886 47.5168 2.19767 47.5168 2.23648C47.575 2.33351 47.6138 2.44994 47.672 2.54696C48.9721 5.24424 50.02 8.07736 50.8156 11.0075C51.0485 11.8613 51.2425 12.7345 51.4366 13.5884C51.4171 13.5884 51.3783 13.5884 51.3589 13.5884C48.8169 13.4137 46.2554 13.4137 43.7328 13.5884C43.7134 13.5884 43.6746 13.5884 43.6552 13.5884C43.4805 13.5884 43.2865 13.6078 43.1118 13.6272C39.0174 13.9959 34.9618 14.8497 31.0808 16.1498C29.7807 16.5767 28.4999 17.0812 27.2386 17.6246C23.5129 19.2158 19.9812 21.2533 16.6824 23.7177C15.2076 24.8044 13.8104 25.9881 12.4521 27.2494C8.76516 30.6647 5.54394 34.6815 2.88547 39.261V39.2805Z" fill="black"/>
<path d="M5.21422 69.7089C5.21422 69.7089 5.17541 69.7671 5.17541 69.7865C4.63207 68.7387 4.14695 67.6714 3.68123 66.5847C3.42897 65.9638 3.17671 65.3428 2.94385 64.7218C2.94385 64.683 2.96325 64.6442 2.98266 64.6054C3.91409 62.1022 5.05898 59.6378 6.43673 57.2315C8.04734 54.4372 9.91021 51.8564 11.9671 49.5278C12.7627 48.6158 13.5971 47.7231 14.4704 46.8887C17.9244 43.5317 21.8054 40.7568 25.9969 38.6028C26.9865 38.0983 27.9762 37.6326 28.9852 37.2057C33.1573 35.4204 37.5428 34.2367 42.0447 33.6934C42.6657 33.6158 43.2866 33.5576 43.9076 33.4993C43.927 33.4993 43.9658 33.4993 43.9852 33.4993C46.4108 33.3053 48.8753 33.2859 51.3203 33.4605C51.3397 33.4605 51.3785 33.4605 51.3979 33.4605C50.6023 37.1281 49.3992 40.6792 47.7498 44.075C47.7498 44.0944 47.7304 44.1332 47.711 44.1526C47.2453 45.1035 46.7407 46.0543 46.2168 46.9858C46.2168 46.9858 46.2168 47.0052 46.2168 47.0246H46.1004C41.3074 47.0052 36.5726 47.7037 32.0124 49.0815C31.0033 49.392 30.0137 49.7218 29.024 50.0905C24.755 51.7011 20.6993 53.9133 17.0124 56.7076C16.1974 57.3286 15.4018 57.9689 14.6256 58.6287C11.0163 61.7529 7.81448 65.4592 5.19482 69.7089H5.21422Z" fill="black"/>
<path d="M16.7018 126.875L25.8997 108.499C26.1714 107.936 26.7535 107.587 27.3745 107.587H33.4094V137.296H27.3357V117.639L19.7095 132.697C19.2244 133.667 18.2154 134.269 17.1287 134.269H16.2749C15.1882 134.269 14.1985 133.648 13.694 132.697L6.06788 117.639V137.296H-0.00585938V107.587H6.04847C6.66943 107.587 7.23217 107.936 7.52325 108.499L16.7018 126.875Z" fill="black"/>
<path d="M52.193 129.589L59.431 109.039C59.7415 108.147 60.5759 107.564 61.5267 107.564H67.29L55.3172 137.273H49.1076L37.1348 107.564H42.898C43.8295 107.564 44.6833 108.166 44.9938 109.039L52.2124 129.589H52.193Z" fill="black"/>
<path d="M70.6084 137.296H65.2527L76.6628 107.587H83.7262L95.1362 137.296H89.7805C88.7714 137.296 87.8788 136.655 87.5489 135.685L85.8607 130.64H74.5088L72.84 135.666C72.5295 136.636 71.6175 137.276 70.6084 137.276V137.296ZM84.2501 125.944L80.1751 113.738L76.1 125.944H84.2501Z" fill="black"/>
</svg>
