<svg width="36" height="36" viewBox="0 0 36 36" fill="none" xmlns="http://www.w3.org/2000/svg">
<g opacity="0.5" clip-path="url(#clip0_4_1246)">
<path d="M23.0793 20.723H21.9443L21.542 20.3351C22.95 18.6972 23.7976 16.5709 23.7976 14.2579C23.7976 9.10013 19.6169 4.91934 14.4591 4.91934C9.30139 4.91934 5.12061 9.10013 5.12061 14.2579C5.12061 19.4156 9.30139 23.5964 14.4591 23.5964C16.7722 23.5964 18.8985 22.7487 20.5363 21.3408L20.9243 21.743V22.878L28.1077 30.0471L30.2484 27.9065L23.0793 20.723ZM14.4591 20.723C10.8818 20.723 7.994 17.8352 7.994 14.2579C7.994 10.6805 10.8818 7.79273 14.4591 7.79273C18.0365 7.79273 20.9243 10.6805 20.9243 14.2579C20.9243 17.8352 18.0365 20.723 14.4591 20.723Z" fill="#323232"/>
</g>
<defs>
<clipPath id="clip0_4_1246">
<rect width="34.4807" height="34.4807" fill="white" transform="translate(0.810547 0.609253)"/>
</clipPath>
</defs>
</svg>
