<svg width="916" height="203" viewBox="0 0 916 203" fill="none" xmlns="http://www.w3.org/2000/svg">
<mask id="mask0_147_1969" style="mask-type:luminance" maskUnits="userSpaceOnUse" x="-1" y="0" width="917" height="203">
<path d="M915.692 202.927V0.770508L-0.00622559 0.770508V202.927L915.692 202.927Z" fill="white"/>
</mask>
<g mask="url(#mask0_147_1969)">
<g opacity="0.4">
<path d="M491.045 -159.454L491.044 -159.457C488.035 -166.515 484.869 -173.53 481.303 -180.343C480.959 -181.001 480.61 -181.657 480.258 -182.312L481.131 -182.241L486.527 -181.806L502.901 -180.486C508.854 -180.006 514.807 -179.526 519.269 -179.166C521.5 -178.987 523.358 -178.837 524.658 -178.733L526.165 -178.611L526.41 -178.592C547.989 -149.759 567.164 -118.911 582.439 -86.2836L582.441 -86.2803C613.467 -20.9742 627.851 52.3227 620.873 124.44L620.873 124.441C615.335 182.542 597.117 239.394 568.141 290.043C562.721 299.402 557.011 308.611 550.58 317.283L540.951 306.847C540.95 306.846 540.949 306.845 540.949 306.845C519.986 283.576 499.368 259.407 482.1 233.292C480.232 230.437 477.997 226.805 476.395 224.038C485.268 206.441 493.161 188.338 499.82 169.785C501.898 164.04 504.347 156.82 506.136 150.99C520.628 104.736 527.43 56.1103 526.374 7.66475L526.374 7.66328C524.993 -49.5544 513.211 -106.641 491.045 -159.454ZM480.183 -179.756C483.723 -172.99 486.868 -166.014 489.868 -158.975C511.948 -106.314 523.669 -49.3785 525.023 7.6812C526.053 55.9801 519.252 104.452 504.789 150.556L504.788 150.56C503.007 156.361 500.57 163.538 498.486 169.285L498.486 169.287C491.795 187.9 483.854 206.064 474.933 223.715L474.783 224.012L474.943 224.304C476.739 227.57 478.841 230.935 480.885 234.065L480.888 234.069C500.888 264.251 525.146 291.949 549.678 318.491L549.257 319.052L550.169 319.021L550.187 319.04L550.693 319.578L551.146 318.995L551.152 318.987L552.121 318.953L551.601 318.39C558.16 309.586 563.954 300.256 569.434 290.778L569.436 290.775C598.494 239.938 616.756 182.877 622.282 124.567L622.132 124.552L622.282 124.566C627.53 69.0083 620.5 12.4146 602.441 -40.3465C596.694 -57.4602 589.659 -74.3731 581.866 -90.6384L581.865 -90.6394C566.764 -122.02 548.154 -151.771 527.273 -179.596L527.246 -179.632L527.215 -179.664C527.048 -179.783 526.844 -179.844 526.835 -179.845L526.825 -179.846L526.814 -179.847L526.786 -179.85L526.682 -179.858L526.593 -179.866L525.294 -180.082L525.382 -179.964C525.195 -179.979 524.991 -179.995 524.771 -180.013C523.468 -180.118 521.607 -180.268 519.375 -180.447C514.909 -180.806 508.956 -181.284 503.004 -181.762C497.051 -182.239 491.098 -182.717 486.634 -183.075L481.239 -183.508L479.728 -183.629L479.33 -183.661L479.228 -183.669L479.202 -183.671L479.195 -183.672L479.194 -183.672C479.194 -183.672 479.194 -183.672 479.193 -183.666L479.191 -183.666L479.19 -183.666C479.19 -183.666 479.191 -183.665 479.193 -183.663C479.19 -183.635 479.181 -183.522 479.145 -183.071L479.137 -183.067V-183.668C479.008 -183.545 478.93 -183.42 478.887 -183.298L478.696 -183.489L478.69 -183.483L478.884 -183.29C478.838 -183.158 478.834 -183.032 478.851 -182.917L478.572 -182.771L478.577 -182.759L478.822 -182.882L478.582 -182.751C478.584 -182.747 478.586 -182.743 478.588 -182.739L478.588 -182.739C479.129 -181.749 479.66 -180.755 480.183 -179.756Z" fill="white" stroke="white" stroke-width="1.26416"/>
<path d="M652.676 119.487C650.68 141.816 647.198 164.314 642.213 186.17C632.249 230.047 616.346 272.802 593.455 311.63L593.454 311.632C587.791 321.123 581.773 330.45 574.879 339.131C581.702 344.788 589.575 351.132 597.28 356.191L597.288 356.197C605.214 361.58 613.382 366.611 621.686 371.408C621.691 371.408 621.697 371.408 621.702 371.408C621.826 371.412 622.014 371.419 622.26 371.429C622.753 371.448 623.484 371.479 624.42 371.519C626.291 371.6 628.981 371.72 632.217 371.867C638.69 372.161 647.346 372.56 655.994 372.964C664.643 373.369 673.284 373.778 679.728 374.09C682.949 374.246 685.622 374.378 687.472 374.473C688.396 374.521 689.117 374.559 689.597 374.587C689.707 374.593 689.805 374.599 689.89 374.604C722.054 317.568 741.313 253.324 746.968 188.132C749.885 153.227 748.577 117.703 742.276 83.2425C729.483 14.1225 697.078 -50.6553 652.994 -105.159C637.578 -124.031 620.956 -142.04 602.281 -157.7L602.081 -157.762L601.172 -158.046L597.924 -159.057C595.381 -159.848 592.036 -160.889 588.647 -161.943L575.569 -166.009C602.633 -129.026 622.229 -86.8384 635.998 -43.2621L636 -43.2553C638.112 -36.2971 640.439 -27.9826 642.255 -20.8969L642.258 -20.8857L642.469 -19.9976C643.327 -16.3746 644.348 -12.0676 645.157 -8.5658L645.159 -8.55592L645.161 -8.54599C645.418 -7.24153 645.754 -5.6301 646.11 -3.91606C646.821 -0.497025 647.617 3.33023 648.051 5.94342C648.252 7.12102 648.488 8.47449 648.73 9.8678C649.12 12.108 649.527 14.4511 649.842 16.3308L649.843 16.3392L649.844 16.3476C649.996 17.4308 650.16 18.5804 650.329 19.7711C651.047 24.8058 651.87 30.5769 652.298 35.1803C652.885 39.9149 653.465 47.1869 653.784 51.9974M652.676 119.487C652.676 119.487 652.676 119.487 652.676 119.487L652.56 119.476C652.56 119.476 652.56 119.475 652.56 119.475M652.676 119.487C652.676 119.486 652.676 119.486 652.676 119.485L652.56 119.475M652.676 119.487C654.492 99.9392 655.201 80.0838 654.255 60.4438M652.56 119.475C654.382 99.9423 655.102 80.0846 654.163 60.4534L654.255 60.4512C654.255 60.4487 654.255 60.4462 654.255 60.4438M652.56 119.475L653.697 51.999L653.783 51.9916C653.784 51.9935 653.784 51.9955 653.784 51.9974M654.255 60.4438C654.202 58.3142 653.964 54.1181 653.784 51.9974M654.255 60.4438C654.255 60.4413 654.255 60.4388 654.254 60.4363L654.162 60.4408C654.115 58.3398 653.878 54.1028 653.698 52.0092L653.784 52.0035C653.784 52.0014 653.784 51.9994 653.784 51.9974M573.912 -167.818L573.892 -167.687C573.702 -167.551 573.443 -167.282 573.461 -166.847L573.409 -166.81C573.41 -166.81 573.41 -166.809 573.41 -166.809C600.953 -129.587 620.828 -86.9564 634.745 -42.8731C636.845 -35.9415 639.171 -27.597 640.977 -20.5773C641.171 -19.7525 641.377 -18.8829 641.588 -17.988C642.346 -14.7792 643.181 -11.2449 643.865 -8.28528C644.124 -6.97543 644.452 -5.39529 644.799 -3.72318C645.509 -0.306442 646.298 3.49438 646.74 6.1581L646.74 6.16083C646.965 7.4782 647.231 9.01479 647.502 10.5819C647.861 12.66 648.23 14.7918 648.524 16.5371C648.672 17.6014 648.832 18.7281 648.997 19.8936C649.713 24.9427 650.532 30.7207 650.959 35.313L650.96 35.3222L650.961 35.3315C651.539 40.0374 652.123 47.3147 652.436 52.0923L652.437 52.1054C652.616 54.1737 652.852 58.4087 652.898 60.4808L652.899 60.4889L652.899 60.497C653.836 80.0636 653.119 99.867 651.301 119.358L651.301 119.361C649.304 141.63 645.819 164.073 640.841 185.86L640.841 185.86C630.89 229.606 615.02 272.218 592.199 310.894C586.451 320.526 580.342 329.968 573.343 338.705L572.979 339.159L573.127 339.299L573.117 339.311L573.305 339.467L573.402 339.559C580.309 346.099 588.548 351.954 596.446 357.419L596.45 357.422C604.458 362.863 612.702 367.943 621.076 372.783L621.149 372.825L621.231 372.846C621.267 372.855 621.313 372.862 621.325 372.864L621.344 372.866L621.365 372.867L621.411 372.87L621.481 372.874L621.567 372.878C621.701 372.885 621.898 372.895 622.153 372.907C622.663 372.932 623.408 372.968 624.353 373.013C626.245 373.103 628.941 373.229 632.173 373.381C638.637 373.683 647.248 374.083 655.858 374.483C670.294 375.153 684.765 375.822 689.09 376.02L689.076 376.044L689.228 376.026C689.969 376.06 690.375 376.078 690.387 376.078H690.756L690.937 375.757C723.33 318.411 742.703 253.815 748.367 188.258L748.367 188.256C751.246 153.998 749.97 119.139 744.054 85.2573L744.053 85.2542C731.437 15.0573 698.72 -50.7531 653.998 -105.973L653.997 -105.975C638.512 -124.917 621.798 -143.015 602.996 -158.756L602.899 -158.837L602.778 -158.875L589.022 -163.151C588.829 -163.211 588.635 -163.271 588.442 -163.331C584.857 -164.447 581.272 -165.562 578.584 -166.398C577.24 -166.816 576.12 -167.164 575.336 -167.408L574.426 -167.69L574.186 -167.764L574.123 -167.784L574.106 -167.789L574.097 -167.792L574.085 -167.795C574.081 -167.796 574.01 -167.767 573.918 -167.705V-167.818H573.912ZM621.956 371.588C621.963 371.603 621.968 371.618 621.973 371.633C621.901 371.629 621.835 371.626 621.777 371.623L621.825 371.501C621.87 371.527 621.917 371.556 621.956 371.588Z" fill="white" stroke="white" stroke-width="1.26416"/>
<path d="M685.402 -115.609L684.822 -114.88L684.566 -114.689C684.566 -114.688 684.566 -114.688 684.566 -114.688C697.56 -97.3399 709.937 -79.0232 720.725 -60.2362L720.728 -60.232C801.629 78.1785 798.854 236.769 723.412 376.968L722.949 377.828L723.169 377.844L723.115 377.943L724.114 377.997C725.828 378.089 727.546 378.184 729.268 378.282C766.743 380.98 805.482 383.907 843.057 387.425L843.531 387.47L843.704 387.026C857.79 351.034 865.932 312.896 869.762 274.516L869.763 274.513C876.442 204.489 868.378 132.05 839.968 67.2677L839.966 67.2645C826.408 36.8043 809.302 7.68327 789.049 -18.8101L789.048 -18.8111C786.825 -21.7067 784.568 -24.5807 782.278 -27.4308C778.463 -32.1972 774.548 -36.8833 770.536 -41.4847C753.302 -61.314 734.336 -79.7165 713.612 -95.8358C704.631 -102.909 695.304 -109.537 685.551 -115.515C685.502 -115.546 685.452 -115.578 685.402 -115.609ZM721.844 -60.8797C711.582 -78.7252 699.91 -96.1344 687.624 -112.703C696.299 -107.137 704.702 -101.165 712.835 -94.8393C722.445 -87.2708 731.666 -79.186 740.599 -70.836C750.733 -61.2542 760.409 -51.1774 769.581 -40.657C773.579 -36.0572 777.483 -31.38 781.295 -26.636C805.778 3.95192 826.129 37.8585 841.326 73.949C881.084 169.322 879.334 289.944 842.501 386.038C805.609 382.395 766.497 379.122 729.349 377.02C727.97 376.921 726.592 376.822 725.215 376.723C735.436 357.804 744.359 338.187 751.952 318.071C800.25 190.799 790.704 56.9291 721.844 -60.8797Z" fill="white" stroke="white" stroke-width="1.26416"/>
<path d="M114.233 379.897L112.752 380.028C111.833 380.108 110.749 380.203 109.539 380.309C107.291 380.505 104.61 380.739 101.747 380.99C99.6543 381.172 97.4643 381.364 95.2744 381.555C90.0878 382.008 84.9022 382.461 81.0161 382.802C79.073 382.973 77.4547 383.115 76.3236 383.215C75.7581 383.265 75.314 383.304 75.012 383.332C75.007 383.332 75.0021 383.333 74.9972 383.333L73.0794 379.173C87.5365 347.104 104.952 316.151 125.759 287.73L125.762 287.727C133.659 276.81 142.387 266.079 151.262 255.942C220.678 176.955 316.833 129.846 421.16 119.266L421.163 119.266C442.32 117.033 464.576 116.553 485.352 117.921C474.194 151.655 461.369 185.59 445.164 216.892C405.71 218.34 366.886 225.138 329.671 236.742C246.804 262.58 171.908 312.249 115.762 379.763L115.551 379.781L114.233 379.897ZM116.373 380.687L116.522 380.822L116.528 380.816L116.548 380.796L116.566 380.774C161.938 326.295 220.222 282.778 285.142 254.619C321.259 238.953 359.43 228.041 398.573 222.64L398.575 222.639C414.184 220.446 429.901 219.08 445.65 218.298L446.005 218.28L446.175 217.968C450.498 209.996 454.365 201.796 458.06 193.535L458.063 193.53C468.878 168.78 479.019 142.994 486.933 117.451L487.166 116.702L486.384 116.634C464.621 114.758 442.699 115.641 421.017 117.782L421.015 117.783C316.348 128.451 219.904 175.734 150.253 255.051C139.526 267.217 129.283 280.322 119.894 293.57L119.892 293.573C101.158 320.391 85.1537 349.081 71.7905 378.929L71.6731 379.191L71.7935 379.452L74.0192 384.275L74.0357 384.267L74.0364 384.268L74.089 384.244C74.1843 384.375 74.2999 384.474 74.3955 384.54C74.4141 384.566 74.4347 384.592 74.4571 384.617L75.7366 384.937L75.5641 384.563C75.8086 384.542 76.0984 384.517 76.4296 384.488C77.5638 384.39 79.184 384.248 81.128 384.078C85.0162 383.737 90.2003 383.282 95.3848 382.826C100.569 382.37 105.754 381.913 109.644 381.571L112.879 381.286C113.432 381.237 113.925 381.194 114.349 381.157C114.917 381.107 115.362 381.068 115.666 381.041L116.013 381.01L116.099 381.002L116.103 381.002L116.121 381L116.126 381L116.126 381L116.129 381L116.141 380.998L116.157 380.997C116.165 380.995 116.283 380.878 116.373 380.687Z" fill="white" stroke="white" stroke-width="1.26416"/>
<mask id="path-6-outside-1_147_1969" maskUnits="userSpaceOnUse" x="50.8647" y="-32.9199" width="448" height="370" fill="black">
<rect fill="white" x="50.8647" y="-32.9199" width="448" height="370"/>
<path d="M59.1649 336.474L52.8647 305.414C53.9196 299.183 55.328 293.016 56.8523 286.878C64.5899 256.235 75.9325 226.531 90.0514 198.264C111.966 154.511 141.125 114.142 176.706 80.4854C213.429 45.7272 257.293 18.6371 304.257 0.0321909C364.465 -23.5978 430.063 -35.0216 494.688 -29.585L494.787 -29.5734L494.792 -29.4749C497.267 9.28248 497.731 48.4919 491.784 86.9652C453.172 83.7891 414.136 86.6175 376.028 93.3524C354.328 97.3284 332.68 102.805 311.856 110.062C293.738 116.293 275.521 124.094 258.603 133.101C254.969 135.071 247.596 138.955 243.922 140.844C197.317 165.204 155.986 199.186 121.854 239.12C96.9428 268.667 74.9009 301.096 59.1765 336.486C73.1679 304.857 92.3524 275.669 113.89 248.683C151.14 202.339 197.995 163.541 251.236 136.926C253.665 135.628 259.866 132.307 262.214 131.049C264.596 129.867 270.913 126.748 273.376 125.543C284.412 120.419 296.421 115.365 307.897 111.314C327.383 104.312 347.559 98.8875 367.85 94.755C408.526 86.8435 450.355 83.4239 491.715 86.774C497.296 48.9092 497.157 9.10281 494.561 -29.4517L494.665 -29.3473C430.081 -34.8071 364.5 -23.4065 304.315 0.188674C257.362 18.7704 213.505 45.8374 176.782 80.5723C141.2 114.212 112.03 154.563 90.1036 198.299C75.9789 226.56 64.6305 256.253 56.8755 286.896C55.3512 293.028 53.9428 299.195 52.8821 305.425C52.8821 305.414 59.1707 336.486 59.1707 336.486L59.1649 336.474Z"/>
</mask>
<path d="M59.1649 336.474L52.8647 305.414C53.9196 299.183 55.328 293.016 56.8523 286.878C64.5899 256.235 75.9325 226.531 90.0514 198.264C111.966 154.511 141.125 114.142 176.706 80.4854C213.429 45.7272 257.293 18.6371 304.257 0.0321909C364.465 -23.5978 430.063 -35.0216 494.688 -29.585L494.787 -29.5734L494.792 -29.4749C497.267 9.28248 497.731 48.4919 491.784 86.9652C453.172 83.7891 414.136 86.6175 376.028 93.3524C354.328 97.3284 332.68 102.805 311.856 110.062C293.738 116.293 275.521 124.094 258.603 133.101C254.969 135.071 247.596 138.955 243.922 140.844C197.317 165.204 155.986 199.186 121.854 239.12C96.9428 268.667 74.9009 301.096 59.1765 336.486C73.1679 304.857 92.3524 275.669 113.89 248.683C151.14 202.339 197.995 163.541 251.236 136.926C253.665 135.628 259.866 132.307 262.214 131.049C264.596 129.867 270.913 126.748 273.376 125.543C284.412 120.419 296.421 115.365 307.897 111.314C327.383 104.312 347.559 98.8875 367.85 94.755C408.526 86.8435 450.355 83.4239 491.715 86.774C497.296 48.9092 497.157 9.10281 494.561 -29.4517L494.665 -29.3473C430.081 -34.8071 364.5 -23.4065 304.315 0.188674C257.362 18.7704 213.505 45.8374 176.782 80.5723C141.2 114.212 112.03 154.563 90.1036 198.299C75.9789 226.56 64.6305 256.253 56.8755 286.896C55.3512 293.028 53.9428 299.195 52.8821 305.425C52.8821 305.414 59.1707 336.486 59.1707 336.486L59.1649 336.474Z" fill="white"/>
<path d="M59.1649 336.474L57.926 336.725L57.9592 336.889L58.0339 337.039L59.1649 336.474ZM52.8647 305.414L51.6183 305.203L51.5791 305.434L51.6258 305.665L52.8647 305.414ZM56.8523 286.878L55.6266 286.569L55.6255 286.574L56.8523 286.878ZM90.0514 198.264L88.9211 197.698L88.9205 197.699L90.0514 198.264ZM176.706 80.4854L177.575 81.4038L177.575 81.4035L176.706 80.4854ZM304.257 0.0321909L303.795 -1.14459L303.792 -1.14311L304.257 0.0321909ZM494.688 -29.585L494.836 -30.8405L494.815 -30.8429L494.794 -30.8447L494.688 -29.585ZM494.787 -29.5734L496.049 -29.6477L495.986 -30.705L494.934 -30.8289L494.787 -29.5734ZM494.792 -29.4749L493.53 -29.4005L493.531 -29.3943L494.792 -29.4749ZM491.784 86.9652L491.681 88.2251L492.854 88.3216L493.034 87.1583L491.784 86.9652ZM376.028 93.3524L375.808 92.1075L375.8 92.1089L376.028 93.3524ZM311.856 110.062L312.267 111.257L312.272 111.256L311.856 110.062ZM258.603 133.101L258.009 131.985L258 131.99L258.603 133.101ZM243.922 140.844L243.343 139.72L243.336 139.724L243.922 140.844ZM121.854 239.12L120.893 238.298L120.887 238.305L121.854 239.12ZM59.1765 336.486L58.0204 335.974L60.3318 336.999L59.1765 336.486ZM113.89 248.683L112.905 247.891L112.902 247.895L113.89 248.683ZM251.236 136.926L251.801 138.057L251.817 138.049L251.832 138.041L251.236 136.926ZM262.214 131.049L261.651 129.917L261.634 129.925L261.616 129.935L262.214 131.049ZM273.376 125.543L272.844 124.396L272.832 124.402L272.821 124.407L273.376 125.543ZM307.897 111.314L308.318 112.506L308.324 112.504L307.897 111.314ZM367.85 94.755L367.609 93.514L367.598 93.5162L367.85 94.755ZM491.715 86.774L491.613 88.034L492.793 88.1296L492.965 86.9583L491.715 86.774ZM494.561 -29.4517L495.454 -30.3456L493.073 -32.7271L493.299 -29.3667L494.561 -29.4517ZM494.665 -29.3473L494.558 -28.0877L498.004 -27.7964L495.559 -30.2412L494.665 -29.3473ZM304.315 0.188674L303.854 -0.988274L303.85 -0.986781L304.315 0.188674ZM176.782 80.5723L177.65 81.4909L177.65 81.4907L176.782 80.5723ZM90.1036 198.299L88.9735 197.733L88.9728 197.734L90.1036 198.299ZM56.8755 286.896L55.65 286.585L55.6487 286.591L56.8755 286.896ZM52.8821 305.425H51.618L54.1284 305.637L52.8821 305.425ZM59.1707 336.486L58.0397 337.05L60.4097 336.235L59.1707 336.486ZM60.4038 336.223L54.1037 305.162L51.6258 305.665L57.926 336.725L60.4038 336.223ZM54.1112 305.625C55.1584 299.439 56.5582 293.307 58.0792 287.183L55.6255 286.574C54.0978 292.725 52.6808 298.927 51.6183 305.203L54.1112 305.625ZM58.078 287.188C65.7914 256.641 77.1005 227.022 91.1823 198.829L88.9205 197.699C74.7646 226.04 63.3884 255.83 55.6267 286.569L58.078 287.188ZM91.1817 198.83C113.035 155.198 142.109 114.952 177.575 81.4038L175.838 79.567C140.141 113.333 110.896 153.823 88.9211 197.698L91.1817 198.83ZM177.575 81.4035C214.172 46.7644 257.896 19.7578 304.723 1.20749L303.792 -1.14311C256.689 17.5164 212.686 44.6901 175.837 79.5673L177.575 81.4035ZM304.719 1.20896C364.77 -22.3593 430.174 -33.7436 494.582 -28.3253L494.794 -30.8447C429.953 -36.2995 364.161 -24.8363 303.795 -1.14458L304.719 1.20896ZM494.54 -28.3295L494.639 -28.3179L494.934 -30.8289L494.836 -30.8405L494.54 -28.3295ZM493.525 -29.4991L493.53 -29.4005L496.054 -29.5492L496.049 -29.6477L493.525 -29.4991ZM493.531 -29.3943C496.003 9.32605 496.461 48.4307 490.535 86.7721L493.034 87.1583C499.001 48.5531 498.531 9.23891 496.054 -29.5554L493.531 -29.3943ZM491.888 85.7053C453.146 82.5186 414 85.3578 375.808 92.1075L376.248 94.5972C414.272 87.8772 453.197 85.0596 491.681 88.2251L491.888 85.7053ZM375.8 92.1089C354.045 96.0949 332.334 101.588 311.44 108.868L312.272 111.256C333.027 104.023 354.611 98.5618 376.256 94.5958L375.8 92.1089ZM311.444 108.867C293.268 115.117 274.99 122.945 258.009 131.985L259.197 134.217C276.052 125.243 294.207 117.468 312.267 111.257L311.444 108.867ZM258 131.99C254.375 133.955 247.011 137.834 243.343 139.72L244.5 141.968C248.181 140.075 255.562 136.188 259.205 134.212L258 131.99ZM243.336 139.724C196.576 164.165 155.121 198.252 120.893 238.298L122.815 239.941C156.851 200.12 198.057 166.244 244.507 141.964L243.336 139.724ZM120.887 238.305C95.9217 267.917 73.8062 300.446 58.0213 335.972L60.3318 336.999C75.9955 301.745 97.9638 269.418 122.82 239.935L120.887 238.305ZM60.3326 336.997C74.2684 305.494 93.3873 276.399 114.878 249.472L112.902 247.895C91.3175 274.939 72.0674 304.22 58.0204 335.974L60.3326 336.997ZM114.875 249.475C152.019 203.264 198.733 164.585 251.801 138.057L250.671 135.795C197.257 162.497 150.262 201.414 112.905 247.891L114.875 249.475ZM251.832 138.041C254.261 136.742 260.463 133.421 262.811 132.163L261.616 129.935C259.269 131.192 253.068 134.513 250.64 135.811L251.832 138.041ZM262.776 132.181C265.156 131 271.472 127.883 273.932 126.678L272.821 124.407C270.355 125.614 264.035 128.734 261.651 129.917L262.776 132.181ZM273.909 126.69C284.917 121.578 296.889 116.541 308.318 112.506L307.476 110.122C295.954 114.19 283.906 119.26 272.844 124.396L273.909 126.69ZM308.324 112.504C327.745 105.526 347.861 100.116 368.102 95.9937L367.598 93.5162C347.256 97.659 327.02 103.099 307.47 110.124L308.324 112.504ZM368.091 95.9959C408.677 88.102 450.389 84.695 491.613 88.034L491.817 85.5139C450.321 82.1529 408.375 85.5851 367.609 93.5141L368.091 95.9959ZM492.965 86.9583C498.565 48.9711 498.422 9.06631 495.822 -29.5366L493.299 -29.3667C495.893 9.13932 496.027 48.8474 490.464 86.5896L492.965 86.9583ZM493.667 -28.5578L493.771 -28.4534L495.559 -30.2412L495.454 -30.3456L493.667 -28.5578ZM494.771 -30.607C429.971 -36.0851 364.196 -24.6451 303.854 -0.988268L304.777 1.36562C364.804 -22.1679 430.191 -33.5291 494.558 -28.0877L494.771 -30.607ZM303.85 -0.986781C256.759 17.6495 212.762 44.8 175.913 79.6539L177.65 81.4907C214.248 46.8747 257.965 19.8913 304.78 1.36413L303.85 -0.986781ZM175.913 79.6537C140.217 113.402 110.96 153.875 88.9735 197.733L91.2337 198.866C113.099 155.251 142.184 115.022 177.65 81.4909L175.913 79.6537ZM88.9728 197.734C74.8111 226.069 63.4292 255.847 55.65 286.585L58.101 287.206C65.8318 256.658 77.1467 227.051 91.2344 198.864L88.9728 197.734ZM55.6487 286.591C54.121 292.736 52.7041 298.938 51.6359 305.213L54.1284 305.637C55.1814 299.451 56.5814 293.319 58.1023 287.201L55.6487 286.591ZM54.1463 305.425C53.0366 306.68 51.652 305.717 51.6485 305.701C51.6476 305.697 51.6462 305.691 51.6459 305.689C51.6454 305.687 51.6451 305.686 51.6454 305.687C51.6459 305.689 51.6468 305.694 51.6482 305.701C51.6511 305.715 51.6555 305.736 51.6614 305.765C51.6732 305.823 51.6908 305.91 51.7139 306.024C51.7599 306.25 51.8274 306.583 51.9134 307.008C52.0853 307.856 52.3309 309.069 52.6257 310.524C53.2153 313.436 54.0013 317.319 54.7874 321.202C55.5735 325.085 56.3595 328.969 56.9491 331.881C57.2439 333.338 57.4895 334.552 57.6615 335.401C57.7474 335.826 57.815 336.16 57.861 336.387C57.8841 336.501 57.9017 336.588 57.9136 336.647C57.9196 336.677 57.9241 336.699 57.9271 336.714C57.9286 336.721 57.9298 336.727 57.9305 336.731C57.9309 336.733 57.9312 336.734 57.9314 336.735C57.9315 336.735 57.9316 336.736 57.9316 336.736C57.9316 336.736 57.9317 336.736 59.1707 336.486C60.4097 336.235 60.4097 336.235 60.4097 336.234C60.4096 336.234 60.4096 336.234 60.4095 336.233C60.4093 336.232 60.409 336.231 60.4086 336.229C60.4078 336.225 60.4067 336.22 60.4052 336.212C60.4022 336.197 60.3977 336.175 60.3917 336.146C60.3798 336.087 60.3622 336 60.3391 335.886C60.2931 335.658 60.2255 335.324 60.1395 334.9C59.9676 334.05 59.7219 332.836 59.4272 331.38C58.8376 328.467 58.0515 324.583 57.2655 320.7C56.4794 316.817 55.6933 312.934 55.1037 310.023C54.809 308.567 54.5633 307.354 54.3913 306.505C54.3053 306.081 54.2378 305.748 54.1917 305.521C54.1686 305.407 54.1509 305.32 54.1389 305.261C54.133 305.232 54.1283 305.209 54.1251 305.194C54.1236 305.186 54.1222 305.179 54.1211 305.174C54.1207 305.172 54.1198 305.168 54.119 305.164C54.1184 305.161 54.1169 305.154 54.1159 305.149C54.1123 305.134 52.7276 304.17 51.618 305.425H54.1463ZM60.3018 335.921L60.296 335.909L58.0339 337.039L58.0397 337.05L60.3018 335.921Z" fill="white" mask="url(#path-6-outside-1_147_1969)"/>
<path d="M43.77 219.329L43.7273 220.915L44.849 219.792L44.8548 219.787L45.0318 219.609L45.0355 219.488C64.32 175.445 89.1156 133.627 119.91 96.6621L119.91 96.6615C195.27 5.96556 301.927 -47.0707 418.668 -59.3833C441.693 -61.7117 464.933 -62.7998 488.007 -61.0621L488.144 -60.4321L488.693 -61.0096L489.52 -60.9453L489.36 -61.7117L489.98 -62.3647L489.209 -62.4323C488.848 -64.1598 488.274 -66.9181 487.76 -69.3854C487.388 -71.1679 487.049 -72.7986 486.844 -73.7791L486.841 -73.7924C480.461 -101.366 471.134 -128.436 459.672 -154.278L459.672 -154.279C455.28 -164.166 450.601 -173.936 445.415 -183.455L445.227 -183.8L444.834 -183.784C366.512 -180.58 288.977 -156.012 223.945 -112.064C191.495 -90.578 162.862 -64.4691 138.515 -34.9677C112.917 -4.23154 92.2303 30.3591 76.7805 67.1967C56.5803 115.051 45.1852 166.788 43.77 219.329ZM44.3934 219.339H44.3934H44.3934ZM44.3973 219.341L44.3973 219.341L44.3973 219.341ZM44.3975 219.341L44.4019 219.346H44.4077L44.4078 219.346L44.408 219.346L44.408 219.346L44.3975 219.341ZM118.897 95.819C88.704 132.087 64.2805 173.007 45.1525 216.088C47.1095 165.168 58.276 114.568 77.9686 67.6323C93.467 30.9322 114.16 -3.47421 139.512 -34.189C147.377 -43.6305 155.706 -52.7066 164.491 -61.3704L164.495 -61.3746C238.076 -135.302 340.475 -178.18 444.431 -182.285C449.087 -173.317 454.168 -163.284 458.311 -153.679L458.314 -153.673C469.173 -129.14 478.208 -103.495 484.463 -77.3917L484.466 -77.3801C485.254 -74.3449 486.109 -70.1891 486.886 -66.4093C487.164 -65.0561 487.433 -63.7511 487.685 -62.5629C482.167 -63.0142 476.634 -63.2059 471.115 -63.3045L471.113 -63.3045C453.546 -63.5715 435.982 -62.6426 418.521 -60.8147L418.52 -60.8146C301.466 -48.4302 194.474 4.79588 118.897 95.819Z" fill="white" stroke="white" stroke-width="1.26416"/>
</g>
</g>
</svg>
