<svg width="1277" height="881" viewBox="0 0 1277 881" fill="none" xmlns="http://www.w3.org/2000/svg">
<path d="M689.026 37.8238L689.025 37.8226C684.391 26.9486 679.517 16.1523 674.031 5.67229C673.293 4.26129 672.544 2.85602 671.782 1.45706L672.143 1.48617L674.473 1.67422L682.793 2.34531C689.679 2.90067 698.861 3.64104 708.041 4.38114C717.221 5.12124 726.399 5.86105 733.279 6.41529C736.72 6.69241 739.585 6.92313 741.589 7.08429L743.913 7.27098L744.522 7.31977L744.619 7.32745C778 51.8958 807.665 99.5936 831.288 150.055L831.289 150.056C879.183 250.865 901.391 364.017 890.617 475.361L890.617 475.362C882.068 565.054 853.945 652.818 809.215 731.005C800.702 745.703 791.718 760.178 781.561 773.789L766.109 757.042C766.108 757.042 766.108 757.042 766.108 757.041C733.776 721.153 701.953 683.852 675.295 643.535C672.33 639.003 668.768 633.207 666.279 628.888C680.022 601.668 692.241 573.663 702.543 544.961C705.743 536.111 709.516 524.991 712.27 516.013C734.594 444.769 745.071 369.868 743.444 295.245L743.444 295.244C741.316 207.105 723.168 119.171 689.026 37.8238ZM674.649 643.928C705.567 690.585 743.098 733.401 781.06 774.458L780.963 774.588L781.174 774.581C781.21 774.62 781.246 774.659 781.283 774.698L781.284 774.7L781.427 774.852L781.621 775.058L781.795 774.834L781.921 774.674L781.923 774.67C781.953 774.631 781.982 774.591 782.012 774.552L782.257 774.543L782.125 774.4C792.363 760.714 801.395 746.187 809.939 731.409L809.939 731.408C854.695 653.108 882.822 565.224 891.333 475.417C899.415 389.854 888.588 302.693 860.775 221.433C851.923 195.076 841.088 169.025 829.082 143.967L829.082 143.966C805.82 95.6279 777.15 49.7943 744.978 6.92149L744.967 6.90772L744.955 6.89555C744.891 6.84959 744.812 6.82615 744.809 6.82573L744.803 6.82515L744.791 6.82409L744.75 6.82062L744.592 6.80756L744.423 6.79385L744.19 6.75505L744.206 6.7762L743.977 6.75753C743.438 6.7139 742.649 6.65017 741.645 6.56922C739.636 6.40732 736.767 6.17653 733.325 5.89983C726.44 5.34643 717.261 4.60941 708.082 3.87266C698.903 3.13592 689.724 2.39945 682.84 1.84717L674.522 1.17988L672.192 0.992943L671.578 0.943695L671.421 0.931068L671.381 0.927872L671.371 0.927068L671.368 0.926867C671.368 0.926851 671.368 0.926839 671.367 0.936438L671.362 0.93604L671.36 0.935863C671.36 0.935863 671.36 0.935971 671.36 0.936185C671.361 0.937044 671.363 0.939614 671.366 0.943737C671.364 0.966175 671.36 1.01842 671.35 1.14004L671.339 1.14593V0.934959C671.293 0.978962 671.264 1.02368 671.247 1.06727L671.176 0.997033L671.167 1.00597L671.242 1.08033C671.227 1.12366 671.223 1.16567 671.227 1.20452L671.122 1.25952L671.131 1.27739L671.131 1.27714C671.133 1.2797 671.134 1.28226 671.136 1.28482L671.135 1.28516C671.971 2.81523 672.793 4.35301 673.601 5.89775C679.072 16.3554 683.931 27.1323 688.56 37.9943C722.643 119.283 740.734 207.166 742.825 295.237C744.415 369.791 733.918 444.612 711.592 515.779L711.592 515.78C708.84 524.739 705.079 535.817 701.863 544.689L701.863 544.69C691.535 573.421 679.278 601.456 665.51 628.697L665.452 628.811L665.514 628.923C668.271 633.936 671.501 639.107 674.648 643.927L674.649 643.928Z" fill="white" stroke="black" stroke-width="0.485461"/>
<path d="M818.125 26.0746C860.481 83.4502 891.078 149.085 912.512 216.923L912.513 216.926C915.767 227.645 919.352 240.455 922.15 251.37L922.151 251.375L922.475 252.742C923.8 258.329 925.374 264.969 926.62 270.367L926.622 270.375C927.022 272.403 927.541 274.898 928.092 277.547C929.186 282.811 930.407 288.681 931.073 292.697C931.385 294.516 931.749 296.605 932.122 298.755C932.723 302.207 933.35 305.815 933.835 308.713L933.836 308.719C934.07 310.394 934.323 312.17 934.586 314.009C935.693 321.776 936.959 330.656 937.617 337.736C938.521 345.017 939.414 356.226 939.906 363.643C940.183 366.901 940.55 373.371 940.63 376.638C940.63 376.639 940.63 376.64 940.63 376.641L940.488 376.645C941.936 406.88 940.827 437.471 938.02 467.568L818.125 26.0746ZM818.125 26.0746L840.415 33.0032C845.64 34.629 850.799 36.2342 854.72 37.4546C856.792 38.0997 858.519 38.6373 859.728 39.0136L861.13 39.4504L861.499 39.5654L861.579 39.5903C890.468 63.7981 916.166 91.6398 939.985 120.799C1008.03 204.923 1058.05 304.919 1077.81 411.635C1087.53 464.841 1089.55 519.683 1085.05 573.562C1076.31 674.339 1046.51 773.65 996.72 861.792C996.696 861.79 996.67 861.788 996.641 861.786C996.462 861.773 996.185 861.756 995.816 861.735C995.077 861.692 993.969 861.633 992.543 861.56C989.692 861.413 985.572 861.21 980.604 860.969C970.669 860.488 957.345 859.857 944.01 859.234C930.674 858.61 917.328 857.994 907.348 857.542C902.358 857.316 898.21 857.13 895.326 857.005C893.884 856.943 892.757 856.896 891.999 856.866C891.62 856.851 891.333 856.841 891.144 856.835C891.054 856.832 890.984 856.83 890.938 856.83C878.066 849.398 865.401 841.601 853.111 833.253L853.108 833.251C840.982 825.288 828.597 815.276 817.949 806.438C828.737 792.93 838.136 778.382 846.981 763.557L846.982 763.556C882.235 703.76 906.731 637.906 922.08 570.313C929.759 536.645 935.123 501.986 938.199 467.586L818.125 26.0746ZM817.477 25.3764L817.469 25.4323C817.396 25.4861 817.304 25.588 817.311 25.749L817.291 25.7635C817.291 25.7635 817.291 25.7636 817.291 25.7636C859.821 83.2381 890.499 149.051 911.978 217.087C915.22 227.788 918.811 240.67 921.599 251.506C921.899 252.779 922.216 254.121 922.542 255.503C923.712 260.455 925.002 265.913 926.057 270.482C926.453 272.488 926.958 274.919 927.493 277.496C928.589 282.773 929.812 288.665 930.496 292.786L930.497 292.787C930.842 294.814 931.252 297.182 931.669 299.598C932.225 302.81 932.795 306.106 933.248 308.798C933.477 310.438 933.723 312.175 933.978 313.974C935.082 321.76 936.349 330.693 937.009 337.794L937.01 337.801C937.903 345.078 938.805 356.315 939.288 363.687L939.288 363.692C939.565 366.895 939.931 373.441 940.002 376.653L940.002 376.659C941.45 406.87 940.342 437.441 937.537 467.523L937.536 467.524C934.454 501.894 929.076 536.532 921.392 570.16L921.606 570.209L921.392 570.16C906.034 637.676 881.538 703.455 846.305 763.165C837.433 778.032 827.993 792.624 817.171 806.134L817.032 806.308L817.194 806.462C827.799 816.503 840.46 825.503 852.64 833.93L852.642 833.932C864.972 842.31 877.668 850.133 890.568 857.588L890.596 857.605L890.627 857.613C890.641 857.616 890.66 857.619 890.665 857.62L890.676 857.621L890.696 857.622L890.76 857.626L890.827 857.63L890.996 857.639C891.202 857.649 891.505 857.664 891.898 857.684C892.684 857.722 893.832 857.777 895.29 857.846C898.206 857.985 902.363 858.18 907.347 858.413C917.315 858.879 930.591 859.497 943.868 860.113C970.413 861.345 996.978 862.572 997.075 862.572H997.217L997.287 862.449C1047.18 774.119 1077.02 674.617 1085.75 573.631C1090.18 520.865 1088.22 467.177 1079.11 414.999L1079.11 414.998C1059.68 306.895 1009.29 205.53 940.398 120.467L940.397 120.466C916.538 91.2795 890.798 63.4105 861.853 39.1782L861.816 39.1469L861.769 39.1325L840.559 32.5395C840.261 32.4468 839.962 32.3539 839.664 32.2611C834.136 30.5412 828.609 28.8217 824.464 27.5327C822.391 26.8882 820.664 26.3513 819.456 25.9758C818.851 25.788 818.377 25.6406 818.053 25.5403L817.684 25.4259L817.589 25.3967L817.564 25.3891L817.556 25.3867L817.55 25.3851C817.549 25.3847 817.522 25.3958 817.486 25.4199V25.3764H817.477ZM890.915 857.072L890.996 856.868C891.013 856.878 891.03 856.889 891.045 856.901C891.069 856.958 891.071 857.019 891.062 857.075C890.996 857.073 890.947 857.072 890.915 857.072ZM940.488 376.642C940.488 376.641 940.487 376.64 940.487 376.639C940.416 373.416 940.049 366.869 939.772 363.655L940.488 376.642Z" fill="white" stroke="black" stroke-width="0.485461"/>
<path d="M989 105.768L988.754 106.077L988.686 106.128C988.686 106.128 988.686 106.128 988.686 106.128C1008.74 132.897 1027.84 161.166 1044.49 190.165L1044.49 190.167C1169.38 403.826 1165.08 648.636 1048.64 865.022L1048.46 865.353L1048.81 865.377L1048.74 865.511L1049.12 865.532C1051.77 865.674 1054.42 865.821 1057.08 865.971C1114.86 870.132 1174.6 874.646 1232.55 880.071L1232.73 880.088L1232.8 879.918C1254.49 824.493 1267.03 765.755 1272.93 706.628L1272.93 706.627C1283.22 598.751 1270.8 487.183 1227.05 387.428L1227.05 387.427C1206.17 340.509 1179.82 295.655 1148.63 254.851L1148.63 254.851C1145.2 250.391 1141.73 245.965 1138.2 241.576C1132.32 234.231 1126.29 227.011 1120.11 219.92C1093.56 189.377 1064.35 161.036 1032.44 136.214C1018.61 125.321 1004.25 115.116 989.233 105.914C989.155 105.865 989.078 105.817 989 105.768ZM1232.11 879.445C1175.07 873.806 1114.56 868.738 1057.11 865.487C1054.6 865.306 1052.1 865.126 1049.6 864.947C1065.57 835.497 1079.49 804.942 1091.32 773.601C1165.72 577.555 1151.01 371.364 1044.95 189.904C1028.48 161.27 1009.65 133.359 989.854 106.878C1004.44 116.076 1018.54 126.016 1032.14 136.596C1046.98 148.284 1061.21 160.765 1075 173.651C1090.64 188.443 1105.58 203.999 1119.74 220.24C1125.91 227.339 1131.94 234.558 1137.82 241.879C1175.61 289.097 1207.03 341.439 1230.49 397.155C1291.95 544.576 1289.16 731.028 1232.11 879.445Z" fill="white" stroke="black" stroke-width="0.485461"/>
<mask id="path-4-outside-1_158_745" maskUnits="userSpaceOnUse" x="461.142" y="665.809" width="347" height="190" fill="black">
<rect fill="white" x="461.142" y="665.809" width="347" height="190"/>
<path d="M807.307 854.536C738.993 803.434 680.035 739.078 634.179 667.582L628.781 667.162C623.643 666.939 617.691 667.019 612.516 667.162C572.8 668.914 533.12 673.731 494.056 680.997C483.403 683.025 472.804 685.42 462.437 688.62L462.544 688.379C472.884 711.168 485.584 732.912 499.186 753.896C519.652 785.283 542.968 815.222 568.466 842.658C568.403 842.631 577.224 851.997 576.929 851.801C652.795 851.703 731.673 852.453 807.316 854.527C731.727 852.525 652.759 851.845 576.929 851.997C576.84 852.069 568.385 842.801 568.323 842.801C539.956 812.29 514.289 778.83 492.206 743.493C481.187 725.78 470.829 707.54 462.222 688.513L462.142 688.334L462.329 688.28C472.723 685.09 483.323 682.704 493.993 680.675C533.084 673.445 572.782 668.655 612.516 666.939C617.682 666.814 623.652 666.715 628.799 666.957L634.215 667.386H634.26C680.428 739.248 738.921 803.291 807.316 854.545L807.307 854.536Z"/>
</mask>
<path d="M807.307 854.536C738.993 803.434 680.035 739.078 634.179 667.582L628.781 667.162C623.643 666.939 617.691 667.019 612.516 667.162C572.8 668.914 533.12 673.731 494.056 680.997C483.403 683.025 472.804 685.42 462.437 688.62L462.544 688.379C472.884 711.168 485.584 732.912 499.186 753.896C519.652 785.283 542.968 815.222 568.466 842.658C568.403 842.631 577.224 851.997 576.929 851.801C652.795 851.703 731.673 852.453 807.316 854.527C731.727 852.525 652.759 851.845 576.929 851.997C576.84 852.069 568.385 842.801 568.323 842.801C539.956 812.29 514.289 778.83 492.206 743.493C481.187 725.78 470.829 707.54 462.222 688.513L462.142 688.334L462.329 688.28C472.723 685.09 483.323 682.704 493.993 680.675C533.084 673.445 572.782 668.655 612.516 666.939C617.682 666.814 623.652 666.715 628.799 666.957L634.215 667.386H634.26C680.428 739.248 738.921 803.291 807.316 854.545L807.307 854.536Z" fill="white"/>
<path d="M807.307 854.536L807.651 854.192L807.626 854.168L807.598 854.147L807.307 854.536ZM634.179 667.582L634.588 667.32L634.458 667.117L634.217 667.098L634.179 667.582ZM628.781 667.162L628.819 666.678L628.811 666.677L628.803 666.677L628.781 667.162ZM612.516 667.162L612.503 666.677L612.495 666.677L612.516 667.162ZM494.056 680.997L493.967 680.519L493.965 680.52L494.056 680.997ZM462.437 688.62L461.993 688.423L461.559 689.399L462.58 689.084L462.437 688.62ZM462.544 688.379L462.986 688.178L462.539 687.194L462.1 688.181L462.544 688.379ZM499.186 753.896L498.778 754.16L498.779 754.161L499.186 753.896ZM568.466 842.658L568.274 843.104L568.821 842.328L568.466 842.658ZM576.929 851.801L576.928 851.315L575.329 851.317L576.66 852.205L576.929 851.801ZM807.316 854.527L807.303 855.012L807.33 854.041L807.316 854.527ZM576.929 851.997L576.928 851.512L576.758 851.512L576.626 851.618L576.929 851.997ZM568.323 842.801L567.967 843.132L568.111 843.287H568.323V842.801ZM492.206 743.493L491.794 743.75L491.794 743.75L492.206 743.493ZM462.222 688.513L461.78 688.712L461.78 688.713L462.222 688.513ZM462.142 688.334L462.008 687.867L461.469 688.021L461.699 688.533L462.142 688.334ZM462.329 688.28L462.463 688.747L462.472 688.744L462.329 688.28ZM493.993 680.675L493.905 680.198L493.903 680.198L493.993 680.675ZM612.516 666.939L612.504 666.453L612.495 666.454L612.516 666.939ZM628.799 666.957L628.838 666.473L628.83 666.472L628.822 666.472L628.799 666.957ZM634.215 667.386L634.177 667.869L634.196 667.871H634.215V667.386ZM634.26 667.386L634.668 667.123L634.525 666.9H634.26V667.386ZM807.316 854.545L807.025 854.933L807.659 854.201L807.316 854.545ZM807.598 854.147C739.332 803.081 680.414 738.769 634.588 667.32L633.771 667.844C679.657 739.387 738.653 803.786 807.016 854.924L807.598 854.147ZM634.217 667.098L628.819 666.678L628.744 667.646L634.142 668.066L634.217 667.098ZM628.803 666.677C623.646 666.453 617.68 666.534 612.503 666.677L612.529 667.647C617.701 667.504 623.639 667.424 628.76 667.647L628.803 666.677ZM612.495 666.677C572.754 668.43 533.051 673.25 493.967 680.519L494.145 681.474C533.188 674.212 572.846 669.398 612.537 667.647L612.495 666.677ZM493.965 680.52C483.302 682.55 472.684 684.949 462.294 688.156L462.58 689.084C472.924 685.891 483.504 683.5 494.147 681.473L493.965 680.52ZM462.88 688.817L462.988 688.576L462.1 688.181L461.993 688.423L462.88 688.817ZM462.102 688.579C472.455 711.398 485.169 733.164 498.778 754.16L499.593 753.632C485.999 732.66 473.313 710.938 462.986 688.178L462.102 688.579ZM498.779 754.161C519.26 785.571 542.593 815.531 568.11 842.989L568.821 842.328C543.343 814.912 520.043 784.995 499.592 753.631L498.779 754.161ZM568.657 842.212C568.607 842.194 568.428 842.174 568.304 842.2C568.126 842.311 567.983 842.605 567.985 842.727C567.994 842.777 568.019 842.851 568.03 842.874C568.037 842.888 568.05 842.91 568.055 842.919C568.072 842.945 568.089 842.966 568.091 842.968C568.101 842.981 568.112 842.994 568.12 843.003C568.138 843.023 568.164 843.052 568.195 843.086C568.257 843.154 568.35 843.255 568.467 843.381C568.703 843.635 569.041 843.999 569.448 844.434C570.256 845.299 571.356 846.475 572.43 847.625C573.51 848.781 574.582 849.932 575.365 850.781C575.757 851.206 576.076 851.553 576.286 851.788C576.392 851.906 576.467 851.991 576.51 852.042C576.535 852.073 576.536 852.075 576.528 852.063C576.525 852.059 576.514 852.043 576.502 852.019C576.496 852.007 576.484 851.983 576.473 851.949C576.467 851.928 576.439 851.843 576.456 851.732C576.467 851.677 576.516 851.559 576.557 851.5C576.61 851.444 576.732 851.363 576.797 851.339C576.939 851.296 577.055 851.333 577.08 851.341C577.149 851.363 577.196 851.396 577.198 851.397L576.66 852.205C576.666 852.209 576.717 852.244 576.788 852.267C576.815 852.275 576.931 852.312 577.074 852.269C577.139 852.244 577.262 852.163 577.315 852.107C577.356 852.048 577.405 851.93 577.416 851.874C577.433 851.763 577.406 851.676 577.398 851.654C577.387 851.619 577.374 851.593 577.368 851.579C577.354 851.552 577.34 851.53 577.333 851.521C577.309 851.485 577.277 851.446 577.254 851.419C577.2 851.354 577.115 851.258 577.009 851.139C576.793 850.899 576.471 850.547 576.079 850.122C575.293 849.271 574.219 848.119 573.139 846.962C572.053 845.798 570.977 844.649 570.158 843.772C569.751 843.336 569.413 842.974 569.179 842.721C569.062 842.595 568.972 842.497 568.912 842.432C568.882 842.399 568.862 842.376 568.85 842.363C568.843 842.355 568.844 842.355 568.847 842.36C568.849 842.361 568.852 842.365 568.855 842.37C568.858 842.373 568.866 842.384 568.876 842.4C568.881 842.408 568.893 842.43 568.9 842.443C568.911 842.467 568.936 842.54 568.946 842.59C568.948 842.712 568.804 843.006 568.626 843.116C568.502 843.142 568.324 843.123 568.274 843.104L568.657 842.212ZM576.93 852.286C652.792 852.188 731.666 852.939 807.303 855.012L807.33 854.041C731.681 851.968 652.798 851.217 576.928 851.315L576.93 852.286ZM807.329 854.041C731.734 852.039 652.762 851.36 576.928 851.512L576.93 852.483C652.757 852.331 731.72 853.01 807.303 855.012L807.329 854.041ZM576.626 851.618C576.739 851.528 576.86 851.512 576.931 851.512C577 851.513 577.053 851.528 577.079 851.537C577.131 851.554 577.167 851.576 577.175 851.582C577.198 851.596 577.211 851.608 577.206 851.604C577.201 851.6 577.185 851.585 577.154 851.555C577.093 851.497 577.003 851.407 576.884 851.284C576.647 851.041 576.312 850.687 575.909 850.258C575.104 849.401 574.039 848.251 572.972 847.097C571.907 845.944 570.84 844.786 570.037 843.919C569.636 843.485 569.299 843.122 569.061 842.867C568.942 842.74 568.846 842.639 568.778 842.568C568.745 842.534 568.715 842.504 568.693 842.482C568.682 842.471 568.668 842.458 568.654 842.445C568.648 842.44 568.634 842.427 568.616 842.414C568.608 842.408 568.588 842.394 568.562 842.379C568.549 842.372 568.515 842.356 568.495 842.347C568.463 842.337 568.377 842.319 568.323 842.316V843.287C568.268 843.284 568.182 843.266 568.151 843.255C568.131 843.247 568.098 843.232 568.085 843.225C568.06 843.21 568.042 843.197 568.035 843.192C568.02 843.181 568.01 843.172 568.009 843.171C568.005 843.167 568.005 843.167 568.012 843.174C568.025 843.187 568.047 843.209 568.079 843.242C568.142 843.307 568.234 843.405 568.352 843.531C568.589 843.783 568.923 844.144 569.325 844.578C570.128 845.446 571.192 846.601 572.259 847.756C573.325 848.91 574.394 850.063 575.201 850.923C575.605 851.353 575.945 851.711 576.188 851.961C576.309 852.086 576.409 852.187 576.483 852.257C576.518 852.291 576.554 852.324 576.587 852.351C576.6 852.362 576.628 852.385 576.662 852.406C576.676 852.415 576.716 852.439 576.771 852.458C576.799 852.467 576.853 852.483 576.924 852.483C576.996 852.484 577.118 852.468 577.232 852.377L576.626 851.618ZM568.678 842.471C540.333 811.982 514.685 778.547 492.618 743.236L491.794 743.75C513.894 779.114 539.58 812.598 567.967 843.132L568.678 842.471ZM492.618 743.237C481.605 725.534 471.259 707.313 462.665 688.313L461.78 688.713C470.398 707.766 480.768 726.026 491.794 743.75L492.618 743.237ZM462.665 688.313L462.585 688.135L461.699 688.533L461.78 688.712L462.665 688.313ZM462.275 688.801L462.463 688.747L462.196 687.814L462.008 687.867L462.275 688.801ZM462.472 688.744C472.843 685.561 483.423 683.179 494.084 681.152L493.903 680.198C483.222 682.229 472.604 684.619 462.187 687.816L462.472 688.744ZM494.082 681.152C533.152 673.926 572.828 669.139 612.537 667.424L612.495 666.454C572.736 668.171 533.015 672.964 493.905 680.198L494.082 681.152ZM612.528 667.424C617.694 667.299 623.648 667.201 628.777 667.441L628.822 666.472C623.655 666.229 617.67 666.328 612.504 666.453L612.528 667.424ZM628.761 667.44L634.177 667.869L634.253 666.902L628.838 666.473L628.761 667.44ZM634.215 667.871H634.26V666.9H634.215V667.871ZM633.851 667.648C680.05 739.557 738.581 803.643 807.025 854.933L807.607 854.156C739.261 802.939 680.807 738.94 634.668 667.123L633.851 667.648ZM807.659 854.201L807.651 854.192L806.964 854.879L806.973 854.888L807.659 854.201Z" fill="black" mask="url(#path-4-outside-1_158_745)"/>
<mask id="path-6-outside-2_158_745" maskUnits="userSpaceOnUse" x="257.951" y="702.296" width="253" height="157" fill="black">
<rect fill="white" x="257.951" y="702.296" width="253" height="157"/>
<path d="M296.576 858.353C282.661 836.654 269.801 814.079 258.951 790.736C271.365 781.763 284.118 773.282 297.059 765.095C322.029 749.348 348.187 734.674 374.864 721.974C381.933 718.766 391.335 714.422 398.521 711.58C401.568 710.302 406.099 708.426 409.191 707.344L419.96 703.341L420.094 703.296L420.148 703.43C441.168 757.669 472.126 807.787 509.42 852.33C439.497 853.67 367.214 854.993 296.576 858.353C367.214 855.306 439.112 852.785 509.241 852.481C471.876 807.966 440.81 757.856 419.88 703.537L420.059 703.618C416.144 705.083 407.654 708.167 403.927 709.632C401.273 710.74 395.965 712.912 393.319 714.02C388.377 715.978 379.869 720.026 374.963 722.189C348.277 734.852 322.118 749.491 297.13 765.212C284.18 773.38 271.418 781.843 258.996 790.798C269.917 813.891 282.643 836.717 296.567 858.353H296.576Z"/>
</mask>
<path d="M296.576 858.353C282.661 836.654 269.801 814.079 258.951 790.736C271.365 781.763 284.118 773.282 297.059 765.095C322.029 749.348 348.187 734.674 374.864 721.974C381.933 718.766 391.335 714.422 398.521 711.58C401.568 710.302 406.099 708.426 409.191 707.344L419.96 703.341L420.094 703.296L420.148 703.43C441.168 757.669 472.126 807.787 509.42 852.33C439.497 853.67 367.214 854.993 296.576 858.353C367.214 855.306 439.112 852.785 509.241 852.481C471.876 807.966 440.81 757.856 419.88 703.537L420.059 703.618C416.144 705.083 407.654 708.167 403.927 709.632C401.273 710.74 395.965 712.912 393.319 714.02C388.377 715.978 379.869 720.026 374.963 722.189C348.277 734.852 322.118 749.491 297.13 765.212C284.18 773.38 271.418 781.843 258.996 790.798C269.917 813.891 282.643 836.717 296.567 858.353H296.576Z" fill="white"/>
<path d="M296.576 858.353V858.839H296.586L296.597 858.838L296.576 858.353ZM258.951 790.736L258.667 790.342L258.342 790.577L258.511 790.94L258.951 790.736ZM297.059 765.095L296.8 764.685L296.799 764.685L297.059 765.095ZM374.864 721.974L374.664 721.532L374.656 721.536L374.864 721.974ZM398.521 711.58L398.699 712.032L398.708 712.028L398.521 711.58ZM409.191 707.344L409.352 707.803L409.361 707.799L409.191 707.344ZM419.96 703.341L419.807 702.88L419.799 702.883L419.791 702.886L419.96 703.341ZM420.094 703.296L420.545 703.116L420.375 702.691L419.941 702.835L420.094 703.296ZM420.148 703.43L420.601 703.254L420.599 703.25L420.148 703.43ZM509.42 852.33L509.429 852.815L510.443 852.796L509.792 852.018L509.42 852.33ZM509.241 852.481L509.243 852.967L510.279 852.962L509.613 852.169L509.241 852.481ZM419.88 703.537L420.079 703.094L419.002 702.61L419.427 703.712L419.88 703.537ZM420.059 703.618L420.229 704.072L421.333 703.659L420.258 703.175L420.059 703.618ZM403.927 709.632L403.75 709.18L403.74 709.184L403.927 709.632ZM393.319 714.02L393.498 714.472L393.507 714.468L393.319 714.02ZM374.963 722.189L374.767 721.744L374.754 721.75L374.963 722.189ZM297.13 765.212L296.872 764.801L296.871 764.801L297.13 765.212ZM258.996 790.798L258.712 790.404L258.384 790.641L258.557 791.006L258.996 790.798ZM296.567 858.353L296.159 858.616L296.302 858.839H296.567V858.353ZM296.985 858.091C283.079 836.406 270.23 813.85 259.391 790.531L258.511 790.94C269.372 814.308 282.243 836.902 296.167 858.615L296.985 858.091ZM259.236 791.129C271.639 782.164 284.383 773.688 297.318 765.506L296.799 764.685C283.852 772.875 271.09 781.362 258.667 790.342L259.236 791.129ZM297.318 765.506C322.274 749.768 348.415 735.103 375.073 722.413L374.656 721.536C347.959 734.245 321.784 748.929 296.8 764.685L297.318 765.506ZM375.065 722.416C382.141 719.205 391.528 714.868 398.699 712.032L398.342 711.129C391.142 713.977 381.726 718.327 374.664 721.532L375.065 722.416ZM398.708 712.028C401.758 710.749 406.276 708.878 409.352 707.803L409.031 706.886C405.923 707.973 401.378 709.856 398.333 711.133L398.708 712.028ZM409.361 707.799L420.13 703.796L419.791 702.886L409.022 706.889L409.361 707.799ZM420.114 703.801L420.248 703.756L419.941 702.835L419.807 702.88L420.114 703.801ZM419.644 703.476L419.697 703.61L420.599 703.25L420.545 703.116L419.644 703.476ZM419.695 703.605C440.737 757.9 471.724 808.064 509.048 852.641L509.792 852.018C472.528 807.511 441.599 757.438 420.601 703.254L419.695 703.605ZM509.411 851.844C439.489 853.185 367.199 854.507 296.553 857.868L296.599 858.838C367.229 855.478 439.504 854.156 509.429 852.815L509.411 851.844ZM296.597 858.838C367.233 855.791 439.124 853.271 509.243 852.967L509.239 851.996C439.101 852.3 367.195 854.82 296.555 857.868L296.597 858.838ZM509.613 852.169C472.277 807.689 441.242 757.625 420.333 703.363L419.427 703.712C440.379 758.087 471.474 808.243 508.869 852.794L509.613 852.169ZM419.681 703.98L419.859 704.06L420.258 703.175L420.079 703.094L419.681 703.98ZM419.889 703.163C415.985 704.625 407.481 707.713 403.75 709.18L404.105 710.084C407.828 708.62 416.304 705.542 420.229 704.072L419.889 703.163ZM403.74 709.184C401.102 710.286 395.767 712.469 393.132 713.573L393.507 714.468C396.162 713.356 401.444 711.195 404.114 710.08L403.74 709.184ZM393.14 713.569C388.189 715.53 379.646 719.594 374.767 721.744L375.158 722.633C380.092 720.458 388.565 716.425 393.498 714.472L393.14 713.569ZM374.754 721.75C348.049 734.423 321.873 749.072 296.872 764.801L297.389 765.622C322.363 749.911 348.504 735.282 375.171 722.627L374.754 721.75ZM296.871 764.801C283.915 772.973 271.145 781.442 258.712 790.404L259.28 791.192C271.692 782.244 284.445 773.787 297.389 765.622L296.871 764.801ZM258.557 791.006C269.487 814.119 282.224 836.962 296.159 858.616L296.975 858.09C283.062 836.471 270.346 813.664 259.435 790.591L258.557 791.006ZM296.567 858.839H296.576V857.868H296.567V858.839Z" fill="black" mask="url(#path-6-outside-2_158_745)"/>
<path d="M174.056 865.096L174.24 865.339L174.249 865.493C175.945 865.405 177.838 865.294 179.887 865.168C197.666 864.135 226.279 862.423 241.26 861.516L241.263 861.516L241.505 861.498L241.879 861.471L241.7 861.141L241.584 860.926L241.584 860.926L241.581 860.921C237.785 854.292 234.104 847.592 230.557 840.821C227.065 834.144 223.653 827.41 220.577 820.531L220.727 820.401L220.495 820.347C220.482 820.319 220.469 820.29 220.456 820.262L220.456 820.261L220.376 820.082L220.24 819.782L219.994 820L219.843 820.133C219.842 820.133 219.842 820.133 219.842 820.133C219.823 820.15 219.804 820.167 219.785 820.183L219.559 820.131L219.638 820.311C203.593 834.343 188.408 849.347 174.056 865.096ZM179.843 864.684C178.059 864.788 176.384 864.885 174.843 864.973C189.144 849.601 204.126 834.845 219.967 821.061C221.445 824.41 223.025 827.703 224.628 830.977L224.628 830.977C229.621 841.156 235.04 851.133 240.697 860.96C230.912 861.195 214.018 862.362 198.711 863.42C191.84 863.895 185.289 864.348 179.843 864.684Z" fill="white" stroke="black" stroke-width="0.485461"/>
<path d="M108.741 869.919L106.454 870.121C105.037 870.245 103.366 870.391 101.502 870.554C97.9784 870.862 93.7647 871.23 89.2667 871.623L79.5064 872.475C71.5089 873.174 63.513 873.873 57.521 874.399C54.525 874.661 52.0299 874.881 50.286 875.035C49.4141 875.112 48.7298 875.173 48.2647 875.215C48.0321 875.236 47.8541 875.252 47.7346 875.263L47.728 875.263L44.4149 868.077C66.7516 818.48 93.6738 770.601 125.859 726.641L125.859 726.64C138.053 709.783 151.525 693.22 165.222 677.575C272.387 555.634 420.827 482.913 581.868 466.582L581.869 466.582C614.852 463.101 649.566 462.379 681.914 464.569C664.588 517.033 644.657 569.862 619.408 618.56C558.486 620.758 498.536 631.236 441.074 649.154C313.343 688.984 197.904 765.574 111.401 869.685L111.309 869.693L110.773 869.74L108.741 869.919ZM581.792 465.751C420.574 482.183 272.037 555.011 164.768 677.165C148.246 695.905 132.467 716.091 118.002 736.501L118.001 736.502C89.1432 777.813 64.4875 822.011 43.8998 867.996L43.8547 868.097L43.9009 868.197L47.3328 875.633L47.3583 875.621L47.3595 875.624L47.361 875.623C47.4345 875.723 47.5387 875.773 47.5493 875.774L47.5645 875.774L47.5797 875.773L47.5819 875.773L48.0124 875.88L47.9492 875.743C48.0457 875.735 48.1602 875.726 48.2918 875.714C48.7604 875.675 49.4475 875.615 50.3218 875.539C52.0704 875.388 54.5684 875.17 57.5659 874.907C63.561 874.382 71.5547 873.68 79.5488 872.977C87.543 872.274 95.5377 871.569 101.535 871.041L106.524 870.602C107.376 870.527 108.136 870.461 108.792 870.403C109.666 870.326 110.353 870.266 110.821 870.225L111.1 870.2C111.203 870.191 111.288 870.183 111.355 870.177L111.492 870.165L111.524 870.162L111.528 870.162L111.533 870.161L111.534 870.161L111.539 870.16L111.547 870.159C111.55 870.159 111.594 870.116 111.628 870.045L111.687 870.099L111.696 870.09L111.704 870.082L111.711 870.074C181.738 785.99 271.694 718.822 371.895 675.356C427.652 651.169 486.581 634.321 547.014 625.982L547.014 625.982C571.109 622.596 595.365 620.487 619.668 619.281L619.805 619.274L619.87 619.154C626.523 606.885 632.478 594.26 638.172 581.531L638.173 581.529C654.842 543.381 670.468 503.647 682.662 464.295L682.751 464.007L682.451 463.981C648.953 461.093 615.199 462.452 581.793 465.751L581.792 465.751Z" fill="white" stroke="black" stroke-width="0.485461"/>
<path d="M695.722 237.947L695.722 237.946L695.713 237.795L695.701 237.592L695.499 237.569L695.347 237.551L695.347 237.551L695.339 237.55C695.222 237.54 695.105 237.53 694.988 237.521L694.836 237.368L694.846 237.509C595.316 229.222 494.31 246.846 401.595 283.234L401.595 283.234C329.151 311.933 261.489 353.72 204.84 407.338C149.954 459.256 104.975 521.526 71.1727 589.015L71.1725 589.015C49.3949 632.615 31.8987 678.434 19.9631 725.702L19.9629 725.703C17.6118 735.17 15.4385 744.686 13.8105 754.302L13.8029 754.346L13.8119 754.391L23.5265 802.284L23.5328 802.315L695.483 238.015C695.482 237.997 695.481 237.979 695.479 237.962L695.722 237.947ZM695.722 237.947C695.729 238.056 695.736 238.166 695.742 238.275M695.722 237.947L695.742 238.275M695.742 238.275L695.924 238.456L695.753 238.442" fill="white" stroke="black" stroke-width="0.485461"/>
<path d="M680.499 163.85C670.838 123.535 656.888 83.9355 640.122 46.0604C633.704 31.1823 625.834 15.6483 618.641 1.79396C618.562 1.64969 618.484 1.50545 618.406 1.36126L618.414 1.58216C618.363 1.58413 618.312 1.58611 618.26 1.5881M680.499 163.85L685.441 187.754M680.499 163.85C681.721 168.555 683.049 175.012 684.25 180.853C684.76 183.332 685.247 185.7 685.694 187.776L680.499 163.85ZM618.26 1.5881C618.237 1.54255 618.213 1.49702 618.189 1.45151L618.396 1.34404C618.395 1.3427 618.395 1.34136 618.394 1.34002C504.771 5.71979 392.323 40.0986 295.975 100.256C290.096 103.947 284.278 107.738 278.523 111.627L278.521 111.628C275.462 113.653 272.426 115.705 269.411 117.784C239.466 138.645 211.326 162.126 185.487 188.087C181.51 192.009 177.594 195.986 173.739 200.015C164.515 209.804 155.625 219.887 147.079 230.242M618.26 1.5881C625.498 15.5218 633.435 31.1731 639.899 46.1566L639.9 46.1587C656.661 84.0223 670.606 123.608 680.263 163.907L680.264 163.911C681.485 168.61 682.81 175.054 684.011 180.892C684.515 183.344 684.997 185.69 685.441 187.754M618.26 1.5881C457.63 7.81551 299.363 74.0185 185.659 188.259L185.657 188.26C172.09 201.641 159.225 215.659 147.079 230.242M147.079 230.242C107.687 277.534 75.8492 330.761 52.0686 387.449M147.079 230.242C107.938 277.665 75.9927 330.787 52.0686 387.449M52.0686 387.449C21.124 460.739 3.59847 539.951 1.27675 620.415C1.2815 620.404 1.28626 620.393 1.29101 620.382M52.0686 387.449C21.1877 461.063 3.89411 540.513 1.29101 620.382M1.29101 620.382C1.291 620.383 1.29099 620.383 1.29098 620.383C31.0048 552.741 69.1564 488.503 116.494 431.68C116.494 431.68 116.495 431.68 116.495 431.679M1.29101 620.382C30.9869 552.731 69.1117 488.467 116.432 431.627M116.495 431.679C216.189 311.698 351.327 234.391 501.317 202.713C526.483 197.388 552.068 193.349 577.974 190.608C604.865 187.793 631.909 186.363 658.952 186.774C667.805 186.932 676.666 187.245 685.494 188.002C685.476 187.92 685.459 187.837 685.441 187.754M116.495 431.679L116.431 431.627C116.431 431.627 116.432 431.627 116.432 431.627M116.495 431.679L116.432 431.627M685.441 187.754C676.63 187.001 667.787 186.689 658.956 186.531L658.956 186.531C631.901 186.12 604.848 187.55 577.948 190.366L577.971 190.582L577.948 190.366C397.631 209.444 232.835 291.433 116.432 431.627M0.992979 621.624H0.992989M0.992979 621.624L0.990453 621.621L0.992989 621.624M0.992979 621.624L1.0001 621.627L0.992979 621.624ZM0.992989 621.624L0.993039 621.624L0.992989 621.624ZM0.757357 621.624L0.740949 622.234L1.1717 621.803L1.18064 621.794L1.24861 621.726L1.24982 621.686C31.0174 553.673 69.304 489.085 116.867 431.991L116.867 431.991C233.201 291.982 397.842 210.12 578.026 191.117C613.736 187.506 649.8 185.826 685.617 188.568L685.65 188.721L685.783 188.581C685.892 188.59 686.001 188.598 686.111 188.607L686.433 188.632L686.367 188.315C686.348 188.223 686.328 188.128 686.307 188.029L686.483 187.845L686.265 187.826C685.72 185.223 684.765 180.637 683.917 176.567C683.345 173.82 682.822 171.308 682.506 169.797L682.505 169.792C672.68 127.325 658.313 85.6282 640.656 45.819L640.454 45.909L640.656 45.8189C633.889 30.5861 626.683 15.5389 618.698 0.883868L618.626 0.751302L618.475 0.757472C497.836 5.69247 378.411 43.5362 278.251 111.225C228.283 144.309 184.19 184.514 146.696 229.943C107.273 277.275 75.4106 330.546 51.6131 387.28C20.4932 460.991 2.9374 540.688 0.757357 621.624Z" fill="white" stroke="black" stroke-width="0.485461"/>
</svg>
