<svg width="819" height="61" viewBox="0 0 819 61" fill="none" xmlns="http://www.w3.org/2000/svg">
<path d="M30.404 13.3895C37.7243 13.3895 42.3784 17.2148 44.5403 23.7004H59.8415C57.1812 9.06571 45.7053 0.0820312 30.404 0.0820312C12.9409 0.0820312 0.630371 11.726 0.630371 30.3541C0.630371 48.9822 12.9351 60.6263 30.404 60.6263C45.7053 60.6263 57.1812 51.6426 59.8415 37.0079H44.5403C42.3784 43.4935 37.7243 47.3188 30.404 47.3188C20.9219 47.3188 15.1028 40.8332 15.1028 30.3541C15.1028 19.8751 20.9219 13.3895 30.404 13.3895Z" fill="url(#paint0_linear_147_1997)"/>
<path d="M85.1235 1.24609L61.8413 59.4545H77.4729L81.7967 48.4771H106.742L111.066 59.4545H126.698L103.415 1.24609H85.1177H85.1235ZM86.8681 35.5058L94.1014 17.2081H94.4318L101.665 35.5058H86.8623H86.8681Z" fill="url(#paint1_linear_147_1997)"/>
<path d="M172.6 23.033H147.487V1.24609H133.014V59.4545H147.487V36.3404H172.6V59.4545H187.067V1.24609H172.6V23.033Z" fill="url(#paint2_linear_147_1997)"/>
<path d="M216.673 1.24609L193.391 59.4545H209.022L213.346 48.4771H238.292L242.615 59.4545H258.247L234.965 1.24609H216.667H216.673ZM218.417 35.5058L225.651 17.2081H225.981L233.214 35.5058H218.412H218.417Z" fill="url(#paint3_linear_147_1997)"/>
<path d="M270.558 41.9914C270.389 43.9852 269.062 45.1502 267.063 45.1502H260.739V59.6226H270.72C279.037 59.6226 283.859 55.1308 284.526 46.8136L287.186 14.5477H305.316V59.4546H319.782V1.24609H274.047L270.552 41.9914H270.558Z" fill="url(#paint4_linear_147_1997)"/>
<path d="M349.388 1.24609L326.106 59.4545H341.738L346.061 48.4771H371.007L375.331 59.4545H390.962L367.68 1.24609H349.382H349.388ZM351.133 35.5058L358.366 17.2081H358.696L365.93 35.5058H351.127H351.133Z" fill="url(#paint5_linear_147_1997)"/>
<path d="M415.908 1.24609L392.626 59.4545H408.257L412.581 48.4771H437.527L441.851 59.4545H457.482L434.2 1.24609H415.902H415.908ZM417.653 35.5058L424.886 17.2081H425.216L432.45 35.5058H417.647H417.653Z" fill="url(#paint6_linear_147_1997)"/>
<path d="M510.706 0.0820312C493.243 0.0820312 480.271 11.726 480.271 30.3541C480.271 48.9822 493.243 60.6263 510.706 60.6263C528.169 60.6263 541.14 48.9822 541.14 30.3541C541.14 11.726 528.169 0.0820312 510.706 0.0820312ZM510.706 13.3895C518.067 13.3895 523.619 17.3017 525.735 23.9496H495.677C497.793 17.3017 503.345 13.3895 510.706 13.3895ZM510.706 47.3188C503.345 47.3188 497.793 43.4066 495.677 36.7587H525.735C523.619 43.4066 518.067 47.3188 510.706 47.3188Z" fill="url(#paint7_linear_147_1997)"/>
<path d="M550.287 59.4545H564.759V14.8839H598.022V1.24609H550.287V59.4545Z" fill="url(#paint8_linear_147_1997)"/>
<path d="M608.664 41.9914C608.495 43.9852 607.168 45.1502 605.169 45.1502H598.851V59.6226H608.832C617.149 59.6226 621.971 55.1308 622.637 46.8136L625.298 14.5477H643.427V59.4546H657.894V1.24609H612.158L608.664 41.9914Z" fill="url(#paint9_linear_147_1997)"/>
<path d="M697.474 0.0820312C680.011 0.0820312 667.04 11.726 667.04 30.3541C667.04 48.9822 680.011 60.6263 697.474 60.6263C714.937 60.6263 727.908 48.9822 727.908 30.3541C727.908 11.726 714.937 0.0820312 697.474 0.0820312ZM697.474 13.3895C704.835 13.3895 710.387 17.3017 712.503 23.9496H682.445C684.561 17.3017 690.113 13.3895 697.474 13.3895ZM697.474 47.3188C690.113 47.3188 684.561 43.4066 682.445 36.7587H712.503C710.387 43.4066 704.835 47.3188 697.474 47.3188Z" fill="url(#paint10_linear_147_1997)"/>
<path d="M765.663 0.0820312C748.2 0.0820312 735.228 11.726 735.228 30.3541C735.228 48.9822 748.2 60.6263 765.663 60.6263C783.126 60.6263 796.097 48.9822 796.097 30.3541C796.097 11.726 783.126 0.0820312 765.663 0.0820312ZM765.663 13.3895C773.023 13.3895 778.576 17.3017 780.692 23.9496H750.634C752.749 17.3017 758.302 13.3895 765.663 13.3895ZM765.663 47.3188C758.302 47.3188 752.749 43.4066 750.634 36.7587H780.692C778.576 43.4066 773.023 47.3188 765.663 47.3188Z" fill="url(#paint11_linear_147_1997)"/>
<path d="M817.049 41.1626L817.467 1.24609H803.33L803.748 41.1626H817.049Z" fill="url(#paint12_linear_147_1997)"/>
<path d="M810.396 44.6514C805.405 44.6514 802.247 47.4798 802.247 52.4701C802.247 57.4604 805.405 60.2888 810.396 60.2888C815.386 60.2888 818.545 57.4604 818.545 52.4701C818.545 47.4798 815.386 44.6514 810.396 44.6514Z" fill="url(#paint13_linear_147_1997)"/>
<defs>
<linearGradient id="paint0_linear_147_1997" x1="30.2359" y1="0.0820312" x2="30.2359" y2="60.6205" gradientUnits="userSpaceOnUse">
<stop stop-color="white"/>
<stop offset="1" stop-color="#D4E9FF"/>
</linearGradient>
<linearGradient id="paint1_linear_147_1997" x1="94.2695" y1="1.24609" x2="94.2695" y2="59.4546" gradientUnits="userSpaceOnUse">
<stop stop-color="white"/>
<stop offset="1" stop-color="#D4E9FF"/>
</linearGradient>
<linearGradient id="paint2_linear_147_1997" x1="160.041" y1="1.24609" x2="160.041" y2="59.4546" gradientUnits="userSpaceOnUse">
<stop stop-color="white"/>
<stop offset="1" stop-color="#D4E9FF"/>
</linearGradient>
<linearGradient id="paint3_linear_147_1997" x1="225.819" y1="1.24609" x2="225.819" y2="59.4546" gradientUnits="userSpaceOnUse">
<stop stop-color="white"/>
<stop offset="1" stop-color="#D4E9FF"/>
</linearGradient>
<linearGradient id="paint4_linear_147_1997" x1="290.264" y1="1.24609" x2="290.264" y2="59.6226" gradientUnits="userSpaceOnUse">
<stop stop-color="white"/>
<stop offset="1" stop-color="#D4E9FF"/>
</linearGradient>
<linearGradient id="paint5_linear_147_1997" x1="358.534" y1="1.24609" x2="358.534" y2="59.4546" gradientUnits="userSpaceOnUse">
<stop stop-color="white"/>
<stop offset="1" stop-color="#D4E9FF"/>
</linearGradient>
<linearGradient id="paint6_linear_147_1997" x1="425.06" y1="1.24609" x2="425.06" y2="59.4546" gradientUnits="userSpaceOnUse">
<stop stop-color="white"/>
<stop offset="1" stop-color="#D4E9FF"/>
</linearGradient>
<linearGradient id="paint7_linear_147_1997" x1="510.706" y1="-260.155" x2="510.706" y2="-260.155" gradientUnits="userSpaceOnUse">
<stop stop-color="white"/>
<stop offset="1" stop-color="#D4E9FF"/>
</linearGradient>
<linearGradient id="paint8_linear_147_1997" x1="574.154" y1="1.24609" x2="574.154" y2="59.4546" gradientUnits="userSpaceOnUse">
<stop stop-color="white"/>
<stop offset="1" stop-color="#D4E9FF"/>
</linearGradient>
<linearGradient id="paint9_linear_147_1997" x1="628.376" y1="1.24609" x2="628.376" y2="59.6226" gradientUnits="userSpaceOnUse">
<stop stop-color="white"/>
<stop offset="1" stop-color="#D4E9FF"/>
</linearGradient>
<linearGradient id="paint10_linear_147_1997" x1="697.474" y1="-260.155" x2="697.474" y2="-260.155" gradientUnits="userSpaceOnUse">
<stop stop-color="white"/>
<stop offset="1" stop-color="#D4E9FF"/>
</linearGradient>
<linearGradient id="paint11_linear_147_1997" x1="765.663" y1="-260.155" x2="765.663" y2="-260.155" gradientUnits="userSpaceOnUse">
<stop stop-color="white"/>
<stop offset="1" stop-color="#D4E9FF"/>
</linearGradient>
<linearGradient id="paint12_linear_147_1997" x1="810.396" y1="1.24609" x2="810.396" y2="41.1626" gradientUnits="userSpaceOnUse">
<stop stop-color="white"/>
<stop offset="1" stop-color="#D4E9FF"/>
</linearGradient>
<linearGradient id="paint13_linear_147_1997" x1="810.396" y1="44.6514" x2="810.396" y2="60.2888" gradientUnits="userSpaceOnUse">
<stop stop-color="white"/>
<stop offset="1" stop-color="#D4E9FF"/>
</linearGradient>
</defs>
</svg>
