<svg width="850" height="190" viewBox="0 0 850 190" fill="none" xmlns="http://www.w3.org/2000/svg">
<path d="M850 189.285V2.09668L2.10022 2.09668V189.285L850 189.285Z" fill="#021478"/>
<mask id="mask0_159_953" style="mask-type:luminance" maskUnits="userSpaceOnUse" x="0" y="0" width="848" height="188">
<path d="M847.9 187.188V0L0.00012207 0V187.188L847.9 187.188Z" fill="white"/>
</mask>
<g mask="url(#mask0_159_953)">
<g opacity="0.4">
<path d="M441.129 206.738C441.094 206.678 441.06 206.618 441.026 206.559C449.22 190.309 456.52 173.587 462.68 156.452L462.819 156.502C462.82 156.501 462.82 156.501 462.82 156.501C464.743 151.181 467.011 144.498 468.667 139.099C482.087 96.27 488.385 51.2439 487.407 6.38481L487.407 6.38345C486.128 -46.5979 475.219 -99.458 454.694 -148.36L454.693 -148.363L441.129 206.738ZM441.129 206.738C441.106 206.783 441.083 206.828 441.061 206.873C442.647 209.718 444.476 212.64 446.266 215.381C446.269 215.386 446.272 215.39 446.275 215.394L446.41 215.305C446.41 215.305 446.411 215.306 446.411 215.306M441.129 206.738C442.612 209.3 444.681 212.663 446.411 215.306M446.411 215.306C446.411 215.307 446.411 215.307 446.412 215.307L446.276 215.396C462.276 239.539 481.236 261.975 500.785 283.516L500.9 283.41L500.902 283.413C481.491 261.866 462.4 239.488 446.411 215.306ZM509.698 293.244C506.72 290.021 503.748 286.781 500.789 283.52L500.905 283.415L468.538 139.045C481.968 96.2364 488.282 51.2308 487.327 6.38657C487.327 6.38617 487.327 6.38579 487.327 6.38539C487.327 6.38171 487.327 6.37804 487.327 6.37436L487.327 6.37296C486.069 -46.5983 475.189 -99.4592 454.689 -148.358C454.688 -148.359 454.688 -148.36 454.688 -148.361C454.686 -148.364 454.685 -148.368 454.683 -148.371L454.682 -148.374C451.898 -154.905 448.972 -161.397 445.674 -167.702C445.355 -168.312 445.032 -168.92 444.706 -169.526L444.706 -169.526C444.705 -169.528 444.704 -169.53 444.703 -169.532L445.521 -169.467L450.516 -169.066C454.65 -168.734 460.162 -168.292 465.674 -167.85C471.186 -167.407 476.698 -166.965 480.832 -166.632C482.9 -166.466 484.622 -166.328 485.829 -166.23L487.229 -166.117L487.426 -166.101C487.431 -166.095 487.436 -166.088 487.441 -166.081L487.477 -166.079C506.702 -140.432 523.831 -113.026 537.735 -84.1333C538.292 -82.9725 538.844 -81.8081 539.391 -80.6403C539.392 -80.6395 539.392 -80.6386 539.392 -80.6377C545.931 -66.6928 551.839 -52.2713 556.733 -37.6975L556.734 -37.6943C573.404 11.0082 579.893 63.2458 575.049 114.521C575.049 114.523 575.049 114.525 575.049 114.528C575.049 114.528 575.048 114.528 575.048 114.528C569.946 168.35 553.089 221.023 526.265 267.951C526.264 267.953 526.263 267.955 526.262 267.957L526.084 267.854C526.083 267.854 526.083 267.855 526.083 267.855C526.082 267.856 526.082 267.856 526.082 267.856L526.261 267.959C521.236 276.65 515.938 285.181 509.959 293.228L509.821 293.079C509.78 293.134 509.739 293.189 509.698 293.244ZM509.698 293.244C509.621 293.348 509.543 293.452 509.466 293.556L500.47 283.807C481.053 262.254 461.936 239.848 445.922 215.627C445.919 215.623 445.916 215.618 445.913 215.614M444.637 -167.158C447.915 -160.893 450.827 -154.434 453.605 -147.917C474.049 -99.1549 484.902 -46.4346 486.156 6.40074C487.11 51.1234 480.813 96.0063 467.421 138.696L467.42 138.7C465.77 144.072 463.514 150.717 461.585 156.039L461.584 156.041C455.389 173.276 448.035 190.094 439.775 206.438L439.636 206.714L439.785 206.984C441.448 210.008 443.394 213.124 445.287 216.023L445.289 216.026C463.808 243.973 486.27 269.621 508.986 294.198L508.597 294.717L509.44 294.688L509.457 294.706L509.925 295.204L510.345 294.664L510.351 294.656L511.248 294.626L510.767 294.104C516.84 285.951 522.205 277.313 527.279 268.536L527.281 268.534C554.188 221.46 571.097 168.625 576.215 114.631C581.074 63.1867 574.564 10.7834 557.843 -38.071M444.637 -167.158C444.153 -168.084 443.66 -169.005 443.159 -169.921L443.16 -169.922M444.637 -167.158C444.153 -168.084 443.661 -169.005 443.16 -169.922M444.637 -167.158L443.408 -170.057L443.16 -169.922M557.843 -38.071C557.843 -38.0707 557.843 -38.0704 557.843 -38.0702L557.799 -38.0555C557.799 -38.0565 557.799 -38.0575 557.798 -38.0585L557.842 -38.0734C557.842 -38.0726 557.842 -38.0718 557.843 -38.071ZM557.843 -38.071C552.521 -53.9179 546.007 -69.5788 538.791 -84.64L538.79 -84.6409C524.807 -113.698 507.575 -141.246 488.24 -167.011L488.215 -167.045L488.186 -167.074C488.031 -167.185 487.842 -167.241 487.834 -167.242L487.825 -167.243L487.815 -167.244L487.789 -167.246L487.693 -167.254L487.61 -167.261L486.407 -167.461L486.489 -167.351L485.923 -167.397C484.716 -167.494 482.993 -167.633 480.926 -167.799C476.792 -168.132 471.279 -168.574 465.767 -169.017C460.255 -169.459 454.743 -169.901 450.61 -170.233L445.615 -170.634L444.215 -170.746L443.846 -170.775L443.752 -170.783L443.728 -170.785L443.722 -170.785L443.72 -170.786C443.72 -170.786 443.72 -170.786 443.72 -170.78L443.717 -170.78L443.717 -170.78C443.717 -170.78 443.718 -170.779 443.719 -170.777C443.717 -170.751 443.709 -170.647 443.675 -170.229L443.668 -170.225V-170.782C443.549 -170.668 443.476 -170.552 443.436 -170.44L443.259 -170.616L443.254 -170.611L443.433 -170.432C443.391 -170.31 443.387 -170.192 443.403 -170.086L443.144 -169.951L443.15 -169.94L443.376 -170.054L443.154 -169.932C443.156 -169.929 443.158 -169.925 443.16 -169.922M440.31 206.678C440.306 206.686 440.301 206.694 440.297 206.702C440.318 206.74 440.339 206.778 440.36 206.816C441.999 209.786 443.911 212.846 445.777 215.703C445.78 215.707 445.783 215.712 445.786 215.716C445.786 215.717 445.786 215.717 445.786 215.717C461.811 239.897 480.795 262.36 500.354 283.912C500.354 283.912 500.355 283.913 500.355 283.913C503.34 287.203 506.339 290.471 509.342 293.721C509.338 293.727 509.333 293.733 509.329 293.739L509.109 294.033L509.516 294.474L509.518 294.476L509.523 294.482L509.792 294.233L509.803 294.242L509.883 294.305L509.958 294.234L509.972 294.221L510.043 294.274L510.044 294.275L510.266 294.441C510.266 294.44 510.267 294.44 510.267 294.439C510.388 294.278 510.509 294.116 510.629 293.954L510.383 293.688L510.363 293.666C516.388 285.567 521.72 276.983 526.769 268.25C526.769 268.25 526.769 268.25 526.769 268.249C526.77 268.247 526.771 268.245 526.773 268.243C553.637 221.243 570.521 168.491 575.631 114.584C575.631 114.581 575.632 114.579 575.632 114.576C580.483 63.2159 573.984 10.895 557.288 -37.8838L462.135 156.238C462.133 156.243 462.131 156.248 462.13 156.253C462.13 156.253 462.13 156.253 462.13 156.253C455.93 173.499 448.573 190.327 440.31 206.678ZM440.31 206.678C440.31 206.678 440.31 206.678 440.31 206.678ZM487.772 -166.66L487.751 -166.644L487.715 -166.06C487.719 -166.06 487.86 -166.179 487.953 -166.373C487.886 -166.463 487.82 -166.552 487.753 -166.641L487.772 -166.66ZM440.488 206.799C441.982 209.393 444.126 212.882 445.912 215.613L440.488 206.799Z" fill="white" stroke="white" stroke-width="1.17056"/>
<path d="M604.358 109.928C606.04 91.8275 606.696 73.4421 605.82 55.2559C605.771 53.284 605.551 49.3992 605.384 47.4355C605.089 42.9813 604.552 36.2477 604.009 31.8635C603.612 27.6009 602.85 22.2569 602.185 17.5948C602.028 16.4922 601.876 15.4278 601.736 14.4249L601.735 14.4171L601.734 14.4093C601.443 12.6687 601.065 10.499 600.704 8.42447C600.48 7.13432 600.262 5.881 600.075 4.7906C600.075 4.79031 600.075 4.79002 600.075 4.78973L600.017 4.79971C600.017 4.79884 600.016 4.79797 600.016 4.7971C599.603 2.30821 598.862 -1.26009 598.203 -4.43723C597.883 -5.97775 597.582 -7.42628 597.347 -8.6152C597.347 -8.61694 597.346 -8.61867 597.346 -8.62041L597.344 -8.62953L597.344 -8.63191L597.342 -8.63858C596.708 -11.3836 595.933 -14.6636 595.231 -17.638C595.034 -18.4687 594.844 -19.2756 594.663 -20.0403L594.664 -20.0404L594.661 -20.0498L594.661 -20.0518C592.984 -26.5687 590.825 -34.3147 588.874 -40.7522C588.874 -40.7528 588.874 -40.7534 588.874 -40.754L588.873 -40.758L588.872 -40.7604C576.134 -81.1105 558.009 -120.18 532.959 -154.43L604.358 109.928ZM604.358 109.928C602.51 130.604 599.286 151.436 594.67 171.673C585.444 212.302 570.718 251.892 549.522 287.844L549.521 287.847C544.278 296.634 538.705 305.271 532.322 313.309C538.639 318.547 545.93 324.422 553.064 329.107L553.072 329.112C560.41 334.096 567.974 338.755 575.663 343.197L575.677 343.197C575.793 343.201 575.967 343.207 576.195 343.216C576.651 343.234 577.328 343.262 578.194 343.3C579.926 343.375 582.418 343.486 585.414 343.622C591.408 343.894 599.423 344.264 607.431 344.638C615.439 345.012 623.44 345.391 629.407 345.68C632.39 345.825 634.865 345.947 636.578 346.035C637.434 346.079 638.101 346.115 638.546 346.14C638.647 346.146 638.738 346.151 638.817 346.156C668.599 293.343 686.433 233.855 691.669 173.49C694.37 141.17 693.158 108.276 687.324 76.3681C675.479 12.365 645.472 -47.6174 604.652 -98.0859C590.378 -115.56 574.987 -132.236 557.694 -146.736L557.509 -146.794L556.667 -147.056L553.66 -147.992C551.305 -148.725 548.207 -149.69 545.069 -150.666L532.96 -154.43L604.358 109.928ZM531.426 -156.105L531.407 -155.984C531.232 -155.858 530.992 -155.609 531.008 -155.206L530.961 -155.171C530.961 -155.171 530.961 -155.171 530.961 -155.171C556.465 -120.705 574.868 -81.2305 587.755 -40.4112C589.699 -33.9927 591.853 -26.266 593.525 -19.766C593.706 -19.0024 593.896 -18.1973 594.091 -17.3688C594.793 -14.3975 595.567 -11.1249 596.199 -8.38437C596.439 -7.17149 596.743 -5.70833 597.065 -4.15999C597.722 -0.996201 598.452 2.52327 598.862 4.98978L598.862 4.99231C599.07 6.21187 599.316 7.63432 599.567 9.08504C599.9 11.0097 600.241 12.9841 600.514 14.6004C600.651 15.5859 600.799 16.6292 600.952 17.7084C601.615 22.3837 602.373 27.7338 602.769 31.986L602.77 31.9946L602.771 32.0031C603.305 36.3606 603.846 43.0991 604.136 47.5231L604.137 47.5352C604.302 49.4504 604.522 53.3717 604.564 55.2904L604.564 55.2979L604.565 55.3054C605.433 73.4234 604.769 91.7605 603.085 109.809L603.085 109.811C601.236 130.432 598.009 151.213 593.4 171.386L593.4 171.387C584.186 211.893 569.491 251.35 548.36 287.161C543.037 296.081 537.38 304.825 530.899 312.915L530.562 313.335L530.699 313.465L530.69 313.477L530.864 313.621L530.954 313.706C537.35 319.762 544.978 325.183 552.292 330.243L552.296 330.246C559.711 335.285 567.344 339.988 575.098 344.469L575.166 344.509L575.242 344.529C575.274 344.536 575.318 344.543 575.328 344.545L575.346 344.546L575.366 344.548L575.408 344.55C575.442 344.552 575.49 344.555 575.552 344.558C575.677 344.564 575.859 344.574 576.095 344.585C576.567 344.608 577.257 344.641 578.133 344.683C579.884 344.766 582.38 344.883 585.373 345.023C591.359 345.303 599.332 345.674 607.305 346.044C620.672 346.664 634.072 347.284 638.076 347.467L638.063 347.49L638.204 347.473C638.89 347.504 639.266 347.521 639.277 347.521H639.618L639.786 347.224C669.781 294.124 687.719 234.31 692.964 173.607L692.964 173.605C695.63 141.884 694.448 109.606 688.97 78.2325L688.97 78.2297C677.288 13.2301 646.993 -47.7077 605.583 -98.8389L605.581 -98.8409C591.243 -116.381 575.766 -133.139 558.356 -147.714L558.266 -147.789L558.154 -147.824L545.417 -151.783C545.238 -151.839 545.059 -151.895 544.88 -151.951C541.56 -152.983 538.241 -154.016 535.752 -154.79C534.507 -155.177 533.47 -155.5 532.744 -155.725L531.902 -155.987L531.68 -156.055L531.622 -156.073L531.605 -156.078L531.597 -156.081L531.586 -156.084C531.582 -156.085 531.517 -156.058 531.431 -156V-156.105H531.426ZM575.913 343.363C575.919 343.377 575.924 343.391 575.929 343.405C575.862 343.402 575.801 343.399 575.747 343.396L575.792 343.283C575.833 343.307 575.876 343.334 575.913 343.363Z" fill="white" stroke="white" stroke-width="1.17056"/>
<path d="M634.661 -107.762L634.123 -107.086L633.887 -106.909C633.887 -106.909 633.887 -106.909 633.887 -106.909C645.919 -90.8453 657.379 -73.8847 667.369 -56.4887L667.371 -56.4848C742.283 71.6778 739.713 218.526 669.857 348.345L669.428 349.141L669.632 349.156L669.582 349.248L670.507 349.298C672.093 349.383 673.684 349.471 675.279 349.561C709.979 352.06 745.85 354.77 780.643 358.028L781.082 358.069L781.242 357.658C794.285 324.331 801.825 289.017 805.371 253.479L805.371 253.476C811.556 188.636 804.09 121.561 777.782 61.5748L777.781 61.5719C765.226 33.3669 749.387 6.40201 730.634 -18.1298L730.633 -18.1308C728.575 -20.8109 726.487 -23.4711 724.367 -26.1093C720.832 -30.5248 717.206 -34.8658 713.489 -39.1283C697.532 -57.4884 679.971 -74.5274 660.783 -89.4524C652.466 -96.0018 643.83 -102.14 634.799 -107.675C634.753 -107.704 634.707 -107.733 634.661 -107.762ZM675.355 348.393C674.077 348.301 672.801 348.21 671.527 348.118C680.991 330.6 689.253 312.436 696.283 293.809C741.006 175.961 732.167 52.0022 668.404 -57.0843C658.902 -73.6086 648.094 -89.7289 636.718 -105.071C644.751 -99.9167 652.532 -94.3871 660.062 -88.5298C668.961 -81.5217 677.499 -74.0354 685.771 -66.3037C695.155 -57.4313 704.114 -48.1007 712.607 -38.3592C716.309 -34.0999 719.925 -29.7688 723.454 -25.376C746.125 2.94763 764.969 34.3443 779.041 67.7632C815.855 156.075 814.234 267.765 780.128 356.744C745.968 353.37 709.752 350.34 675.355 348.393Z" fill="white" stroke="white" stroke-width="1.17056"/>
<path d="M105.782 351.057L104.4 351.179C103.55 351.253 102.55 351.34 101.435 351.438C99.3048 351.624 96.7545 351.847 94.0327 352.085C92.1519 352.249 90.1892 352.42 88.2266 352.592C83.424 353.011 78.6223 353.431 75.0239 353.747C73.2247 353.905 71.7263 354.036 70.6789 354.129C70.1552 354.175 69.7441 354.212 69.4644 354.237C69.4598 354.237 69.4552 354.238 69.4507 354.238L67.6749 350.386C81.0615 320.692 97.1873 292.03 116.455 265.714L116.456 265.711C123.769 255.602 131.851 245.666 140.069 236.279C204.346 163.14 293.381 119.519 389.984 109.723L389.986 109.723C409.577 107.655 430.185 107.211 449.423 108.477C439.091 139.713 427.215 171.136 412.21 200.12C375.676 201.462 339.726 207.756 305.264 218.502C228.535 242.427 159.185 288.418 107.197 350.932L107.002 350.949L105.782 351.057ZM107.763 351.788L107.901 351.913L107.906 351.908L107.925 351.889L107.942 351.869C149.955 301.422 203.925 261.126 264.04 235.053C297.482 220.548 332.825 210.444 369.069 205.443L369.071 205.442C383.524 203.411 398.077 202.146 412.661 201.422L412.989 201.406L413.146 201.117C417.149 193.735 420.73 186.142 424.152 178.493L424.154 178.489C434.168 155.571 443.558 131.694 450.887 108.042L451.102 107.348L450.378 107.286C430.226 105.548 409.928 106.366 389.851 108.349L389.849 108.349C292.932 118.227 203.629 162.01 139.136 235.453C129.203 246.719 119.717 258.854 111.023 271.121L111.021 271.124C93.6746 295.956 78.8552 322.522 66.4814 350.16L66.3727 350.403L66.4842 350.645L68.5451 355.11L68.5604 355.103L68.561 355.104L68.6098 355.082C68.6979 355.203 68.8051 355.294 68.8935 355.356C68.9108 355.38 68.9298 355.404 68.9506 355.427L70.1353 355.723L69.9756 355.377C70.202 355.357 70.4704 355.334 70.777 355.308C71.8273 355.217 73.3275 355.086 75.1276 354.928C78.7278 354.613 83.5282 354.191 88.3288 353.769C93.1294 353.346 97.9304 352.923 101.532 352.606L104.528 352.342C105.04 352.298 105.496 352.258 105.889 352.223C106.209 352.195 106.487 352.171 106.72 352.15L107.108 352.116L107.43 352.087L107.513 352.08L107.53 352.078L107.534 352.078L107.534 352.078L107.537 352.078L107.548 352.076L107.563 352.075C107.57 352.074 107.68 351.965 107.763 351.788Z" fill="white" stroke="white" stroke-width="1.17056"/>
<mask id="path-7-outside-1_159_953" maskUnits="userSpaceOnUse" x="46.957" y="-31.3428" width="415" height="343" fill="black">
<rect fill="white" x="46.957" y="-31.3428" width="415" height="343"/>
<path d="M54.7907 310.849L48.957 282.089C49.9338 276.319 51.2379 270.609 52.6494 264.926C59.8141 236.551 70.3169 209.047 83.3904 182.873C103.682 142.359 130.683 104.979 163.629 73.8141C197.633 41.6295 238.249 16.5451 281.736 -0.682349C337.487 -22.5628 398.228 -33.1407 458.068 -28.1067L458.159 -28.0959L458.164 -28.0047C460.456 7.88305 460.885 44.1894 455.379 79.8142C419.625 76.8732 383.48 79.4922 348.193 85.7284C328.1 89.41 308.055 94.4816 288.772 101.201C271.996 106.97 255.128 114.194 239.462 122.534C236.097 124.359 229.271 127.954 225.868 129.704C182.714 152.261 144.443 183.726 112.838 220.703C89.7715 248.063 69.3616 278.09 54.8015 310.86C67.7569 281.573 85.521 254.546 105.464 229.558C139.956 186.646 183.342 150.72 232.641 126.076C234.89 124.874 240.632 121.799 242.806 120.634C245.011 119.539 250.861 116.652 253.142 115.536C263.36 110.791 274.48 106.111 285.107 102.36C303.15 95.877 321.832 90.8537 340.621 87.0272C378.285 79.7015 417.017 76.5351 455.315 79.6371C460.483 44.5758 460.354 7.71668 457.95 -27.9832L458.046 -27.8866C398.244 -32.9421 337.519 -22.3857 281.79 -0.537452C238.314 16.6685 197.703 41.7314 163.699 73.8946C130.752 105.043 103.741 142.407 83.4387 182.905C70.3598 209.073 59.8516 236.568 52.6709 264.942C51.2594 270.62 49.9553 276.33 48.9731 282.099C48.9731 282.089 54.7961 310.86 54.7961 310.86L54.7907 310.849Z"/>
</mask>
<path d="M54.7907 310.849L48.957 282.089C49.9338 276.319 51.2379 270.609 52.6494 264.926C59.8141 236.551 70.3169 209.047 83.3904 182.873C103.682 142.359 130.683 104.979 163.629 73.8141C197.633 41.6295 238.249 16.5451 281.736 -0.682349C337.487 -22.5628 398.228 -33.1407 458.068 -28.1067L458.159 -28.0959L458.164 -28.0047C460.456 7.88305 460.885 44.1894 455.379 79.8142C419.625 76.8732 383.48 79.4922 348.193 85.7284C328.1 89.41 308.055 94.4816 288.772 101.201C271.996 106.97 255.128 114.194 239.462 122.534C236.097 124.359 229.271 127.954 225.868 129.704C182.714 152.261 144.443 183.726 112.838 220.703C89.7715 248.063 69.3616 278.09 54.8015 310.86C67.7569 281.573 85.521 254.546 105.464 229.558C139.956 186.646 183.342 150.72 232.641 126.076C234.89 124.874 240.632 121.799 242.806 120.634C245.011 119.539 250.861 116.652 253.142 115.536C263.36 110.791 274.48 106.111 285.107 102.36C303.15 95.877 321.832 90.8537 340.621 87.0272C378.285 79.7015 417.017 76.5351 455.315 79.6371C460.483 44.5758 460.354 7.71668 457.95 -27.9832L458.046 -27.8866C398.244 -32.9421 337.519 -22.3857 281.79 -0.537452C238.314 16.6685 197.703 41.7314 163.699 73.8946C130.752 105.043 103.741 142.407 83.4387 182.905C70.3598 209.073 59.8516 236.568 52.6709 264.942C51.2594 270.62 49.9553 276.33 48.9731 282.099C48.9731 282.089 54.7961 310.86 54.7961 310.86L54.7907 310.849Z" fill="white"/>
<path d="M54.7907 310.849L53.6435 311.082L53.6743 311.234L53.7434 311.372L54.7907 310.849ZM48.957 282.089L47.8029 281.893L47.7665 282.108L47.8098 282.321L48.957 282.089ZM52.6494 264.926L51.5144 264.639L51.5133 264.644L52.6494 264.926ZM83.3904 182.873L82.3438 182.349L82.3432 182.35L83.3904 182.873ZM163.629 73.8141L164.434 74.6645L164.434 74.6643L163.629 73.8141ZM281.736 -0.682349L281.309 -1.772L281.305 -1.77063L281.736 -0.682349ZM458.068 -28.1067L458.205 -29.2692L458.185 -29.2715L458.166 -29.2731L458.068 -28.1067ZM458.159 -28.0959L459.328 -28.1647L459.27 -29.1437L458.296 -29.2585L458.159 -28.0959ZM458.164 -28.0047L456.996 -27.9359L456.996 -27.9301L458.164 -28.0047ZM455.379 79.8142L455.283 80.9808L456.369 81.0702L456.536 79.993L455.379 79.8142ZM348.193 85.7284L347.99 84.5757L347.982 84.577L348.193 85.7284ZM288.772 101.201L289.153 102.308L289.157 102.306L288.772 101.201ZM239.462 122.534L238.912 121.501L238.904 121.505L239.462 122.534ZM225.868 129.704L225.333 128.663L225.326 128.667L225.868 129.704ZM112.838 220.703L111.948 219.943L111.943 219.949L112.838 220.703ZM54.8015 310.86L53.731 310.386L55.8712 311.335L54.8015 310.86ZM105.464 229.558L104.552 228.825L104.549 228.828L105.464 229.558ZM232.641 126.076L233.164 127.123L233.179 127.116L233.193 127.108L232.641 126.076ZM242.806 120.634L242.285 119.586L242.269 119.594L242.253 119.602L242.806 120.634ZM253.142 115.536L252.649 114.474L252.638 114.479L252.628 114.484L253.142 115.536ZM285.107 102.36L285.496 103.464L285.503 103.462L285.107 102.36ZM340.621 87.0272L340.397 85.8781L340.387 85.8801L340.621 87.0272ZM455.315 79.6371L455.22 80.8038L456.313 80.8923L456.473 79.8078L455.315 79.6371ZM457.95 -27.9832L458.777 -28.8109L456.572 -31.0161L456.782 -27.9046L457.95 -27.9832ZM458.046 -27.8866L457.948 -26.7202L461.138 -26.4505L458.874 -28.7143L458.046 -27.8866ZM281.79 -0.537452L281.363 -1.62726L281.359 -1.62588L281.79 -0.537452ZM163.699 73.8946L164.503 74.7452L164.503 74.745L163.699 73.8946ZM83.4387 182.905L82.3923 182.38L82.3916 182.382L83.4387 182.905ZM52.6709 264.942L51.5361 264.655L51.5349 264.659L52.6709 264.942ZM48.9731 282.099H47.8026L50.1271 282.296L48.9731 282.099ZM54.7961 310.86L53.7488 311.383L55.9434 310.628L54.7961 310.86ZM55.9379 310.617L50.1042 281.856L47.8098 282.321L53.6435 311.082L55.9379 310.617ZM50.1112 282.284C51.0808 276.557 52.3771 270.879 53.7854 265.208L51.5133 264.644C50.0988 270.339 48.7867 276.082 47.8029 281.893L50.1112 282.284ZM53.7843 265.212C60.9266 236.927 71.3983 209.501 84.4376 183.396L82.3432 182.35C69.2354 208.592 58.7016 236.176 51.5144 264.639L53.7843 265.212ZM84.437 183.397C104.673 142.995 131.594 105.729 164.434 74.6645L162.825 72.9637C129.771 104.23 102.692 141.722 82.3438 182.349L84.437 183.397ZM164.434 74.6643C198.322 42.5898 238.808 17.5828 282.167 0.405929L281.305 -1.77063C237.69 15.5073 196.945 40.6691 162.825 72.964L164.434 74.6643ZM282.164 0.407295C337.769 -21.4159 398.33 -31.9574 457.97 -26.9402L458.166 -29.2731C398.126 -34.324 337.205 -23.7096 281.309 -1.77199L282.164 0.407295ZM457.931 -26.9441L458.022 -26.9334L458.296 -29.2585L458.205 -29.2692L457.931 -26.9441ZM456.99 -28.0271L456.996 -27.9359L459.333 -28.0735L459.328 -28.1647L456.99 -28.0271ZM456.996 -27.9301C459.286 7.9234 459.71 44.1328 454.222 79.6354L456.536 79.993C462.061 44.246 461.626 7.84271 459.333 -28.0793L456.996 -27.9301ZM455.475 78.6476C419.602 75.6967 383.354 78.3258 347.99 84.5757L348.397 86.8811C383.606 80.6586 419.649 78.0496 455.283 80.9808L455.475 78.6476ZM347.982 84.577C327.838 88.2679 307.734 93.3539 288.387 100.095L289.157 102.306C308.376 95.6094 328.362 90.5521 348.404 86.8798L347.982 84.577ZM288.392 100.094C271.561 105.882 254.636 113.13 238.912 121.501L240.012 123.567C255.62 115.258 272.43 108.059 289.153 102.308L288.392 100.094ZM238.904 121.505C235.548 123.325 228.729 126.917 225.333 128.663L226.403 130.745C229.812 128.992 236.647 125.392 240.02 123.563L238.904 121.505ZM225.326 128.667C182.028 151.298 143.642 182.862 111.948 219.943L113.728 221.464C145.244 184.591 183.399 153.223 226.41 130.741L225.326 128.667ZM111.943 219.949C88.826 247.369 68.348 277.489 53.7318 310.385L55.8712 311.335C70.3752 278.692 90.717 248.758 113.733 221.458L111.943 219.949ZM55.872 311.334C68.7759 282.163 86.4793 255.222 106.379 230.289L104.549 228.828C84.5627 253.87 66.7379 280.984 53.731 310.386L55.872 311.334ZM106.376 230.292C140.77 187.502 184.025 151.687 233.164 127.123L232.118 125.029C182.658 149.753 139.143 185.789 104.552 228.825L106.376 230.292ZM233.193 127.108C235.442 125.906 241.185 122.83 243.358 121.666L242.253 119.602C240.079 120.767 234.337 123.842 232.089 125.044L233.193 127.108ZM243.326 121.683C245.53 120.588 251.378 117.702 253.657 116.587L252.628 114.484C250.344 115.602 244.492 118.49 242.285 119.586L243.326 121.683ZM253.635 116.597C263.828 111.865 274.913 107.2 285.496 103.464L284.717 101.256C274.048 105.023 262.892 109.718 252.649 114.474L253.635 116.597ZM285.503 103.462C303.485 97.0003 322.112 91.9912 340.854 88.1742L340.387 85.8801C321.551 89.7162 302.814 94.7538 284.711 101.258L285.503 103.462ZM340.844 88.1762C378.425 80.8668 417.048 77.712 455.22 80.8038L455.409 78.4704C416.986 75.3582 378.145 78.5362 340.397 85.8781L340.844 88.1762ZM456.473 79.8078C461.658 44.6331 461.525 7.68288 459.118 -28.0619L456.782 -27.9046C459.183 7.75049 459.308 44.5186 454.157 79.4664L456.473 79.8078ZM457.122 -27.1555L457.219 -27.0589L458.874 -28.7143L458.777 -28.8109L457.122 -27.1555ZM458.145 -29.053C398.142 -34.1255 337.237 -23.5326 281.363 -1.62725L282.217 0.552351C337.8 -21.2388 398.346 -31.7588 457.948 -26.7202L458.145 -29.053ZM281.359 -1.62588C237.755 15.6306 197.015 40.7709 162.895 73.0442L164.503 74.745C198.391 42.692 238.872 17.7064 282.221 0.550974L281.359 -1.62588ZM162.895 73.044C129.842 104.294 102.751 141.77 82.3923 182.38L84.4851 183.43C104.731 143.044 131.663 105.793 164.503 74.7452L162.895 73.044ZM82.3916 182.382C69.2785 208.619 58.7393 236.192 51.5361 264.655L53.8056 265.229C60.964 236.943 71.4411 209.528 84.4858 183.428L82.3916 182.382ZM51.5349 264.659C50.1202 270.35 48.8083 276.092 47.8192 281.903L50.1271 282.296C51.1022 276.568 52.3985 270.889 53.8068 265.224L51.5349 264.659ZM50.1437 282.099C49.1162 283.261 47.8341 282.369 47.8309 282.355C47.83 282.351 47.8287 282.345 47.8284 282.344C47.8279 282.342 47.8277 282.341 47.828 282.342C47.8284 282.344 47.8292 282.348 47.8306 282.355C47.8332 282.368 47.8373 282.387 47.8428 282.414C47.8537 282.468 47.87 282.548 47.8914 282.653C47.934 282.863 47.9965 283.172 48.0761 283.565C48.2353 284.35 48.4627 285.473 48.7357 286.821C49.2816 289.517 50.0095 293.112 50.7373 296.708C51.4652 300.304 52.1931 303.9 52.739 306.597C53.0119 307.945 53.2394 309.069 53.3986 309.856C53.4782 310.249 53.5408 310.558 53.5834 310.769C53.6047 310.874 53.6211 310.955 53.6321 311.01C53.6376 311.037 53.6418 311.058 53.6446 311.071C53.646 311.078 53.647 311.084 53.6477 311.087C53.6481 311.089 53.6484 311.09 53.6485 311.091C53.6486 311.091 53.6487 311.092 53.6487 311.092C53.6488 311.092 53.6488 311.092 54.7961 310.86C55.9434 310.628 55.9434 310.628 55.9433 310.628C55.9433 310.627 55.9432 310.627 55.9431 310.627C55.943 310.626 55.9427 310.624 55.9423 310.623C55.9416 310.619 55.9406 310.614 55.9392 310.607C55.9364 310.593 55.9322 310.573 55.9267 310.545C55.9157 310.491 55.8993 310.41 55.878 310.305C55.8354 310.094 55.7728 309.785 55.6932 309.392C55.534 308.605 55.3065 307.481 55.0336 306.132C54.4877 303.435 53.7598 299.839 53.0319 296.243C52.304 292.648 51.5762 289.052 51.0302 286.356C50.7573 285.008 50.5298 283.885 50.3706 283.1C50.291 282.707 50.2284 282.398 50.1857 282.188C50.1644 282.083 50.148 282.002 50.1369 281.947C50.1313 281.92 50.1271 281.899 50.1241 281.885C50.1227 281.878 50.1214 281.872 50.1204 281.867C50.12 281.865 50.1192 281.861 50.1184 281.857C50.1179 281.855 50.1165 281.848 50.1155 281.844C50.1122 281.83 48.8301 280.938 47.8026 282.099H50.1437ZM55.8434 310.337L55.838 310.326L53.7434 311.372L53.7488 311.383L55.8434 310.337Z" fill="white" mask="url(#path-7-outside-1_159_953)"/>
<mask id="path-9-outside-2_159_953" maskUnits="userSpaceOnUse" x="39.1206" y="-172.304" width="416" height="378" fill="black">
<rect fill="white" x="39.1206" y="-172.304" width="416" height="378"/>
<path d="M41.1206 202.393C44.3997 80.6529 105.629 -36.4129 207.695 -103.992C267.819 -144.624 339.509 -167.341 411.929 -170.304C416.721 -161.508 421.047 -152.475 425.109 -143.33C435.709 -119.432 444.333 -94.4011 450.231 -68.9089C450.72 -66.569 452.04 -60.2254 452.55 -57.7889C430.932 -59.4687 409.165 -58.4597 387.617 -56.2808C279.379 -44.8656 180.475 4.31029 110.588 88.4187C82.0102 122.723 59.0081 161.531 41.126 202.393C58.9974 161.525 81.9834 122.702 110.551 88.3865C180.426 4.22979 279.353 -44.9891 387.601 -56.4418C403.75 -58.1324 419.989 -58.991 436.229 -58.7442C441.639 -58.6476 447.054 -58.4544 452.448 -57.9821L452.346 -57.8747C451.439 -62.0608 450.237 -68.399 449.169 -72.51C443.367 -96.7196 434.99 -120.5 424.922 -143.244C421.025 -152.277 416.238 -161.711 411.88 -170.1C315.353 -166.381 220.237 -126.607 151.907 -57.9553C82.8152 10.1869 44.0884 105.812 41.126 202.388L41.1206 202.393Z"/>
</mask>
<path d="M41.1206 202.393C44.3997 80.6529 105.629 -36.4129 207.695 -103.992C267.819 -144.624 339.509 -167.341 411.929 -170.304C416.721 -161.508 421.047 -152.475 425.109 -143.33C435.709 -119.432 444.333 -94.4011 450.231 -68.9089C450.72 -66.569 452.04 -60.2254 452.55 -57.7889C430.932 -59.4687 409.165 -58.4597 387.617 -56.2808C279.379 -44.8656 180.475 4.31029 110.588 88.4187C82.0102 122.723 59.0081 161.531 41.126 202.393C58.9974 161.525 81.9834 122.702 110.551 88.3865C180.426 4.22979 279.353 -44.9891 387.601 -56.4418C403.75 -58.1324 419.989 -58.991 436.229 -58.7442C441.639 -58.6476 447.054 -58.4544 452.448 -57.9821L452.346 -57.8747C451.439 -62.0608 450.237 -68.399 449.169 -72.51C443.367 -96.7196 434.99 -120.5 424.922 -143.244C421.025 -152.277 416.238 -161.711 411.88 -170.1C315.353 -166.381 220.237 -126.607 151.907 -57.9553C82.8152 10.1869 44.0884 105.812 41.126 202.388L41.1206 202.393Z" fill="white"/>
<path d="M41.1206 202.393L39.9505 202.362L39.8713 205.3L41.9486 203.221L41.1206 202.393ZM207.695 -103.992L208.341 -103.016L208.351 -103.022L207.695 -103.992ZM411.929 -170.304L412.956 -170.864L412.608 -171.503L411.881 -171.473L411.929 -170.304ZM425.109 -143.33L426.179 -143.805L426.179 -143.805L425.109 -143.33ZM450.231 -68.9089L451.377 -69.148L451.375 -69.1604L451.372 -69.1727L450.231 -68.9089ZM452.55 -57.7889L452.459 -56.6218L454.015 -56.5009L453.696 -58.0286L452.55 -57.7889ZM387.617 -56.2808L387.499 -57.4454L387.494 -57.4449L387.617 -56.2808ZM110.588 88.4187L111.488 89.1679L111.489 89.1668L110.588 88.4187ZM41.126 202.393L40.0535 201.924L42.1983 202.863L41.126 202.393ZM110.551 88.3865L111.45 89.1354L111.451 89.1342L110.551 88.3865ZM387.601 -56.4418L387.479 -57.606L387.478 -57.6059L387.601 -56.4418ZM436.229 -58.7442L436.25 -59.9145L436.247 -59.9146L436.229 -58.7442ZM452.448 -57.9821L453.296 -57.1757L454.969 -58.9363L452.55 -59.1482L452.448 -57.9821ZM452.346 -57.8747L451.202 -57.6269L451.67 -55.4646L453.194 -57.0684L452.346 -57.8747ZM449.169 -72.51L448.03 -72.2372L448.033 -72.2264L448.036 -72.2157L449.169 -72.51ZM424.922 -143.244L423.847 -142.781L423.851 -142.771L424.922 -143.244ZM411.88 -170.1L412.919 -170.639L412.577 -171.298L411.835 -171.269L411.88 -170.1ZM151.907 -57.9553L152.729 -57.1218L152.737 -57.1295L151.907 -57.9553ZM41.126 202.388L41.954 203.215L42.2818 202.887L42.296 202.424L41.126 202.388ZM42.2907 202.425C45.5602 81.0429 106.612 -35.6599 208.341 -103.016L207.049 -104.968C104.646 -37.166 43.2392 80.263 39.9505 202.362L42.2907 202.425ZM208.351 -103.022C268.287 -143.527 339.765 -166.18 411.976 -169.134L411.881 -171.473C339.253 -168.502 267.351 -145.72 207.04 -104.961L208.351 -103.022ZM410.901 -169.744C415.674 -160.983 419.986 -151.98 424.04 -142.855L426.179 -143.805C422.108 -152.97 417.768 -162.032 412.956 -170.864L410.901 -169.744ZM424.039 -142.856C434.612 -119.018 443.211 -94.0579 449.091 -68.645L451.372 -69.1727C445.455 -94.7444 436.806 -119.846 426.179 -143.805L424.039 -142.856ZM449.086 -68.6697C449.574 -66.3316 450.894 -59.9857 451.404 -57.5491L453.696 -58.0286C453.186 -60.4651 451.866 -66.8063 451.377 -69.148L449.086 -68.6697ZM452.64 -58.9559C430.929 -60.643 409.086 -59.6283 387.499 -57.4454L387.735 -55.1162C409.243 -57.2911 430.936 -58.2943 452.459 -56.6218L452.64 -58.9559ZM387.494 -57.4449C278.979 -46.0005 179.786 3.30821 109.688 87.6706L111.489 89.1668C181.164 5.31236 279.78 -43.7308 387.74 -55.1167L387.494 -57.4449ZM109.689 87.6694C81.0312 122.07 57.9739 160.974 40.0536 201.924L42.1983 202.863C60.0424 162.087 82.9892 123.377 111.488 89.1679L109.689 87.6694ZM42.1985 202.862C60.0319 162.081 82.9627 123.355 111.45 89.1354L109.651 87.6375C81.0041 122.049 57.9629 160.969 40.0535 201.924L42.1985 202.862ZM111.451 89.1342C181.116 5.23166 279.753 -43.8544 387.724 -55.2777L387.478 -57.6059C278.952 -46.1238 179.737 3.22792 109.65 87.6387L111.451 89.1342ZM387.723 -55.2776C403.832 -56.964 420.025 -57.8198 436.212 -57.5737L436.247 -59.9146C419.954 -60.1623 403.667 -59.3007 387.479 -57.606L387.723 -55.2776ZM436.208 -57.5738C441.606 -57.4774 446.991 -57.2849 452.346 -56.816L452.55 -59.1482C447.118 -59.6238 441.672 -59.8177 436.25 -59.9145L436.208 -57.5738ZM451.599 -58.7884L451.497 -58.6811L453.194 -57.0684L453.296 -57.1757L451.599 -58.7884ZM453.49 -58.1226C452.595 -62.2525 451.377 -68.6646 450.302 -72.8043L448.036 -72.2157C449.096 -68.1334 450.283 -61.8692 451.202 -57.6269L453.49 -58.1226ZM450.307 -72.7828C444.487 -97.0707 436.085 -120.918 425.992 -143.718L423.851 -142.771C433.895 -120.081 442.248 -96.3685 448.03 -72.2372L450.307 -72.7828ZM425.996 -143.708C422.082 -152.782 417.278 -162.248 412.919 -170.639L410.841 -169.56C415.198 -161.175 419.968 -151.772 423.847 -142.781L425.996 -143.708ZM411.835 -171.269C315.027 -167.539 219.627 -127.653 151.078 -58.781L152.737 -57.1295C220.848 -125.561 315.679 -165.222 411.925 -168.93L411.835 -171.269ZM151.085 -58.7887C81.7628 9.58083 42.9269 105.5 39.956 202.352L42.296 202.424C45.25 106.125 83.8677 10.793 152.729 -57.1218L151.085 -58.7887ZM40.2979 201.561L40.2926 201.566L41.9486 203.221L41.954 203.215L40.2979 201.561Z" fill="white" mask="url(#path-9-outside-2_159_953)"/>
</g>
</g>
<path d="M83.5405 112.997C83.5405 97.1219 94.0272 87.2041 108.909 87.2041C121.951 87.2041 131.729 94.8571 133.994 107.33H120.952C119.112 101.802 115.14 98.5441 108.904 98.5441C100.827 98.5441 95.8627 104.072 95.8627 113.002C95.8627 121.933 100.822 127.46 108.904 127.46C115.14 127.46 119.106 124.203 120.952 118.675H133.994C131.724 131.147 121.945 138.8 108.909 138.8C94.0272 138.8 83.5405 128.877 83.5405 113.002V112.997Z" fill="#010D42"/>
<path d="M190.973 137.803H177.653L173.966 128.448H152.708L149.021 137.803H135.695L155.536 88.1973H171.127L190.968 137.803H190.973ZM157.028 117.393H169.64L163.474 101.802H163.189L157.023 117.393H157.028Z" fill="#010D42"/>
<path d="M196.356 88.1963H208.689V106.765H230.092V88.1963H242.425V137.802H230.092V118.1H208.689V137.802H196.356V88.1963Z" fill="#010D42"/>
<path d="M303.08 137.803H289.76L286.073 128.448H264.815L261.128 137.803H247.802L267.643 88.1973H283.234L303.075 137.803H303.08ZM269.135 117.393H281.747L275.581 101.802H275.296L269.13 117.393H269.135Z" fill="#010D42"/>
<path d="M355.52 137.807H343.187V99.5363H327.736L325.466 127.03C324.897 134.115 320.786 137.946 313.702 137.946H305.196V125.614H310.584C312.285 125.614 313.418 124.621 313.563 122.919L316.541 88.1963H355.52V137.802V137.807Z" fill="#010D42"/>
<path d="M416.18 137.803H402.86L399.173 128.448H377.915L374.228 137.803H360.902L380.743 88.1973H396.334L416.175 137.803H416.18ZM382.235 117.393H394.847L388.681 101.802H388.396L382.23 117.393H382.235Z" fill="#010D42"/>
<path d="M472.87 137.803H459.55L455.863 128.448H434.605L430.918 137.803H417.592L437.433 88.1973H453.024L472.865 137.803H472.87ZM438.925 117.393H451.537L445.371 101.802H445.086L438.92 117.393H438.925Z" fill="#010D42"/>
<path d="M492.282 112.997C492.282 97.1219 503.337 87.2041 518.219 87.2041C533.102 87.2041 544.157 97.1273 544.157 112.997C544.157 128.867 533.102 138.795 518.219 138.795C503.337 138.795 492.282 128.872 492.282 112.997ZM495.115 107.539H541.393V118.455H495.115V107.539ZM531.824 112.997C531.824 104.067 526.296 98.5388 518.219 98.5388C510.142 98.5388 504.615 104.067 504.615 112.997C504.615 121.927 510.142 127.455 518.219 127.455C526.296 127.455 531.824 121.927 531.824 112.997Z" fill="#010D42"/>
<path d="M551.949 88.1963H592.629V99.8208H564.282V137.807H551.949V88.2017V88.1963Z" fill="#010D42"/>
<path d="M643.652 137.807H631.319V99.5363H615.868L613.598 127.03C613.029 134.115 608.918 137.946 601.834 137.946H593.327V125.614H598.715C600.417 125.614 601.549 124.621 601.694 122.919L604.673 88.1963H643.652V137.802V137.807Z" fill="#010D42"/>
<path d="M651.444 112.997C651.444 97.1219 662.5 87.2041 677.382 87.2041C692.264 87.2041 703.32 97.1273 703.32 112.997C703.32 128.867 692.264 138.795 677.382 138.795C662.5 138.795 651.444 128.872 651.444 112.997ZM654.278 107.539H700.556V118.455H654.278V107.539ZM690.987 112.997C690.987 104.067 685.459 98.5388 677.382 98.5388C669.305 98.5388 663.777 104.067 663.777 112.997C663.777 121.927 669.305 127.455 677.382 127.455C685.459 127.455 690.987 121.927 690.987 112.997Z" fill="#010D42"/>
<path d="M709.556 112.997C709.556 97.1219 720.611 87.2041 735.493 87.2041C750.376 87.2041 761.431 97.1273 761.431 112.997C761.431 128.867 750.376 138.795 735.493 138.795C720.611 138.795 709.556 128.872 709.556 112.997ZM712.389 107.539H758.667V118.455H712.389V107.539ZM749.098 112.997C749.098 104.067 743.57 98.5388 735.493 98.5388C727.416 98.5388 721.889 104.067 721.889 112.997C721.889 121.927 727.416 127.455 735.493 127.455C743.57 127.455 749.098 121.927 749.098 112.997Z" fill="#010D42"/>
<path d="M766.67 131.85C766.67 127.599 769.365 125.19 773.615 125.19C777.866 125.19 780.56 127.599 780.56 131.85C780.56 136.1 777.866 138.51 773.615 138.51C769.365 138.51 766.67 136.1 766.67 131.85ZM779.282 122.211H767.942L767.588 88.1963H779.637L779.282 122.211Z" fill="#010D42"/>
<path d="M80.9384 82.9833C87.7166 82.9833 92.0262 86.5254 94.028 92.5308H108.196C105.733 78.9797 95.1067 70.6611 80.9384 70.6611C64.7682 70.6611 53.3691 81.443 53.3691 98.6919C53.3691 115.941 64.7628 126.723 80.9384 126.723C95.1067 126.723 105.733 118.404 108.196 104.853H94.028C92.0262 110.858 87.7166 114.401 80.9384 114.401C72.1583 114.401 66.77 108.395 66.77 98.6919C66.77 88.9887 72.1583 82.9833 80.9384 82.9833Z" fill="url(#paint0_linear_159_953)"/>
<path d="M131.607 71.7393L110.048 125.638H124.523L128.526 115.473H151.625L155.629 125.638H170.103L148.544 71.7393H131.601H131.607ZM133.222 103.462L139.92 86.5194H140.226L146.924 103.462H133.217H133.222Z" fill="url(#paint1_linear_159_953)"/>
<path d="M212.607 91.913H189.353V71.7393H175.952V125.638H189.353V104.235H212.607V125.638H226.002V71.7393H212.607V91.913Z" fill="url(#paint2_linear_159_953)"/>
<path d="M253.416 71.7393L231.857 125.638H246.332L250.335 115.473H273.434L277.438 125.638H291.912L270.353 71.7393H253.41H253.416ZM255.031 103.462L261.729 86.5194H262.035L268.733 103.462H255.026H255.031Z" fill="url(#paint3_linear_159_953)"/>
<path d="M303.312 109.468C303.156 111.314 301.927 112.393 300.075 112.393H294.22V125.794H303.462C311.163 125.794 315.628 121.634 316.246 113.933L318.709 84.056H335.496V125.638H348.892V71.7393H306.542L303.306 109.468H303.312Z" fill="url(#paint4_linear_159_953)"/>
<path d="M376.306 71.7393L354.747 125.638H369.221L373.225 115.473H396.324L400.327 125.638H414.802L393.243 71.7393H376.3H376.306ZM377.921 103.462L384.619 86.5194H384.925L391.622 103.462H377.916H377.921Z" fill="url(#paint5_linear_159_953)"/>
<path d="M437.9 71.7393L416.341 125.638H430.816L434.819 115.473H457.918L461.921 125.638H476.396L454.837 71.7393H437.894H437.9ZM439.515 103.462L446.213 86.5194H446.519L453.217 103.462H439.51H439.515Z" fill="url(#paint6_linear_159_953)"/>
<path d="M525.679 70.6611C509.508 70.6611 497.498 81.443 497.498 98.6919C497.498 115.941 509.508 126.723 525.679 126.723C541.849 126.723 553.86 115.941 553.86 98.6919C553.86 81.443 541.849 70.6611 525.679 70.6611ZM525.679 82.9833C532.494 82.9833 537.636 86.6059 539.595 92.7616H511.762C513.721 86.6059 518.863 82.9833 525.679 82.9833ZM525.679 114.401C518.863 114.401 513.721 110.778 511.762 104.622H539.595C537.636 110.778 532.494 114.401 525.679 114.401Z" fill="url(#paint7_linear_159_953)"/>
<path d="M562.329 125.638H575.73V84.3673H606.53V71.7393H562.329V125.638Z" fill="url(#paint8_linear_159_953)"/>
<path d="M616.384 109.468C616.228 111.314 614.999 112.393 613.148 112.393H607.298V125.794H616.539C624.241 125.794 628.706 121.634 629.323 113.933L631.787 84.056H648.574V125.638H661.969V71.7393H619.62L616.384 109.468Z" fill="url(#paint9_linear_159_953)"/>
<path d="M698.619 70.6611C682.449 70.6611 670.438 81.443 670.438 98.6919C670.438 115.941 682.449 126.723 698.619 126.723C714.789 126.723 726.8 115.941 726.8 98.6919C726.8 81.443 714.789 70.6611 698.619 70.6611ZM698.619 82.9833C705.435 82.9833 710.576 86.6059 712.535 92.7616H684.703C686.662 86.6059 691.803 82.9833 698.619 82.9833ZM698.619 114.401C691.803 114.401 686.662 110.778 684.703 104.622H712.535C710.576 110.778 705.435 114.401 698.619 114.401Z" fill="url(#paint10_linear_159_953)"/>
<path d="M761.759 70.6611C745.589 70.6611 733.578 81.443 733.578 98.6919C733.578 115.941 745.589 126.723 761.759 126.723C777.929 126.723 789.94 115.941 789.94 98.6919C789.94 81.443 777.929 70.6611 761.759 70.6611ZM761.759 82.9833C768.575 82.9833 773.716 86.6059 775.675 92.7616H747.843C749.801 86.6059 754.943 82.9833 761.759 82.9833ZM761.759 114.401C754.943 114.401 749.801 110.778 747.843 104.622H775.675C773.716 110.778 768.575 114.401 761.759 114.401Z" fill="url(#paint11_linear_159_953)"/>
<path d="M809.341 108.7L809.727 71.7393H796.638L797.024 108.7H809.341Z" fill="url(#paint12_linear_159_953)"/>
<path d="M803.18 111.931C798.559 111.931 795.634 114.55 795.634 119.17C795.634 123.791 798.559 126.41 803.18 126.41C807.8 126.41 810.725 123.791 810.725 119.17C810.725 114.55 807.8 111.931 803.18 111.931Z" fill="url(#paint13_linear_159_953)"/>
<defs>
<linearGradient id="paint0_linear_159_953" x1="80.7827" y1="70.6611" x2="80.7827" y2="126.717" gradientUnits="userSpaceOnUse">
<stop stop-color="white"/>
<stop offset="1" stop-color="#D4E9FF"/>
</linearGradient>
<linearGradient id="paint1_linear_159_953" x1="140.076" y1="71.7393" x2="140.076" y2="125.638" gradientUnits="userSpaceOnUse">
<stop stop-color="white"/>
<stop offset="1" stop-color="#D4E9FF"/>
</linearGradient>
<linearGradient id="paint2_linear_159_953" x1="200.977" y1="71.7393" x2="200.977" y2="125.638" gradientUnits="userSpaceOnUse">
<stop stop-color="white"/>
<stop offset="1" stop-color="#D4E9FF"/>
</linearGradient>
<linearGradient id="paint3_linear_159_953" x1="261.885" y1="71.7393" x2="261.885" y2="125.638" gradientUnits="userSpaceOnUse">
<stop stop-color="white"/>
<stop offset="1" stop-color="#D4E9FF"/>
</linearGradient>
<linearGradient id="paint4_linear_159_953" x1="321.559" y1="71.7393" x2="321.559" y2="125.794" gradientUnits="userSpaceOnUse">
<stop stop-color="white"/>
<stop offset="1" stop-color="#D4E9FF"/>
</linearGradient>
<linearGradient id="paint5_linear_159_953" x1="384.774" y1="71.7393" x2="384.774" y2="125.638" gradientUnits="userSpaceOnUse">
<stop stop-color="white"/>
<stop offset="1" stop-color="#D4E9FF"/>
</linearGradient>
<linearGradient id="paint6_linear_159_953" x1="446.374" y1="71.7393" x2="446.374" y2="125.638" gradientUnits="userSpaceOnUse">
<stop stop-color="white"/>
<stop offset="1" stop-color="#D4E9FF"/>
</linearGradient>
<linearGradient id="paint7_linear_159_953" x1="525.679" y1="-170.308" x2="525.679" y2="-170.308" gradientUnits="userSpaceOnUse">
<stop stop-color="white"/>
<stop offset="1" stop-color="#D4E9FF"/>
</linearGradient>
<linearGradient id="paint8_linear_159_953" x1="584.43" y1="71.7393" x2="584.43" y2="125.638" gradientUnits="userSpaceOnUse">
<stop stop-color="white"/>
<stop offset="1" stop-color="#D4E9FF"/>
</linearGradient>
<linearGradient id="paint9_linear_159_953" x1="634.636" y1="71.7393" x2="634.636" y2="125.794" gradientUnits="userSpaceOnUse">
<stop stop-color="white"/>
<stop offset="1" stop-color="#D4E9FF"/>
</linearGradient>
<linearGradient id="paint10_linear_159_953" x1="698.619" y1="-170.308" x2="698.619" y2="-170.308" gradientUnits="userSpaceOnUse">
<stop stop-color="white"/>
<stop offset="1" stop-color="#D4E9FF"/>
</linearGradient>
<linearGradient id="paint11_linear_159_953" x1="761.759" y1="-170.308" x2="761.759" y2="-170.308" gradientUnits="userSpaceOnUse">
<stop stop-color="white"/>
<stop offset="1" stop-color="#D4E9FF"/>
</linearGradient>
<linearGradient id="paint12_linear_159_953" x1="803.18" y1="71.7393" x2="803.18" y2="108.7" gradientUnits="userSpaceOnUse">
<stop stop-color="white"/>
<stop offset="1" stop-color="#D4E9FF"/>
</linearGradient>
<linearGradient id="paint13_linear_159_953" x1="803.18" y1="111.931" x2="803.18" y2="126.41" gradientUnits="userSpaceOnUse">
<stop stop-color="white"/>
<stop offset="1" stop-color="#D4E9FF"/>
</linearGradient>
</defs>
</svg>
